<?xml version="1.0" encoding="UTF-8"?>
<svg width="752pt" height="752pt" version="1.1" viewBox="0 0 752 752" xmlns="http://www.w3.org/2000/svg">
 <defs>
  <clipPath id="b">
   <path d="m139.21 189h473.58v423h-473.58z"/>
  </clipPath>
  <clipPath id="a">
   <path d="m368 139.21h16v36.789h-16z"/>
  </clipPath>
 </defs>
 <g clip-path="url(#b)">
  <path d="m613.36 370.42c-0.23047-3.3555-2.7031-6.1328-6.0039-6.7578l-179.15-33.742c-1.2227-0.22266-2.4648-0.15234-3.6406 0.22656l-4.4062 1.418c1.0703-2.582 2.6758-4.8672 4.7539-6.5898 21.324-17.762 31.129-44.906 26.223-72.625-5.457-30.582-29.547-55.102-59.965-61.016-22.836-4.4375-46.133 1.3711-63.824 15.957-17.711 14.598-27.863 36.105-27.863 59.012s10.094 44.363 27.691 58.906c2.7891 2.3047 4.7852 5.8242 5.6133 9.9414l0.25 1.2383-21.004-4.6445c-0.98828-0.21484-2-0.23047-2.9844-0.042969l-164.72 31.445c-3.3008 0.63281-5.7656 3.4102-5.9961 6.7617-0.22266 3.3516 1.8359 6.4414 5.0234 7.5195l35.531 11.988-34.758 7.6641c-3.1797 0.69922-5.5273 3.3945-5.7891 6.6328-0.26172 3.2461 1.6328 6.2773 4.6523 7.4727l56.074 22.191v111.67c0 3.1484 1.9883 5.9531 4.9648 6.9883l169.46 59.125c0.22266 0.074219 0.74609 0.21484 0.97656 0.27344 0.57812 0.14062 1.1719 0.21094 1.7539 0.21094 0.82422 0 1.6562-0.13672 2.4414-0.41406l170.71-59.641c2.9688-1.0352 4.957-3.8359 4.957-6.9844v-110.85l54.422-21.996c2.9844-1.207 4.8477-4.2109 4.6055-7.4219-0.24609-3.207-2.5352-5.8945-5.6719-6.6367l-33.949-8.043 34.613-11.711c3.1875-1.0781 5.2461-4.168 5.0078-7.5273zm-215.91 1.9961c-1.4688 9.4844-6.2031 24.641-21.523 24.641-15.32 0-20.055-15.16-21.527-24.641zm-28.926 38.641v27.449l-134.68-46.051 105.25-23.215c1.1172 15.105 8.3555 37.512 29.43 41.816zm14.801 0c21.148-4.3164 28.367-26.859 29.445-41.969l106.58 23.359-136.03 46.094zm-69.039-144.75c0-18.469 8.1953-35.816 22.48-47.598 14.273-11.762 33.074-16.441 51.582-12.848 24.453 4.7578 43.828 24.488 48.223 49.082 3.9609 22.41-3.9297 44.34-21.113 58.648-4.4883 3.7266-7.8008 8.7656-9.7109 14.426h-22.414v-19.137l17.59-17.59c2.8906-2.8906 2.8906-7.5742 0-10.465s-7.5742-2.8906-10.465 0l-14.523 14.523-14.523-14.523c-2.8906-2.8906-7.5742-2.8906-10.465 0s-2.8906 7.5742 0 10.465l17.59 17.59v19.137h-22.43c-1.9062-5.6484-5.1445-10.617-9.4883-14.215-14.184-11.723-22.32-29.035-22.32-47.5zm-139.52 106.1 135.57-25.879 25.887 5.7266 0.47266 2.3633-129.81 28.633-32.125-10.84zm193.77 221.35-154.66-53.961v-100.56l89.18 35.293c1.4805 0.58594 3.1055 0.67969 4.6406 0.26562l60.836-16.297zm213.16-187-138.91 56.133-43.395-14.16 147.92-50.117 34.387 8.1445z" fill="#1f3d84"/>
 </g>
 <g clip-path="url(#a)">
  <path d="m375.93 175.06c4.0898 0 7.3984-3.3125 7.3984-7.3984v-22.199c0-4.0859-3.3086-7.3984-7.3984-7.3984-4.0898 0-7.3984 3.3125-7.3984 7.3984v22.199c0 4.0859 3.3086 7.3984 7.3984 7.3984z" fill="#1f3d84"/>
 </g>
 <path d="m242.73 286.06h22.199c4.0898 0 7.3984-3.3125 7.3984-7.3984 0-4.0859-3.3086-7.3984-7.3984-7.3984h-22.199c-4.0898 0-7.3984 3.3125-7.3984 7.3984 0 4.0859 3.3086 7.3984 7.3984 7.3984z" fill="#1f3d84"/>
 <path d="m292.18 205.38c1.4453 1.4453 3.3398 2.168 5.2305 2.168 1.8945 0 3.7852-0.72266 5.2305-2.168 2.8906-2.8906 2.8906-7.5742 0-10.465l-15.688-15.688c-2.8906-2.8906-7.5742-2.8906-10.465 0-2.8906 2.8906-2.8906 7.5742 0 10.465l15.688 15.688z" fill="#1f3d84"/>
 <path d="m486.93 286.06h22.199c4.0898 0 7.3984-3.3125 7.3984-7.3984 0-4.0859-3.3086-7.3984-7.3984-7.3984h-22.199c-4.0898 0-7.3984 3.3125-7.3984 7.3984 0 4.0859 3.3086 7.3984 7.3984 7.3984z" fill="#1f3d84"/>
 <path d="m454.45 207.55c1.8945 0 3.7852-0.72266 5.2305-2.168l15.688-15.688c2.8906-2.8906 2.8906-7.5742 0-10.465-2.8906-2.8906-7.5742-2.8906-10.465 0l-15.688 15.688c-2.8906 2.8906-2.8906 7.5742 0 10.465 1.4453 1.4453 3.3398 2.168 5.2305 2.168z" fill="#1f3d84"/>
</svg>
