<?xml version="1.0" encoding="UTF-8"?>
<svg width="752pt" height="752pt" version="1.1" viewBox="0 0 752 752" xmlns="http://www.w3.org/2000/svg">
 <path d="m379.41 253.48 213.11 80.508c3.5039 1.3867 5.9805 5.0391 5.9805 8.8047 0 3.7695-2.4805 7.418-5.9805 8.8047l-27.082 10.211v51.059c2.8828 2.6016 4.7344 6.3203 4.7344 10.508 0 7.8477-6.3594 14.207-14.207 14.207s-14.207-6.3594-14.207-14.207c0-4.1875 1.8516-7.9062 4.7344-10.508v-43.953l-32.707 12.43 4.293 60.234c0.70703 9.8984-5.5391 17.523-13.32 23.828-7.7812 6.3008-18.211 11.789-30.93 16.723-25.438 9.8711-59.906 17.02-97.824 17.02-37.918 0-72.387-7.1484-97.824-17.02-12.719-4.9336-23.152-10.422-30.93-16.723-7.7812-6.3008-14.027-13.93-13.32-23.828l4.293-60.234-78.734-29.746c-3.5039-1.3867-5.9805-5.0391-5.9805-8.8047 0-3.7695 2.4805-7.418 5.9805-8.8047l213.11-80.508c2.8008-1.1484 5.2188-0.45703 6.8086 0zm-3.4023 18.941-186.47 70.445 186.47 70.297 186.47-70.297zm119.28 115.88-115.88 43.805c-2.168 0.83203-4.6406 0.83203-6.8086 0l-115.88-43.805-3.8477 54.609s0.74219 3.2656 6.2148 7.6953c5.4727 4.4336 14.473 9.4805 25.898 13.91 22.852 8.8672 55.473 15.688 91.016 15.688 35.547 0 68.164-6.8203 91.016-15.688 11.426-4.4336 20.426-9.4805 25.898-13.91 5.4727-4.4336 6.2148-7.707 6.2148-7.6953z" fill="#1f3d84"/>
</svg>
