<?xml version="1.0" encoding="UTF-8"?>
<svg width="752pt" height="752pt" version="1.1" viewBox="0 0 752 752" xmlns="http://www.w3.org/2000/svg">
 <path d="m201.22 243.4c-15.715 0-28.859 12.711-28.859 28.414v208.38c0 15.703 13.141 28.414 28.859 28.414h349.56c15.715 0 28.859-12.711 28.859-28.414v-208.38c0-15.707-13.141-28.414-28.859-28.414zm4.8828 18.941h339.79l-161.61 144.44c-4.0312 3.6016-12.547 3.6016-16.574 0l-161.61-144.44zm-14.797 12.137 118.25 105.67-118.25 97.973zm369.39 0v203.64l-118.25-97.973zm-236.79 118.54 31.227 27.824c11.844 10.586 29.891 10.586 41.734 0l31.227-27.824 116.77 96.641h-337.72l116.77-96.641z" fill="#1f3d84"/>
</svg>
