<?xml version="1.0" encoding="UTF-8"?>
<svg width="752pt" height="752pt" version="1.1" viewBox="0 0 752 752" xmlns="http://www.w3.org/2000/svg">
 <defs>
  <clipPath id="b">
   <path d="m179 205h433.79v286h-433.79z"/>
  </clipPath>
  <clipPath id="a">
   <path d="m139.21 241h402.79v286h-402.79z"/>
  </clipPath>
 </defs>
 <path d="m373.45 378.55h-81.477c-2.8086 0-5.0898-2.2812-5.0898-5.0938v-81.477c0-2.8125 2.2812-5.0898 5.0898-5.0898h81.477c2.8125 0 5.0938 2.2812 5.0938 5.0898v81.477c0 2.8125-2.2812 5.0938-5.0938 5.0938zm-76.379-10.191h71.289v-71.293h-71.289z" fill="#1f3d84" fill-rule="evenodd"/>
 <path d="m373.45 337.81c-25.27 0-45.828-20.559-45.828-45.832 0-25.27 20.559-45.828 45.828-45.828 25.273 0 45.832 20.559 45.832 45.828-0.003906 25.273-20.559 45.832-45.832 45.832zm0-81.477c-19.656 0-35.645 15.992-35.645 35.645 0 19.652 15.988 35.645 35.645 35.645 19.66 0 35.648-15.992 35.648-35.645 0-19.652-15.992-35.645-35.648-35.645z" fill="#1f3d84" fill-rule="evenodd"/>
 <path d="m500.76 460.02c-1.9258 0-3.6875-1.0938-4.5508-2.8125l-20.371-40.738c-0.34766-0.71094-0.53906-1.4883-0.53906-2.2812v-160.24c0-9.9219 8.0703-17.992 17.992-17.992h14.938c9.9219 0 17.992 8.0742 17.992 17.992v160.24c0 0.78516-0.1875 1.5703-0.54688 2.2812l-20.363 40.738c-0.86328 1.7227-2.6289 2.8125-4.5547 2.8125zm-15.273-47.031 15.273 30.551 15.281-30.551v-159.04c0-4.3008-3.5-7.8086-7.8086-7.8086h-14.938c-4.3008 0-7.8086 3.5-7.8086 7.8086zm35.641 1.2031h0.011719z" fill="#1f3d84" fill-rule="evenodd"/>
 <path d="m521.12 286.89h-40.738c-2.8125 0-5.0938-2.2812-5.0938-5.0898s2.2812-5.0938 5.0938-5.0938h40.738c2.8125 0 5.0938 2.2812 5.0938 5.0938s-2.2773 5.0898-5.0938 5.0898z" fill="#1f3d84" fill-rule="evenodd"/>
 <g clip-path="url(#b)">
  <path d="m607.7 490.58h-422.66c-2.8125 0-5.0938-2.2812-5.0938-5.0938v-274.98c0-2.8125 2.2812-5.0938 5.0938-5.0938h422.66c2.8086 0 5.0938 2.2812 5.0938 5.0938v274.98c0 2.8164-2.2852 5.0898-5.0938 5.0898zm-417.57-10.184h412.47v-264.79h-412.47z" fill="#1f3d84" fill-rule="evenodd"/>
 </g>
 <g clip-path="url(#a)">
  <path d="m536.41 526.22h-392.1c-2.8125 0-5.0938-2.2812-5.0938-5.0938v-274.98c0-2.8125 2.2812-5.0938 5.0938-5.0938l40.738-0.003907c2.8086 0 5.0898 2.2812 5.0898 5.0938s-2.2812 5.0898-5.0898 5.0898h-35.648v264.8h381.92v-30.555c0-2.8125 2.2812-5.0938 5.0938-5.0938 2.8086 0 5.0938 2.2812 5.0938 5.0938v35.645c0 2.8203-2.2852 5.0938-5.0938 5.0938z" fill="#1f3d84" fill-rule="evenodd"/>
 </g>
 <path d="m541.5 195.23c-14.039 0-25.465-11.426-25.465-25.465s11.426-25.457 25.465-25.457c14.039 0 25.457 11.422 25.457 25.457 0 14.039-11.418 25.465-25.457 25.465zm0-40.738c-8.4258 0-15.281 6.8516-15.281 15.273 0 8.4258 6.8516 15.281 15.281 15.281 8.4219 0 15.273-6.8516 15.273-15.281-0.003906-8.4219-6.8516-15.273-15.273-15.273z" fill="#1f3d84" fill-rule="evenodd"/>
 <path d="m353.09 607.7c-19.656 0-35.648-15.988-35.648-35.645s15.992-35.648 35.648-35.648 35.645 15.992 35.645 35.648-15.984 35.645-35.645 35.645zm0-61.102c-14.039 0-25.461 11.418-25.461 25.457 0 14.039 11.422 25.457 25.461 25.457 14.039 0 25.457-11.418 25.457-25.457 0-14.039-11.418-25.457-25.457-25.457z" fill="#1f3d84" fill-rule="evenodd"/>
 <path d="m500.76 460.02h-76.379c-2.8125 0-5.0938-2.2812-5.0938-5.0938v-25.457h-81.477c-2.8125 0-5.0938-2.2812-5.0938-5.0938 0-2.8086 2.2812-5.0898 5.0938-5.0898h86.566c2.8086 0 5.0938 2.2812 5.0938 5.0898v25.457h71.289c2.8125 0 5.0938 2.2852 5.0938 5.0938 0.003907 2.8203-2.2773 5.0938-5.0898 5.0938z" fill="#1f3d84" fill-rule="evenodd"/>
</svg>
