<svg width="400" height="400" viewBox="0 0 400 400" fill="none" xmlns="http://www.w3.org/2000/svg">
<rect width="400" height="400" fill="#ECF0F1"/>
<path d="M86.6 215.16C86.6 218.52 85.8533 221.453 84.36 223.96C82.8667 226.467 80.6 228.413 77.56 229.8C74.5733 231.133 70.7867 231.8 66.2 231.8C64.0667 231.8 62.0933 231.667 60.28 231.4C58.4667 231.133 56.76 230.76 55.16 230.28C53.56 229.747 51.96 229.107 50.36 228.36V217.08C53.08 218.253 55.8533 219.347 58.68 220.36C61.56 221.32 64.28 221.8 66.84 221.8C68.4933 221.8 69.8267 221.533 70.84 221C71.8533 220.467 72.6 219.747 73.08 218.84C73.56 217.933 73.8 216.893 73.8 215.72C73.8 214.28 73.4 213.053 72.6 212.04C71.8533 211.027 70.7333 210.093 69.24 209.24C67.7467 208.333 65.9067 207.427 63.72 206.52C62.12 205.827 60.5467 205.027 59 204.12C57.4533 203.213 56.0667 202.12 54.84 200.84C53.6133 199.507 52.6267 197.907 51.88 196.04C51.1867 194.173 50.84 191.933 50.84 189.32C50.84 185.907 51.64 183 53.24 180.6C54.84 178.147 57.08 176.28 59.96 175C62.84 173.72 66.2 173.08 70.04 173.08C73.1867 173.08 76.0933 173.427 78.76 174.12C81.48 174.813 84.0667 175.8 86.52 177.08L82.44 186.52C80.0933 185.453 77.8533 184.627 75.72 184.04C73.64 183.453 71.6133 183.16 69.64 183.16C68.3067 183.16 67.1867 183.4 66.28 183.88C65.3733 184.36 64.68 185.027 64.2 185.88C63.7733 186.733 63.56 187.747 63.56 188.92C63.56 190.253 63.9067 191.4 64.6 192.36C65.3467 193.267 66.4933 194.173 68.04 195.08C69.5867 195.933 71.56 196.973 73.96 198.2C76.6267 199.533 78.8933 200.947 80.76 202.44C82.68 203.88 84.12 205.613 85.08 207.64C86.0933 209.667 86.6 212.173 86.6 215.16ZM107.584 182.6C107.584 184.733 107.504 186.787 107.344 188.76C107.237 190.733 107.13 192.12 107.024 192.92H107.664C108.57 191.427 109.584 190.227 110.704 189.32C111.877 188.36 113.184 187.667 114.624 187.24C116.064 186.76 117.61 186.52 119.264 186.52C122.144 186.52 124.677 187.08 126.864 188.2C129.104 189.32 130.864 191.053 132.144 193.4C133.424 195.747 134.064 198.787 134.064 202.52V231H121.184V205.48C121.184 202.333 120.704 199.987 119.744 198.44C118.837 196.84 117.397 196.04 115.424 196.04C113.45 196.04 111.877 196.6 110.704 197.72C109.53 198.84 108.704 200.467 108.224 202.6C107.797 204.733 107.584 207.347 107.584 210.44V231H94.7838V170.2H107.584V182.6ZM163.266 186.44C168.652 186.44 172.812 187.72 175.746 190.28C178.732 192.787 180.226 196.653 180.226 201.88V231H171.346L168.866 225.08H168.546C167.372 226.627 166.172 227.907 164.946 228.92C163.719 229.933 162.306 230.653 160.706 231.08C159.106 231.56 157.159 231.8 154.866 231.8C152.466 231.8 150.306 231.32 148.386 230.36C146.519 229.347 145.026 227.827 143.906 225.8C142.786 223.72 142.226 221.107 142.226 217.96C142.226 213.32 143.746 209.907 146.786 207.72C149.879 205.48 154.412 204.253 160.386 204.04L167.426 203.8V201.88C167.426 199.587 166.919 197.907 165.906 196.84C164.892 195.773 163.506 195.24 161.746 195.24C159.932 195.24 158.039 195.56 156.066 196.2C154.092 196.787 152.119 197.533 150.146 198.44L146.226 190.36C148.572 189.133 151.159 188.173 153.986 187.48C156.866 186.787 159.959 186.44 163.266 186.44ZM163.746 210.92C160.599 211.027 158.386 211.72 157.106 213C155.879 214.28 155.266 215.96 155.266 218.04C155.266 219.853 155.692 221.16 156.546 221.96C157.452 222.707 158.626 223.08 160.066 223.08C162.092 223.08 163.826 222.333 165.266 220.84C166.759 219.293 167.506 217.133 167.506 214.36V210.76L163.746 210.92ZM203.678 231H190.878V170.2H203.678V231ZM227.349 231H214.549V170.2H227.349V231ZM307.661 173.88L294.141 231H279.101L272.781 201C272.675 200.413 272.515 199.533 272.301 198.36C272.088 197.187 271.848 195.907 271.581 194.52C271.368 193.133 271.155 191.827 270.941 190.6C270.781 189.32 270.648 188.333 270.541 187.64C270.488 188.333 270.355 189.32 270.141 190.6C269.928 191.827 269.688 193.133 269.421 194.52C269.208 195.853 268.995 197.133 268.781 198.36C268.568 199.533 268.381 200.44 268.221 201.08L261.901 231H246.861L233.341 173.88H245.981L252.301 205.08C252.461 205.987 252.675 207.107 252.941 208.44C253.208 209.72 253.475 211.08 253.741 212.52C254.008 213.907 254.248 215.267 254.461 216.6C254.675 217.933 254.835 219.08 254.941 220.04C255.101 219.027 255.288 217.88 255.501 216.6C255.768 215.267 256.008 213.907 256.221 212.52C256.488 211.133 256.728 209.853 256.941 208.68C257.208 207.453 257.421 206.467 257.581 205.72L264.541 173.88H276.541L283.341 205.88C283.501 206.573 283.688 207.533 283.901 208.76C284.168 209.933 284.435 211.213 284.701 212.6C284.968 213.987 285.208 215.347 285.421 216.68C285.635 217.96 285.821 219.08 285.981 220.04C286.141 218.707 286.381 217.133 286.701 215.32C287.021 213.453 287.368 211.587 287.741 209.72C288.115 207.853 288.435 206.307 288.701 205.08L295.021 173.88H307.661ZM330.046 186.52C333.939 186.52 337.299 187.293 340.126 188.84C342.952 190.387 345.139 192.627 346.686 195.56C348.232 198.493 349.006 202.093 349.006 206.36V212.12H323.006C323.112 215.48 323.966 218.12 325.566 220.04C327.219 221.96 329.566 222.92 332.606 222.92C335.272 222.92 337.672 222.653 339.806 222.12C341.992 221.533 344.232 220.653 346.526 219.48V228.68C344.552 229.747 342.392 230.52 340.046 231C337.752 231.533 334.899 231.8 331.486 231.8C327.326 231.8 323.619 231 320.366 229.4C317.166 227.747 314.632 225.267 312.766 221.96C310.952 218.653 310.046 214.493 310.046 209.48C310.046 204.36 310.872 200.12 312.526 196.76C314.232 193.347 316.579 190.787 319.566 189.08C322.606 187.373 326.099 186.52 330.046 186.52ZM330.286 195C328.366 195 326.766 195.747 325.486 197.24C324.206 198.733 323.459 201.053 323.246 204.2H337.246C337.246 202.44 336.979 200.867 336.446 199.48C335.912 198.093 335.139 197 334.126 196.2C333.112 195.4 331.832 195 330.286 195Z" fill="#1ABC9C"/>
</svg>
