<svg width="375" height="580" viewBox="0 0 375 580" fill="none" xmlns="http://www.w3.org/2000/svg">
<g clip-path="url(#clip0_527_1791)">
<rect width="375" height="580" fill="white"/>
<path opacity="0.35" d="M338.667 17.833H355.333C356.53 17.833 357.5 18.8031 357.5 19.9997V25.9997C357.5 27.1963 356.53 28.1663 355.333 28.1663H338.667C337.47 28.1663 336.5 27.1963 336.5 25.9997V19.9997C336.5 18.8031 337.47 17.833 338.667 17.833Z" stroke="#222222"/>
<path opacity="0.4" d="M359 20.9995V24.9995C359.805 24.6607 360.328 23.8726 360.328 22.9995C360.328 22.1264 359.805 21.3383 359 20.9995" fill="#222222"/>
<path d="M338 20.6663C338 19.93 338.597 19.333 339.333 19.333H354.667C355.403 19.333 356 19.93 356 20.6663V25.333C356 26.0694 355.403 26.6663 354.667 26.6663H339.333C338.597 26.6663 338 26.0694 338 25.333V20.6663Z" fill="#222222"/>
<path fill-rule="evenodd" clip-rule="evenodd" d="M323.33 19.6079C325.546 19.608 327.677 20.4594 329.283 21.9862C329.404 22.1041 329.598 22.1026 329.717 21.9829L330.873 20.8162C330.933 20.7555 330.967 20.6733 330.966 20.5877C330.966 20.5021 330.931 20.4202 330.87 20.3602C326.655 16.3207 320.005 16.3207 315.79 20.3602C315.729 20.4202 315.694 20.502 315.694 20.5876C315.693 20.6732 315.727 20.7555 315.787 20.8162L316.943 21.9829C317.062 22.1028 317.256 22.1043 317.377 21.9862C318.983 20.4593 321.114 19.6079 323.33 19.6079ZM323.33 23.4036C324.548 23.4035 325.722 23.856 326.624 24.6732C326.746 24.7892 326.939 24.7867 327.058 24.6676L328.212 23.5009C328.273 23.4397 328.307 23.3567 328.306 23.2704C328.305 23.1842 328.27 23.1018 328.208 23.0419C325.459 20.4855 321.204 20.4855 318.455 23.0419C318.393 23.1018 318.358 23.1842 318.357 23.2705C318.356 23.3568 318.39 23.4398 318.451 23.5009L319.605 24.6676C319.724 24.7867 319.917 24.7892 320.039 24.6732C320.941 23.8566 322.114 23.4041 323.33 23.4036ZM325.643 25.9574C325.645 26.0439 325.611 26.1273 325.549 26.1879L323.552 28.2036C323.493 28.2628 323.414 28.2961 323.33 28.2961C323.247 28.2961 323.167 28.2628 323.109 28.2036L321.111 26.1879C321.049 26.1272 321.015 26.0438 321.017 25.9573C321.019 25.8708 321.056 25.7889 321.121 25.7309C322.396 24.652 324.264 24.652 325.54 25.7309C325.604 25.7889 325.642 25.8709 325.643 25.9574Z" fill="#222222"/>
<path fill-rule="evenodd" clip-rule="evenodd" d="M309.667 17.6665H308.667C308.114 17.6665 307.667 18.1142 307.667 18.6665V27.3332C307.667 27.8855 308.114 28.3332 308.667 28.3332H309.667C310.219 28.3332 310.667 27.8855 310.667 27.3332V18.6665C310.667 18.1142 310.219 17.6665 309.667 17.6665ZM304 19.9998H305C305.552 19.9998 306 20.4476 306 20.9998V27.3332C306 27.8855 305.552 28.3332 305 28.3332H304C303.448 28.3332 303 27.8855 303 27.3332V20.9998C303 20.4476 303.448 19.9998 304 19.9998ZM300.333 22.3332H299.333C298.781 22.3332 298.333 22.7809 298.333 23.3332V27.3332C298.333 27.8855 298.781 28.3332 299.333 28.3332H300.333C300.886 28.3332 301.333 27.8855 301.333 27.3332V23.3332C301.333 22.7809 300.886 22.3332 300.333 22.3332ZM295.667 24.3332H294.667C294.114 24.3332 293.667 24.7809 293.667 25.3332V27.3332C293.667 27.8855 294.114 28.3332 294.667 28.3332H295.667C296.219 28.3332 296.667 27.8855 296.667 27.3332V25.3332C296.667 24.7809 296.219 24.3332 295.667 24.3332Z" fill="#222222"/>
<path d="M37.3207 28.2563C40.0087 28.2563 41.6053 26.1543 41.6053 22.5947C41.6053 21.2544 41.349 20.1265 40.8583 19.2549C40.1478 17.8999 38.9247 17.1675 37.3793 17.1675C35.0795 17.1675 33.4535 18.7129 33.4535 20.8809C33.4535 22.917 34.9183 24.3965 36.9325 24.3965C38.1703 24.3965 39.1737 23.8179 39.6718 22.8145H39.6937C39.6937 22.8145 39.723 22.8145 39.7303 22.8145C39.745 22.8145 39.7963 22.8145 39.7963 22.8145C39.7963 25.2314 38.8807 26.6743 37.3353 26.6743C36.4271 26.6743 35.724 26.1763 35.4823 25.3779H33.6C33.9149 27.1138 35.3871 28.2563 37.3207 28.2563ZM37.3866 22.895C36.1708 22.895 35.3065 22.0308 35.3065 20.8223C35.3065 19.6431 36.2147 18.7422 37.3939 18.7422C38.5731 18.7422 39.4813 19.6577 39.4813 20.8516C39.4813 22.0308 38.5951 22.895 37.3866 22.895Z" fill="black"/>
<path d="M44.6965 28.1538C45.3923 28.1538 45.8683 27.6558 45.8683 26.9966C45.8683 26.3301 45.3923 25.8394 44.6965 25.8394C44.008 25.8394 43.5246 26.3301 43.5246 26.9966C43.5246 27.6558 44.008 28.1538 44.6965 28.1538ZM44.6965 22.6606C45.3923 22.6606 45.8683 22.1699 45.8683 21.5107C45.8683 20.8442 45.3923 20.3535 44.6965 20.3535C44.008 20.3535 43.5246 20.8442 43.5246 21.5107C43.5246 22.1699 44.008 22.6606 44.6965 22.6606Z" fill="black"/>
<path d="M52.7241 28H54.5332V26.0298H55.9614V24.4331H54.5332V17.4312H51.8672C49.9995 20.2437 48.5127 22.5947 47.5605 24.3452V26.0298H52.7241V28ZM49.311 24.3672C50.5415 22.1992 51.6401 20.4634 52.6509 18.9692H52.7534V24.4771H49.311V24.3672Z" fill="black"/>
<path d="M59.99 28H61.8797V17.4312H59.9973L57.2361 19.3647V21.1812L59.8655 19.3354H59.99V28Z" fill="black"/>
<path d="M157.63 62.04C157.63 62.88 157.423 63.6133 157.01 64.24C156.597 64.8667 155.997 65.3533 155.21 65.7C154.437 66.0333 153.49 66.2 152.37 66.2C151.877 66.2 151.39 66.1667 150.91 66.1C150.443 66.0333 149.99 65.94 149.55 65.82C149.123 65.6867 148.717 65.5267 148.33 65.34V62.52C149.01 62.8133 149.71 63.0867 150.43 63.34C151.163 63.58 151.89 63.7 152.61 63.7C153.103 63.7 153.497 63.6333 153.79 63.5C154.097 63.3667 154.317 63.1867 154.45 62.96C154.597 62.7333 154.67 62.4733 154.67 62.18C154.67 61.82 154.543 61.5133 154.29 61.26C154.05 61.0067 153.723 60.7733 153.31 60.56C152.897 60.3333 152.423 60.0933 151.89 59.84C151.557 59.68 151.197 59.4933 150.81 59.28C150.423 59.0533 150.05 58.78 149.69 58.46C149.343 58.1267 149.057 57.7267 148.83 57.26C148.603 56.7933 148.49 56.2333 148.49 55.58C148.49 54.7267 148.683 54 149.07 53.4C149.47 52.7867 150.03 52.32 150.75 52C151.483 51.68 152.343 51.52 153.33 51.52C154.077 51.52 154.783 51.6067 155.45 51.78C156.13 51.9533 156.837 52.2 157.57 52.52L156.59 54.88C155.937 54.6133 155.35 54.4067 154.83 54.26C154.31 54.1133 153.777 54.04 153.23 54.04C152.857 54.04 152.537 54.1 152.27 54.22C152.003 54.34 151.797 54.5067 151.65 54.72C151.517 54.9333 151.45 55.1867 151.45 55.48C151.45 55.8133 151.55 56.1 151.75 56.34C151.95 56.5667 152.25 56.7867 152.65 57C153.05 57.2133 153.55 57.4667 154.15 57.76C154.883 58.1067 155.503 58.4667 156.01 58.84C156.53 59.2133 156.93 59.6533 157.21 60.16C157.49 60.6667 157.63 61.2933 157.63 62.04ZM162.966 53.9C162.966 54.4333 162.946 54.9467 162.906 55.44C162.879 55.9333 162.852 56.28 162.826 56.48H162.986C163.226 56.1067 163.506 55.8067 163.826 55.58C164.146 55.34 164.499 55.1667 164.886 55.06C165.286 54.94 165.706 54.88 166.146 54.88C166.932 54.88 167.619 55.02 168.206 55.3C168.792 55.58 169.246 56.0133 169.566 56.6C169.899 57.1867 170.066 57.9467 170.066 58.88V66H167.086V59.62C167.086 58.8333 166.939 58.2467 166.646 57.86C166.366 57.46 165.926 57.26 165.326 57.26C164.726 57.26 164.252 57.4 163.906 57.68C163.572 57.96 163.332 58.3667 163.186 58.9C163.039 59.4333 162.966 60.0867 162.966 60.86V66H159.986V50.8H162.966V53.9ZM177.61 54.86C179.077 54.86 180.197 55.18 180.97 55.82C181.757 56.4467 182.15 57.4133 182.15 58.72V66H180.07L179.49 64.52H179.41C179.104 64.9067 178.784 65.2267 178.45 65.48C178.13 65.7333 177.757 65.9133 177.33 66.02C176.917 66.14 176.404 66.2 175.79 66.2C175.15 66.2 174.57 66.08 174.05 65.84C173.544 65.5867 173.144 65.2067 172.85 64.7C172.557 64.18 172.41 63.5267 172.41 62.74C172.41 61.58 172.817 60.7267 173.63 60.18C174.444 59.62 175.664 59.3133 177.29 59.26L179.19 59.2V58.72C179.19 58.1467 179.037 57.7267 178.73 57.46C178.437 57.1933 178.024 57.06 177.49 57.06C176.957 57.06 176.437 57.14 175.93 57.3C175.424 57.4467 174.917 57.6333 174.41 57.86L173.43 55.84C174.017 55.5333 174.664 55.2933 175.37 55.12C176.09 54.9467 176.837 54.86 177.61 54.86ZM178.03 60.98C177.07 61.0067 176.404 61.18 176.03 61.5C175.657 61.82 175.47 62.24 175.47 62.76C175.47 63.2133 175.604 63.54 175.87 63.74C176.137 63.9267 176.484 64.02 176.91 64.02C177.55 64.02 178.09 63.8333 178.53 63.46C178.97 63.0733 179.19 62.5333 179.19 61.84V60.94L178.03 60.98ZM188.181 66H185.201V50.8H188.181V66ZM194.274 66H191.294V50.8H194.274V66ZM215.168 51.72L211.528 66H208.088L206.148 58.5C206.108 58.3533 206.055 58.1333 205.988 57.84C205.935 57.5467 205.868 57.2267 205.788 56.88C205.721 56.5333 205.661 56.2067 205.608 55.9C205.555 55.58 205.515 55.3333 205.488 55.16C205.475 55.3333 205.435 55.58 205.368 55.9C205.315 56.2067 205.255 56.5333 205.188 56.88C205.121 57.2133 205.055 57.5333 204.988 57.84C204.921 58.1333 204.868 58.36 204.828 58.52L202.908 66H199.468L195.828 51.72H198.808L200.628 59.52C200.681 59.7467 200.741 60.0267 200.808 60.36C200.875 60.68 200.941 61.02 201.008 61.38C201.075 61.7267 201.135 62.0667 201.188 62.4C201.255 62.7333 201.301 63.02 201.328 63.26C201.355 63.0067 201.395 62.72 201.448 62.4C201.501 62.0667 201.561 61.7333 201.628 61.4C201.695 61.0533 201.755 60.7333 201.808 60.44C201.875 60.1333 201.935 59.8933 201.988 59.72L204.068 51.72H206.928L209.008 59.72C209.048 59.8933 209.101 60.1333 209.168 60.44C209.235 60.7333 209.301 61.0533 209.368 61.4C209.435 61.7467 209.495 62.0867 209.548 62.42C209.601 62.74 209.641 63.02 209.668 63.26C209.708 62.9267 209.768 62.5333 209.848 62.08C209.928 61.6133 210.015 61.1467 210.108 60.68C210.215 60.2133 210.301 59.8267 210.368 59.52L212.188 51.72H215.168ZM220.833 54.88C221.847 54.88 222.713 55.0733 223.433 55.46C224.167 55.8467 224.733 56.4067 225.133 57.14C225.533 57.8733 225.733 58.7733 225.733 59.84V61.28H218.693C218.72 62.12 218.967 62.78 219.433 63.26C219.913 63.74 220.573 63.98 221.413 63.98C222.12 63.98 222.76 63.9133 223.333 63.78C223.907 63.6333 224.5 63.4133 225.113 63.12V65.42C224.58 65.6867 224.013 65.88 223.413 66C222.827 66.1333 222.113 66.2 221.273 66.2C220.18 66.2 219.213 66 218.373 65.6C217.533 65.1867 216.873 64.5667 216.393 63.74C215.913 62.9133 215.673 61.8733 215.673 60.62C215.673 59.34 215.887 58.28 216.313 57.44C216.753 56.5867 217.36 55.9467 218.133 55.52C218.907 55.0933 219.807 54.88 220.833 54.88ZM220.853 57C220.28 57 219.8 57.1867 219.413 57.56C219.04 57.9333 218.82 58.5133 218.753 59.3H222.933C222.933 58.86 222.853 58.4667 222.693 58.12C222.547 57.7733 222.32 57.5 222.013 57.3C221.707 57.1 221.32 57 220.853 57Z" fill="#1ABC9C"/>
<line y1="82.5" x2="375" y2="82.5" stroke="#787BC5"/>
<path d="M302.48 184.252V183.316H305.384V184.252H302.48Z" fill="black"/>
<rect width="375" height="83" transform="translate(0 497)" fill="white"/>
<rect y="496.5" width="375" height="0.5" fill="black" fill-opacity="0.3"/>
<g clip-path="url(#clip1_527_1791)">
<g filter="url(#filter0_b_527_1791)">
<rect y="497" width="375" height="83" fill="white" fill-opacity="0.82"/>
</g>
<path fill-rule="evenodd" clip-rule="evenodd" d="M89.406 511.902H81.5163C81.0444 511.904 80.6241 511.604 80.4733 511.156L78.043 503.747C77.8904 503.3 77.4713 503 77 503C76.5287 503 76.1096 503.3 75.957 503.747L73.5267 511.156C73.3759 511.604 72.9556 511.904 72.4837 511.902H64.594C64.1252 511.891 63.7042 512.188 63.5554 512.633C63.4066 513.079 63.5646 513.569 63.9453 513.843L70.3479 518.452C70.7262 518.721 70.8859 519.206 70.7421 519.647L68.3018 527.089C68.197 527.421 68.2579 527.784 68.4656 528.063C68.6732 528.342 69.0023 528.504 69.3498 528.498C69.5815 528.497 69.8069 528.422 69.9936 528.285L76.3513 523.709C76.7393 523.431 77.2607 523.431 77.6487 523.709L84.0064 528.285C84.1931 528.422 84.4185 528.497 84.6502 528.498C84.9977 528.504 85.3268 528.342 85.5344 528.063C85.7421 527.784 85.803 527.421 85.6982 527.089L83.2579 519.647C83.1141 519.206 83.2738 518.721 83.6521 518.452L90.0547 513.843C90.4354 513.569 90.5934 513.079 90.4446 512.633C90.2958 512.188 89.8748 511.891 89.406 511.902Z" fill="#007AFF"/>
<path d="M71.6908 532.9H72.8608V533.33C72.8608 535.11 71.4608 536.62 69.0308 536.98L68.5108 535.91C70.6408 535.63 71.6908 534.42 71.6908 533.33V532.9ZM71.9408 532.9H73.1008V533.33C73.1008 534.41 74.1608 535.63 76.2808 535.91L75.7708 536.98C73.3408 536.62 71.9408 535.11 71.9408 533.33V532.9ZM71.7008 538.5H73.0208V541.89H71.7008V538.5ZM68.2108 537.66H76.5808V538.74H68.2108V537.66ZM82.08 534.67H84.4V535.74H82.08V534.67ZM79.96 533.01C81.35 533.01 82.4 533.94 82.4 535.22C82.4 536.51 81.35 537.43 79.96 537.43C78.56 537.43 77.51 536.51 77.51 535.22C77.51 533.94 78.56 533.01 79.96 533.01ZM79.96 534.12C79.28 534.12 78.78 534.53 78.78 535.22C78.78 535.91 79.28 536.33 79.96 536.33C80.64 536.33 81.13 535.91 81.13 535.22C81.13 534.53 80.64 534.12 79.96 534.12ZM83.82 532.63H85.15V537.61H83.82V532.63ZM79 538.01H80.32V538.89H83.83V538.01H85.15V541.79H79V538.01ZM80.32 539.91V540.73H83.83V539.91H80.32Z" fill="#007AFF"/>
<path fill-rule="evenodd" clip-rule="evenodd" d="M200.406 511.902H192.516C192.044 511.904 191.624 511.604 191.473 511.156L189.043 503.747C188.89 503.3 188.471 503 188 503C187.529 503 187.11 503.3 186.957 503.747L184.527 511.156C184.376 511.604 183.956 511.904 183.484 511.902H175.594C175.125 511.891 174.704 512.188 174.555 512.633C174.407 513.079 174.565 513.569 174.945 513.843L181.348 518.452C181.726 518.721 181.886 519.206 181.742 519.647L179.302 527.089C179.197 527.421 179.258 527.784 179.466 528.063C179.673 528.342 180.002 528.504 180.35 528.498C180.582 528.497 180.807 528.422 180.994 528.285L187.351 523.709C187.739 523.431 188.261 523.431 188.649 523.709L195.006 528.285C195.193 528.422 195.418 528.497 195.65 528.498C195.998 528.504 196.327 528.342 196.534 528.063C196.742 527.784 196.803 527.421 196.698 527.089L194.258 519.647C194.114 519.206 194.274 518.721 194.652 518.452L201.055 513.843C201.435 513.569 201.593 513.079 201.445 512.633C201.296 512.188 200.875 511.891 200.406 511.902Z" fill="#8E8E93"/>
<path d="M182.721 537.28H184.051V538.91H182.721V537.28ZM179.201 536.84H187.571V537.89H179.201V536.84ZM183.371 538.55C185.371 538.55 186.581 539.15 186.581 540.22C186.581 541.29 185.371 541.89 183.371 541.89C181.361 541.89 180.151 541.29 180.151 540.22C180.151 539.15 181.361 538.55 183.371 538.55ZM183.371 539.55C182.131 539.55 181.501 539.76 181.501 540.22C181.501 540.67 182.131 540.89 183.371 540.89C184.611 540.89 185.241 540.67 185.241 540.22C185.241 539.76 184.611 539.55 183.371 539.55ZM182.471 533.5H183.651V533.73C183.651 535.12 182.401 536.26 180.011 536.48L179.551 535.44C181.581 535.27 182.471 534.45 182.471 533.73V533.5ZM183.121 533.5H184.301V533.73C184.301 534.46 185.181 535.27 187.221 535.44L186.761 536.48C184.381 536.26 183.121 535.13 183.121 533.73V533.5ZM179.961 533.01H186.821V534.06H179.961V533.01ZM189.26 533.41H195.13V534.48H189.26V533.41ZM188.41 539.7H196.78V540.78H188.41V539.7ZM191.37 536.52H192.7V540.23H191.37V536.52ZM194.65 533.41H195.98V534.3C195.98 535.46 195.98 536.76 195.61 538.74L194.28 538.59C194.65 536.75 194.65 535.41 194.65 534.3V533.41Z" fill="#8E8E93"/>
<path fill-rule="evenodd" clip-rule="evenodd" d="M310.406 511.902H302.516C302.044 511.904 301.624 511.604 301.473 511.156L299.043 503.747C298.89 503.3 298.471 503 298 503C297.529 503 297.11 503.3 296.957 503.747L294.527 511.156C294.376 511.604 293.956 511.904 293.484 511.902H285.594C285.125 511.891 284.704 512.188 284.555 512.633C284.407 513.079 284.565 513.569 284.945 513.843L291.348 518.452C291.726 518.721 291.886 519.206 291.742 519.647L289.302 527.089C289.197 527.421 289.258 527.784 289.466 528.063C289.673 528.342 290.002 528.504 290.35 528.498C290.582 528.497 290.807 528.422 290.994 528.285L297.351 523.709C297.739 523.431 298.261 523.431 298.649 523.709L305.006 528.285C305.193 528.422 305.418 528.497 305.65 528.498C305.998 528.504 306.327 528.342 306.534 528.063C306.742 527.784 306.803 527.421 306.698 527.089L304.258 519.647C304.114 519.206 304.274 518.721 304.652 518.452L311.055 513.843C311.435 513.569 311.593 513.079 311.445 512.633C311.296 512.188 310.875 511.891 310.406 511.902Z" fill="#8E8E93"/>
<path d="M284.111 539.73H292.491V540.82H284.111V539.73ZM284.751 533.43H291.801V534.49H284.751V533.43ZM284.791 537.26H291.771V538.33H284.791V537.26ZM286.011 534.41H287.341V537.36H286.011V534.41ZM289.221 534.41H290.541V537.36H289.221V534.41ZM293.31 539.79H301.69V540.87H293.31V539.79ZM296.82 538.04H298.15V540.23H296.82V538.04ZM294.25 533.23H300.75V536.31H295.59V537.87H294.27V535.27H299.43V534.28H294.25V533.23ZM294.27 537.34H300.96V538.41H294.27V537.34ZM308.88 532.63H310.22V537.37H308.88V532.63ZM303.95 537.74H310.22V540.24H305.28V541.36H303.97V539.29H308.9V538.76H303.95V537.74ZM303.97 540.8H310.47V541.83H303.97V540.8ZM302.9 533.19H307.89V534.21H302.9V533.19ZM302.79 537.21L302.66 536.16C304.28 536.16 306.44 536.13 308.23 535.91L308.3 536.86C306.47 537.16 304.39 537.2 302.79 537.21ZM303.63 533.65H304.9V536.68H303.63V533.65ZM305.87 533.65H307.16V536.68H305.87V533.65Z" fill="#8E8E93"/>
</g>
<g clip-path="url(#clip2_527_1791)">
<rect x="121" y="566" width="134" height="5" rx="2.5" fill="black"/>
</g>
<path opacity="0.35" d="M338.667 17.833H355.333C356.53 17.833 357.5 18.8031 357.5 19.9997V25.9997C357.5 27.1963 356.53 28.1663 355.333 28.1663H338.667C337.47 28.1663 336.5 27.1963 336.5 25.9997V19.9997C336.5 18.8031 337.47 17.833 338.667 17.833Z" stroke="#222222"/>
<path opacity="0.4" d="M359 20.9995V24.9995C359.805 24.6607 360.328 23.8726 360.328 22.9995C360.328 22.1264 359.805 21.3383 359 20.9995" fill="#222222"/>
<path d="M338 20.6663C338 19.93 338.597 19.333 339.333 19.333H354.667C355.403 19.333 356 19.93 356 20.6663V25.333C356 26.0694 355.403 26.6663 354.667 26.6663H339.333C338.597 26.6663 338 26.0694 338 25.333V20.6663Z" fill="#222222"/>
<path fill-rule="evenodd" clip-rule="evenodd" d="M323.33 19.6079C325.546 19.608 327.677 20.4594 329.283 21.9862C329.404 22.1041 329.598 22.1026 329.717 21.9829L330.873 20.8162C330.933 20.7555 330.967 20.6733 330.966 20.5877C330.966 20.5021 330.931 20.4202 330.87 20.3602C326.655 16.3207 320.005 16.3207 315.79 20.3602C315.729 20.4202 315.694 20.502 315.694 20.5876C315.693 20.6732 315.727 20.7555 315.787 20.8162L316.943 21.9829C317.062 22.1028 317.256 22.1043 317.377 21.9862C318.983 20.4593 321.114 19.6079 323.33 19.6079ZM323.33 23.4036C324.548 23.4035 325.722 23.856 326.624 24.6732C326.746 24.7892 326.939 24.7867 327.058 24.6676L328.212 23.5009C328.273 23.4397 328.307 23.3567 328.306 23.2704C328.305 23.1842 328.27 23.1018 328.208 23.0419C325.459 20.4855 321.204 20.4855 318.455 23.0419C318.393 23.1018 318.358 23.1842 318.357 23.2705C318.356 23.3568 318.39 23.4398 318.451 23.5009L319.605 24.6676C319.724 24.7867 319.917 24.7892 320.039 24.6732C320.941 23.8566 322.114 23.4041 323.33 23.4036ZM325.643 25.9574C325.645 26.0439 325.611 26.1273 325.549 26.1879L323.552 28.2036C323.493 28.2628 323.414 28.2961 323.33 28.2961C323.247 28.2961 323.167 28.2628 323.109 28.2036L321.111 26.1879C321.049 26.1272 321.015 26.0438 321.017 25.9573C321.019 25.8708 321.056 25.7889 321.121 25.7309C322.396 24.652 324.264 24.652 325.54 25.7309C325.604 25.7889 325.642 25.8709 325.643 25.9574Z" fill="#222222"/>
<path fill-rule="evenodd" clip-rule="evenodd" d="M309.667 17.6665H308.667C308.114 17.6665 307.667 18.1142 307.667 18.6665V27.3332C307.667 27.8855 308.114 28.3332 308.667 28.3332H309.667C310.219 28.3332 310.667 27.8855 310.667 27.3332V18.6665C310.667 18.1142 310.219 17.6665 309.667 17.6665ZM304 19.9998H305C305.552 19.9998 306 20.4476 306 20.9998V27.3332C306 27.8855 305.552 28.3332 305 28.3332H304C303.448 28.3332 303 27.8855 303 27.3332V20.9998C303 20.4476 303.448 19.9998 304 19.9998ZM300.333 22.3332H299.333C298.781 22.3332 298.333 22.7809 298.333 23.3332V27.3332C298.333 27.8855 298.781 28.3332 299.333 28.3332H300.333C300.886 28.3332 301.333 27.8855 301.333 27.3332V23.3332C301.333 22.7809 300.886 22.3332 300.333 22.3332ZM295.667 24.3332H294.667C294.114 24.3332 293.667 24.7809 293.667 25.3332V27.3332C293.667 27.8855 294.114 28.3332 294.667 28.3332H295.667C296.219 28.3332 296.667 27.8855 296.667 27.3332V25.3332C296.667 24.7809 296.219 24.3332 295.667 24.3332Z" fill="#222222"/>
<g opacity="0.11">
<path d="M37.3207 28.2563C40.0087 28.2563 41.6053 26.1543 41.6053 22.5947C41.6053 21.2544 41.349 20.1265 40.8583 19.2549C40.1478 17.8999 38.9247 17.1675 37.3793 17.1675C35.0795 17.1675 33.4535 18.7129 33.4535 20.8809C33.4535 22.917 34.9183 24.3965 36.9325 24.3965C38.1703 24.3965 39.1737 23.8179 39.6718 22.8145H39.6937C39.6937 22.8145 39.723 22.8145 39.7303 22.8145C39.745 22.8145 39.7963 22.8145 39.7963 22.8145C39.7963 25.2314 38.8807 26.6743 37.3353 26.6743C36.4271 26.6743 35.724 26.1763 35.4823 25.3779H33.6C33.9149 27.1138 35.3871 28.2563 37.3207 28.2563ZM37.3866 22.895C36.1708 22.895 35.3065 22.0308 35.3065 20.8223C35.3065 19.6431 36.2147 18.7422 37.3939 18.7422C38.5731 18.7422 39.4813 19.6577 39.4813 20.8516C39.4813 22.0308 38.5951 22.895 37.3866 22.895Z" fill="black"/>
<path d="M44.6965 28.1538C45.3923 28.1538 45.8683 27.6558 45.8683 26.9966C45.8683 26.3301 45.3923 25.8394 44.6965 25.8394C44.008 25.8394 43.5246 26.3301 43.5246 26.9966C43.5246 27.6558 44.008 28.1538 44.6965 28.1538ZM44.6965 22.6606C45.3923 22.6606 45.8683 22.1699 45.8683 21.5107C45.8683 20.8442 45.3923 20.3535 44.6965 20.3535C44.008 20.3535 43.5246 20.8442 43.5246 21.5107C43.5246 22.1699 44.008 22.6606 44.6965 22.6606Z" fill="black"/>
<path d="M52.7241 28H54.5332V26.0298H55.9614V24.4331H54.5332V17.4312H51.8672C49.9995 20.2437 48.5127 22.5947 47.5605 24.3452V26.0298H52.7241V28ZM49.311 24.3672C50.5415 22.1992 51.6401 20.4634 52.6509 18.9692H52.7534V24.4771H49.311V24.3672Z" fill="black"/>
<path d="M59.99 28H61.8797V17.4312H59.9973L57.2361 19.3647V21.1812L59.8655 19.3354H59.99V28Z" fill="black"/>
</g>
<rect width="375" height="83" transform="translate(0 497)" fill="white"/>
<rect y="496.5" width="375" height="0.5" fill="black" fill-opacity="0.3"/>
<g clip-path="url(#clip3_527_1791)">
<g filter="url(#filter1_b_527_1791)">
<rect y="497" width="375" height="83" fill="white" fill-opacity="0.82"/>
</g>
<path d="M160.846 553.8L162.336 550.86H163.966L161.596 555.22V558H160.096V555.27L157.726 550.86H159.366L160.846 553.8ZM169.208 555.26C169.208 555.713 169.144 556.117 169.018 556.47C168.898 556.823 168.721 557.123 168.488 557.37C168.261 557.61 167.984 557.793 167.658 557.92C167.331 558.04 166.961 558.1 166.548 558.1C166.168 558.1 165.814 558.04 165.488 557.92C165.168 557.793 164.891 557.61 164.658 557.37C164.424 557.123 164.241 556.823 164.108 556.47C163.981 556.117 163.918 555.713 163.918 555.26C163.918 554.653 164.024 554.143 164.238 553.73C164.451 553.31 164.758 552.99 165.158 552.77C165.558 552.55 166.031 552.44 166.578 552.44C167.091 552.44 167.544 552.55 167.938 552.77C168.331 552.99 168.641 553.31 168.868 553.73C169.094 554.143 169.208 554.653 169.208 555.26ZM165.438 555.26C165.438 555.62 165.474 555.923 165.548 556.17C165.628 556.41 165.751 556.593 165.918 556.72C166.084 556.84 166.301 556.9 166.568 556.9C166.834 556.9 167.048 556.84 167.208 556.72C167.374 556.593 167.494 556.41 167.568 556.17C167.648 555.923 167.688 555.62 167.688 555.26C167.688 554.9 167.648 554.6 167.568 554.36C167.494 554.12 167.374 553.94 167.208 553.82C167.041 553.7 166.824 553.64 166.558 553.64C166.164 553.64 165.878 553.777 165.698 554.05C165.524 554.317 165.438 554.72 165.438 555.26ZM175.449 552.54V558H174.309L174.109 557.3H174.029C173.916 557.487 173.769 557.64 173.589 557.76C173.416 557.873 173.223 557.957 173.009 558.01C172.796 558.07 172.576 558.1 172.349 558.1C171.963 558.1 171.623 558.03 171.329 557.89C171.036 557.75 170.809 557.533 170.649 557.24C170.489 556.947 170.409 556.567 170.409 556.1V552.54H171.899V555.73C171.899 556.117 171.969 556.41 172.109 556.61C172.249 556.81 172.473 556.91 172.779 556.91C173.086 556.91 173.323 556.84 173.489 556.7C173.663 556.56 173.783 556.357 173.849 556.09C173.923 555.823 173.959 555.497 173.959 555.11V552.54H175.449ZM180.061 552.44C180.135 552.44 180.221 552.443 180.321 552.45C180.421 552.457 180.501 552.467 180.561 552.48L180.451 553.88C180.405 553.867 180.335 553.857 180.241 553.85C180.155 553.837 180.078 553.83 180.011 553.83C179.818 553.83 179.631 553.857 179.451 553.91C179.271 553.957 179.108 554.033 178.961 554.14C178.821 554.247 178.708 554.39 178.621 554.57C178.541 554.743 178.501 554.96 178.501 555.22V558H177.011V552.54H178.141L178.361 553.46H178.431C178.538 553.273 178.671 553.103 178.831 552.95C178.991 552.797 179.175 552.673 179.381 552.58C179.595 552.487 179.821 552.44 180.061 552.44ZM186.55 550.86C187.47 550.86 188.14 551.06 188.56 551.46C188.987 551.853 189.2 552.397 189.2 553.09C189.2 553.403 189.153 553.703 189.06 553.99C188.967 554.27 188.81 554.523 188.59 554.75C188.377 554.97 188.093 555.143 187.74 555.27C187.387 555.397 186.95 555.46 186.43 555.46H185.78V558H184.27V550.86H186.55ZM186.47 552.1H185.78V554.22H186.28C186.567 554.22 186.813 554.183 187.02 554.11C187.227 554.037 187.387 553.92 187.5 553.76C187.613 553.6 187.67 553.393 187.67 553.14C187.67 552.787 187.573 552.527 187.38 552.36C187.187 552.187 186.883 552.1 186.47 552.1ZM191.919 558H190.429V550.4H191.919V558ZM195.716 552.43C196.45 552.43 197.01 552.59 197.396 552.91C197.79 553.223 197.986 553.707 197.986 554.36V558H196.946L196.656 557.26H196.616C196.463 557.453 196.303 557.613 196.136 557.74C195.976 557.867 195.79 557.957 195.576 558.01C195.37 558.07 195.113 558.1 194.806 558.1C194.486 558.1 194.196 558.04 193.936 557.92C193.683 557.793 193.483 557.603 193.336 557.35C193.19 557.09 193.116 556.763 193.116 556.37C193.116 555.79 193.32 555.363 193.726 555.09C194.133 554.81 194.743 554.657 195.556 554.63L196.506 554.6V554.36C196.506 554.073 196.43 553.863 196.276 553.73C196.13 553.597 195.923 553.53 195.656 553.53C195.39 553.53 195.13 553.57 194.876 553.65C194.623 553.723 194.37 553.817 194.116 553.93L193.626 552.92C193.92 552.767 194.243 552.647 194.596 552.56C194.956 552.473 195.33 552.43 195.716 552.43ZM195.926 555.49C195.446 555.503 195.113 555.59 194.926 555.75C194.74 555.91 194.646 556.12 194.646 556.38C194.646 556.607 194.713 556.77 194.846 556.87C194.98 556.963 195.153 557.01 195.366 557.01C195.686 557.01 195.956 556.917 196.176 556.73C196.396 556.537 196.506 556.267 196.506 555.92V555.47L195.926 555.49ZM202.611 552.44C203.198 552.44 203.668 552.6 204.021 552.92C204.375 553.233 204.551 553.74 204.551 554.44V558H203.061V554.81C203.061 554.417 202.991 554.123 202.851 553.93C202.711 553.73 202.488 553.63 202.181 553.63C201.728 553.63 201.418 553.787 201.251 554.1C201.085 554.407 201.001 554.85 201.001 555.43V558H199.511V552.54H200.651L200.851 553.24H200.931C201.051 553.053 201.198 552.903 201.371 552.79C201.545 552.67 201.738 552.583 201.951 552.53C202.165 552.47 202.385 552.44 202.611 552.44ZM209.894 556.38C209.894 556.747 209.807 557.06 209.634 557.32C209.46 557.573 209.2 557.767 208.854 557.9C208.507 558.033 208.077 558.1 207.564 558.1C207.184 558.1 206.857 558.073 206.584 558.02C206.31 557.973 206.037 557.893 205.764 557.78V556.55C206.057 556.683 206.374 556.793 206.714 556.88C207.054 556.967 207.354 557.01 207.614 557.01C207.907 557.01 208.114 556.967 208.234 556.88C208.36 556.793 208.424 556.68 208.424 556.54C208.424 556.447 208.397 556.363 208.344 556.29C208.297 556.217 208.19 556.133 208.024 556.04C207.857 555.947 207.597 555.827 207.244 555.68C206.904 555.533 206.624 555.39 206.404 555.25C206.184 555.103 206.02 554.93 205.914 554.73C205.807 554.523 205.754 554.267 205.754 553.96C205.754 553.453 205.95 553.073 206.344 552.82C206.737 552.567 207.26 552.44 207.914 552.44C208.254 552.44 208.577 552.473 208.884 552.54C209.19 552.607 209.507 552.717 209.834 552.87L209.384 553.94C209.204 553.86 209.03 553.79 208.864 553.73C208.697 553.67 208.534 553.623 208.374 553.59C208.22 553.557 208.06 553.54 207.894 553.54C207.674 553.54 207.507 553.57 207.394 553.63C207.287 553.69 207.234 553.78 207.234 553.9C207.234 553.987 207.26 554.067 207.314 554.14C207.374 554.207 207.484 554.28 207.644 554.36C207.81 554.44 208.054 554.547 208.374 554.68C208.687 554.807 208.957 554.94 209.184 555.08C209.41 555.213 209.584 555.383 209.704 555.59C209.83 555.79 209.894 556.053 209.894 556.38Z" fill="#7277E2"/>
<path d="M174 529.25C174 525.714 174 523.947 175.098 522.848C176.197 521.75 177.964 521.75 181.5 521.75H186.5C190.036 521.75 191.803 521.75 192.902 522.848C194 523.947 194 525.714 194 529.25V537.785C194 541.139 194 542.816 192.945 543.329C191.889 543.842 190.571 542.805 187.933 540.733L187.089 540.07C185.606 538.905 184.865 538.322 184 538.322C183.135 538.322 182.394 538.905 180.911 540.07L180.067 540.733C177.429 542.805 176.111 543.842 175.055 543.329C174 542.816 174 541.139 174 537.785V529.25Z" fill="white" stroke="#7277E2" stroke-width="1.4"/>
<path d="M283.604 558L283.084 556.3H280.484L279.964 558H278.334L280.854 550.83H282.704L285.234 558H283.604ZM282.204 553.37C282.171 553.257 282.127 553.113 282.074 552.94C282.021 552.767 281.967 552.59 281.914 552.41C281.861 552.23 281.817 552.073 281.784 551.94C281.751 552.073 281.704 552.24 281.644 552.44C281.591 552.633 281.537 552.82 281.484 553C281.437 553.173 281.401 553.297 281.374 553.37L280.864 555.03H282.724L282.204 553.37ZM287.508 552.17C287.508 552.377 287.502 552.58 287.488 552.78C287.475 552.98 287.462 553.137 287.448 553.25H287.508C287.655 553.023 287.852 552.833 288.098 552.68C288.345 552.52 288.665 552.44 289.058 552.44C289.672 552.44 290.168 552.68 290.548 553.16C290.928 553.633 291.118 554.333 291.118 555.26C291.118 555.88 291.028 556.403 290.848 556.83C290.675 557.25 290.432 557.567 290.118 557.78C289.805 557.993 289.438 558.1 289.018 558.1C288.618 558.1 288.302 558.03 288.068 557.89C287.842 557.743 287.655 557.58 287.508 557.4H287.408L287.158 558H286.018V550.4H287.508V552.17ZM288.578 553.63C288.318 553.63 288.112 553.683 287.958 553.79C287.805 553.897 287.692 554.06 287.618 554.28C287.552 554.493 287.515 554.763 287.508 555.09V555.25C287.508 555.777 287.585 556.183 287.738 556.47C287.898 556.75 288.185 556.89 288.598 556.89C288.905 556.89 289.148 556.75 289.328 556.47C289.508 556.183 289.598 555.773 289.598 555.24C289.598 554.707 289.505 554.307 289.318 554.04C289.138 553.767 288.892 553.63 288.578 553.63ZM297.306 555.26C297.306 555.713 297.243 556.117 297.116 556.47C296.996 556.823 296.82 557.123 296.586 557.37C296.36 557.61 296.083 557.793 295.756 557.92C295.43 558.04 295.06 558.1 294.646 558.1C294.266 558.1 293.913 558.04 293.586 557.92C293.266 557.793 292.99 557.61 292.756 557.37C292.523 557.123 292.34 556.823 292.206 556.47C292.08 556.117 292.016 555.713 292.016 555.26C292.016 554.653 292.123 554.143 292.336 553.73C292.55 553.31 292.856 552.99 293.256 552.77C293.656 552.55 294.13 552.44 294.676 552.44C295.19 552.44 295.643 552.55 296.036 552.77C296.43 552.99 296.74 553.31 296.966 553.73C297.193 554.143 297.306 554.653 297.306 555.26ZM293.536 555.26C293.536 555.62 293.573 555.923 293.646 556.17C293.726 556.41 293.85 556.593 294.016 556.72C294.183 556.84 294.4 556.9 294.666 556.9C294.933 556.9 295.146 556.84 295.306 556.72C295.473 556.593 295.593 556.41 295.666 556.17C295.746 555.923 295.786 555.62 295.786 555.26C295.786 554.9 295.746 554.6 295.666 554.36C295.593 554.12 295.473 553.94 295.306 553.82C295.14 553.7 294.923 553.64 294.656 553.64C294.263 553.64 293.976 553.777 293.796 554.05C293.623 554.317 293.536 554.72 293.536 555.26ZM303.548 552.54V558H302.408L302.208 557.3H302.128C302.014 557.487 301.868 557.64 301.688 557.76C301.514 557.873 301.321 557.957 301.108 558.01C300.894 558.07 300.674 558.1 300.448 558.1C300.061 558.1 299.721 558.03 299.428 557.89C299.134 557.75 298.908 557.533 298.748 557.24C298.588 556.947 298.508 556.567 298.508 556.1V552.54H299.998V555.73C299.998 556.117 300.068 556.41 300.208 556.61C300.348 556.81 300.571 556.91 300.878 556.91C301.184 556.91 301.421 556.84 301.588 556.7C301.761 556.56 301.881 556.357 301.948 556.09C302.021 555.823 302.058 555.497 302.058 555.11V552.54H303.548ZM307.41 556.91C307.577 556.91 307.737 556.893 307.89 556.86C308.043 556.827 308.197 556.787 308.35 556.74V557.85C308.19 557.917 307.99 557.973 307.75 558.02C307.517 558.073 307.26 558.1 306.98 558.1C306.653 558.1 306.36 558.047 306.1 557.94C305.847 557.833 305.643 557.65 305.49 557.39C305.343 557.123 305.27 556.757 305.27 556.29V553.66H304.56V553.03L305.38 552.53L305.81 551.38H306.76V552.54H308.29V553.66H306.76V556.29C306.76 556.497 306.82 556.653 306.94 556.76C307.06 556.86 307.217 556.91 307.41 556.91Z" fill="#7277E2"/>
<path d="M293 521.427L295.43 528.906L295.598 529.424H296.143H304.007L297.645 534.046L297.204 534.366L297.373 534.884L299.802 542.363L293.441 537.741L293 537.42L292.559 537.741L286.198 542.363L288.627 534.884L288.796 534.366L288.355 534.046L281.993 529.424H289.857H290.402L290.57 528.906L293 521.427Z" fill="white" stroke="#7277E2" stroke-width="1.5"/>
<path d="M65.9648 558H64.4548V554.92H61.6248V558H60.1148V550.86H61.6248V553.66H64.4548V550.86H65.9648V558ZM72.6013 555.26C72.6013 555.713 72.538 556.117 72.4113 556.47C72.2913 556.823 72.1147 557.123 71.8813 557.37C71.6547 557.61 71.378 557.793 71.0513 557.92C70.7247 558.04 70.3547 558.1 69.9413 558.1C69.5613 558.1 69.208 558.04 68.8813 557.92C68.5613 557.793 68.2847 557.61 68.0513 557.37C67.818 557.123 67.6347 556.823 67.5013 556.47C67.3747 556.117 67.3113 555.713 67.3113 555.26C67.3113 554.653 67.418 554.143 67.6313 553.73C67.8447 553.31 68.1513 552.99 68.5513 552.77C68.9513 552.55 69.4247 552.44 69.9713 552.44C70.4847 552.44 70.938 552.55 71.3313 552.77C71.7247 552.99 72.0347 553.31 72.2613 553.73C72.488 554.143 72.6013 554.653 72.6013 555.26ZM68.8313 555.26C68.8313 555.62 68.868 555.923 68.9413 556.17C69.0213 556.41 69.1447 556.593 69.3113 556.72C69.478 556.84 69.6947 556.9 69.9613 556.9C70.228 556.9 70.4413 556.84 70.6013 556.72C70.768 556.593 70.888 556.41 70.9613 556.17C71.0413 555.923 71.0813 555.62 71.0813 555.26C71.0813 554.9 71.0413 554.6 70.9613 554.36C70.888 554.12 70.768 553.94 70.6013 553.82C70.4347 553.7 70.218 553.64 69.9513 553.64C69.558 553.64 69.2713 553.777 69.0913 554.05C68.918 554.317 68.8313 554.72 68.8313 555.26ZM80.2427 552.44C80.8627 552.44 81.3294 552.6 81.6427 552.92C81.9627 553.233 82.1227 553.74 82.1227 554.44V558H80.6327V554.81C80.6327 554.417 80.5661 554.123 80.4327 553.93C80.2994 553.73 80.0927 553.63 79.8127 553.63C79.4194 553.63 79.1394 553.77 78.9727 554.05C78.8061 554.33 78.7227 554.733 78.7227 555.26V558H77.2327V554.81C77.2327 554.55 77.2027 554.333 77.1427 554.16C77.0827 553.987 76.9927 553.857 76.8727 553.77C76.7527 553.677 76.5994 553.63 76.4127 553.63C76.1394 553.63 75.9227 553.7 75.7627 553.84C75.6027 553.98 75.4894 554.183 75.4227 554.45C75.3561 554.717 75.3227 555.043 75.3227 555.43V558H73.8327V552.54H74.9727L75.1727 553.24H75.2527C75.3661 553.053 75.5061 552.903 75.6727 552.79C75.8394 552.67 76.0227 552.583 76.2227 552.53C76.4294 552.47 76.6361 552.44 76.8427 552.44C77.2427 552.44 77.5827 552.507 77.8627 552.64C78.1427 552.767 78.3561 552.967 78.5027 553.24H78.6327C78.7994 552.96 79.0294 552.757 79.3227 552.63C79.6227 552.503 79.9294 552.44 80.2427 552.44ZM85.907 552.44C86.4136 552.44 86.847 552.537 87.207 552.73C87.5736 552.923 87.857 553.203 88.057 553.57C88.257 553.937 88.357 554.387 88.357 554.92V555.64H84.837C84.8503 556.06 84.9736 556.39 85.207 556.63C85.447 556.87 85.777 556.99 86.197 556.99C86.5503 556.99 86.8703 556.957 87.157 556.89C87.4436 556.817 87.7403 556.707 88.047 556.56V557.71C87.7803 557.843 87.497 557.94 87.197 558C86.9036 558.067 86.547 558.1 86.127 558.1C85.5803 558.1 85.097 558 84.677 557.8C84.257 557.593 83.927 557.283 83.687 556.87C83.447 556.457 83.327 555.937 83.327 555.31C83.327 554.67 83.4336 554.14 83.647 553.72C83.867 553.293 84.1703 552.973 84.557 552.76C84.9436 552.547 85.3936 552.44 85.907 552.44ZM85.917 553.5C85.6303 553.5 85.3903 553.593 85.197 553.78C85.0103 553.967 84.9003 554.257 84.867 554.65H86.957C86.957 554.43 86.917 554.233 86.837 554.06C86.7636 553.887 86.6503 553.75 86.497 553.65C86.3436 553.55 86.1503 553.5 85.917 553.5Z" fill="#333AD5" fill-opacity="0.69"/>
<path d="M68.05 524C64.7087 524 62 526.869 62 530.409C62 536.818 69.15 542.645 73 544C76.85 542.645 84 536.818 84 530.409C84 526.869 81.2913 524 77.95 524C75.9038 524 74.0949 525.076 73 526.723C71.9051 525.076 70.0962 524 68.05 524Z" fill="white" stroke="#7277E2" stroke-width="2" stroke-linecap="round" stroke-linejoin="round"/>
</g>
<path d="M218 221C218 237.569 204.569 251 188 251C171.431 251 158 237.569 158 221C158 204.431 171.431 191 188 191C204.569 191 218 204.431 218 221ZM161 221C161 235.912 173.088 248 188 248C202.912 248 215 235.912 215 221C215 206.088 202.912 194 188 194C173.088 194 161 206.088 161 221Z" fill="#E4E4E4"/>
<path d="M216.5 221C217.328 221 218.004 220.328 217.963 219.501C217.791 216.073 217.032 212.697 215.716 209.519C214.209 205.88 211.999 202.573 209.213 199.787C206.427 197.001 203.12 194.791 199.481 193.284C196.303 191.968 192.927 191.209 189.499 191.037C188.672 190.996 188 191.672 188 192.5V192.5C188 193.328 188.672 193.996 189.499 194.042C192.532 194.21 195.519 194.89 198.332 196.055C201.608 197.412 204.585 199.401 207.092 201.908C209.599 204.415 211.588 207.392 212.945 210.668C214.11 213.481 214.79 216.468 214.958 219.501C215.004 220.328 215.672 221 216.5 221V221Z" fill="#6979F8"/>
<path d="M36.9084 291V286.478L32.7774 279.763L34.1374 278.947L37.7754 284.982L41.3454 279.015L42.6204 279.763L38.5234 286.478V291H36.9084ZM46.7549 291.204C45.9162 291.204 45.1625 291.011 44.4939 290.626C43.8252 290.229 43.2982 289.685 42.9129 288.994C42.5389 288.291 42.3519 287.487 42.3519 286.58C42.3519 285.628 42.5445 284.806 42.9299 284.115C43.3152 283.424 43.8422 282.891 44.5109 282.517C45.1795 282.143 45.9275 281.956 46.7549 281.956C47.5822 281.956 48.3245 282.143 48.9819 282.517C49.6505 282.891 50.1775 283.424 50.5629 284.115C50.9595 284.795 51.1579 285.605 51.1579 286.546C51.1579 287.487 50.9652 288.308 50.5799 289.011C50.1945 289.702 49.6675 290.241 48.9989 290.626C48.3415 291.011 47.5935 291.204 46.7549 291.204ZM46.7549 289.844C47.6502 289.844 48.3472 289.544 48.8459 288.943C49.3445 288.331 49.5939 287.543 49.5939 286.58C49.5939 285.991 49.4692 285.452 49.2199 284.965C48.9705 284.466 48.6305 284.07 48.1999 283.775C47.7805 283.469 47.2989 283.316 46.7549 283.316C45.8595 283.316 45.1625 283.611 44.6639 284.2C44.1652 284.789 43.9159 285.571 43.9159 286.546C43.9159 287.135 44.0405 287.685 44.2899 288.195C44.5392 288.694 44.8735 289.096 45.2929 289.402C45.7235 289.697 46.2109 289.844 46.7549 289.844ZM56.082 291.204C55.572 291.204 55.0904 291.096 54.637 290.881C54.1837 290.666 53.8154 290.32 53.532 289.844C53.2487 289.357 53.107 288.711 53.107 287.906V282.16H54.637V287.702C54.637 288.393 54.7844 288.926 55.079 289.3C55.3737 289.663 55.8044 289.844 56.371 289.844C56.8357 289.844 57.2834 289.753 57.714 289.572C58.156 289.379 58.547 289.124 58.887 288.807V282.16H60.417V288.705C60.417 289.192 60.519 289.515 60.723 289.674C60.9384 289.821 61.1707 289.895 61.42 289.895L61.097 291.085C60.043 291.085 59.3914 290.666 59.142 289.827C58.7454 290.235 58.2864 290.569 57.765 290.83C57.2437 291.079 56.6827 291.204 56.082 291.204ZM63.4518 291V282.16H64.9308V284.081C65.0781 283.707 65.2765 283.361 65.5258 283.044C65.7751 282.715 66.0868 282.455 66.4608 282.262C66.8348 282.058 67.2711 281.956 67.7698 281.956C67.9398 281.956 68.1098 281.967 68.2798 281.99C68.4498 282.001 68.5915 282.024 68.7048 282.058L68.2458 283.639C68.0305 283.548 67.7755 283.503 67.4808 283.503C67.0615 283.503 66.6591 283.622 66.2738 283.86C65.8998 284.098 65.5881 284.466 65.3388 284.965C65.1008 285.464 64.9818 286.098 64.9818 286.869V291H63.4518ZM75.6615 294.74V284.421C75.6615 284.036 75.5652 283.764 75.3725 283.605C75.1912 283.435 74.9532 283.35 74.6585 283.35L74.9815 282.16C76.0242 282.16 76.6758 282.574 76.9365 283.401C77.0498 283.231 77.2312 283.033 77.4805 282.806C77.7412 282.579 78.0585 282.381 78.4325 282.211C78.8178 282.041 79.2542 281.956 79.7415 281.956C80.4215 281.956 81.0562 282.137 81.6455 282.5C82.2462 282.851 82.7278 283.367 83.0905 284.047C83.4532 284.716 83.6345 285.532 83.6345 286.495C83.6345 287.436 83.4532 288.263 83.0905 288.977C82.7278 289.68 82.2518 290.229 81.6625 290.626C81.0845 291.011 80.4555 291.204 79.7755 291.204C79.2542 291.204 78.7668 291.102 78.3135 290.898C77.8602 290.683 77.4862 290.439 77.1915 290.167V294.74H75.6615ZM79.4695 289.844C80.2402 289.844 80.8635 289.544 81.3395 288.943C81.8268 288.331 82.0705 287.532 82.0705 286.546C82.0705 285.866 81.9458 285.282 81.6965 284.795C81.4585 284.308 81.1355 283.934 80.7275 283.673C80.3308 283.412 79.8888 283.282 79.4015 283.282C78.9142 283.282 78.4722 283.407 78.0755 283.656C77.6902 283.894 77.3955 284.155 77.1915 284.438V288.79C77.4862 289.096 77.8262 289.351 78.2115 289.555C78.5968 289.748 79.0162 289.844 79.4695 289.844ZM89.3003 291.204C88.031 291.204 87.0223 290.802 86.2743 289.997C85.5376 289.181 85.1693 288.042 85.1693 286.58C85.1693 285.696 85.3336 284.908 85.6623 284.217C86.0023 283.514 86.4726 282.965 87.0733 282.568C87.674 282.16 88.371 281.956 89.1643 281.956C90.0143 281.956 90.717 282.143 91.2723 282.517C91.839 282.88 92.264 283.373 92.5473 283.996C92.8306 284.619 92.9723 285.305 92.9723 286.053C92.9723 286.45 92.9553 286.835 92.9213 287.209H86.7333C86.8353 288.036 87.1243 288.682 87.6003 289.147C88.0763 289.612 88.7053 289.844 89.4873 289.844C89.9973 289.844 90.4563 289.793 90.8643 289.691C91.2723 289.578 91.6633 289.436 92.0373 289.266L92.3943 290.575C91.9863 290.756 91.5273 290.904 91.0173 291.017C90.5073 291.142 89.935 291.204 89.3003 291.204ZM86.7163 285.968H91.5613C91.5613 285.107 91.346 284.444 90.9153 283.979C90.4846 283.514 89.8896 283.282 89.1303 283.282C88.473 283.282 87.929 283.514 87.4983 283.979C87.0676 284.432 86.807 285.095 86.7163 285.968ZM95.0114 291V282.16H96.4904V284.081C96.6377 283.707 96.836 283.361 97.0854 283.044C97.3347 282.715 97.6464 282.455 98.0204 282.262C98.3944 282.058 98.8307 281.956 99.3294 281.956C99.4994 281.956 99.6694 281.967 99.8394 281.99C100.009 282.001 100.151 282.024 100.264 282.058L99.8054 283.639C99.59 283.548 99.335 283.503 99.0404 283.503C98.621 283.503 98.2187 283.622 97.8334 283.86C97.4594 284.098 97.1477 284.466 96.8984 284.965C96.6604 285.464 96.5414 286.098 96.5414 286.869V291H95.0114ZM103.75 291.204C103.081 291.204 102.475 291.119 101.931 290.949C101.398 290.779 100.956 290.558 100.605 290.286L101.251 289.011C101.545 289.26 101.914 289.47 102.356 289.64C102.809 289.799 103.291 289.878 103.801 289.878C104.435 289.878 104.911 289.776 105.229 289.572C105.557 289.357 105.722 289.085 105.722 288.756C105.722 288.518 105.659 288.308 105.535 288.127C105.421 287.946 105.206 287.77 104.889 287.6C104.571 287.419 104.112 287.226 103.512 287.022C102.684 286.739 102.061 286.404 101.642 286.019C101.234 285.622 101.03 285.078 101.03 284.387C101.03 283.707 101.324 283.135 101.914 282.67C102.514 282.194 103.342 281.956 104.396 281.956C104.962 281.956 105.467 282.018 105.909 282.143C106.351 282.256 106.747 282.404 107.099 282.585L106.674 283.843C106.368 283.662 106.016 283.514 105.62 283.401C105.234 283.288 104.804 283.231 104.328 283.231C103.738 283.231 103.291 283.35 102.985 283.588C102.679 283.826 102.526 284.087 102.526 284.37C102.526 284.642 102.645 284.874 102.883 285.067C103.121 285.26 103.585 285.469 104.277 285.696C105.399 286.07 106.181 286.484 106.623 286.937C107.065 287.39 107.286 287.957 107.286 288.637C107.286 289.43 106.963 290.059 106.317 290.524C105.682 290.977 104.826 291.204 103.75 291.204ZM113.045 291.204C112.206 291.204 111.453 291.011 110.784 290.626C110.115 290.229 109.588 289.685 109.203 288.994C108.829 288.291 108.642 287.487 108.642 286.58C108.642 285.628 108.835 284.806 109.22 284.115C109.605 283.424 110.132 282.891 110.801 282.517C111.47 282.143 112.218 281.956 113.045 281.956C113.872 281.956 114.615 282.143 115.272 282.517C115.941 282.891 116.468 283.424 116.853 284.115C117.25 284.795 117.448 285.605 117.448 286.546C117.448 287.487 117.255 288.308 116.87 289.011C116.485 289.702 115.958 290.241 115.289 290.626C114.632 291.011 113.884 291.204 113.045 291.204ZM113.045 289.844C113.94 289.844 114.637 289.544 115.136 288.943C115.635 288.331 115.884 287.543 115.884 286.58C115.884 285.991 115.759 285.452 115.51 284.965C115.261 284.466 114.921 284.07 114.49 283.775C114.071 283.469 113.589 283.316 113.045 283.316C112.15 283.316 111.453 283.611 110.954 284.2C110.455 284.789 110.206 285.571 110.206 286.546C110.206 287.135 110.331 287.685 110.58 288.195C110.829 288.694 111.164 289.096 111.583 289.402C112.014 289.697 112.501 289.844 113.045 289.844ZM119.482 291V282.16H120.961V283.639C121.278 283.163 121.681 282.766 122.168 282.449C122.667 282.12 123.256 281.956 123.936 281.956C124.933 281.956 125.676 282.256 126.163 282.857C126.662 283.458 126.911 284.251 126.911 285.237V291H125.381V285.407C125.381 284.772 125.228 284.262 124.922 283.877C124.627 283.492 124.214 283.299 123.681 283.299C123.16 283.299 122.667 283.486 122.202 283.86C121.737 284.223 121.341 284.653 121.012 285.152V291H119.482ZM132.926 291.204C132.189 291.204 131.52 291.017 130.92 290.643C130.319 290.269 129.837 289.742 129.475 289.062C129.123 288.371 128.948 287.56 128.948 286.631C128.948 285.747 129.123 284.954 129.475 284.251C129.837 283.548 130.33 282.993 130.954 282.585C131.588 282.166 132.314 281.956 133.13 281.956C133.64 281.956 134.099 282.047 134.507 282.228C134.926 282.398 135.289 282.613 135.595 282.874V282.16H136.989V288.858C136.989 289.289 137.091 289.572 137.295 289.708C137.51 289.833 137.742 289.895 137.992 289.895L137.669 291.085C136.581 291.085 135.923 290.643 135.697 289.759C135.436 290.122 135.079 290.456 134.626 290.762C134.184 291.057 133.617 291.204 132.926 291.204ZM133.266 289.844C133.696 289.844 134.104 289.742 134.49 289.538C134.875 289.323 135.198 289.056 135.459 288.739V283.996C135.153 283.781 134.813 283.611 134.439 283.486C134.076 283.35 133.691 283.282 133.283 283.282C132.739 283.282 132.257 283.424 131.838 283.707C131.43 283.979 131.107 284.364 130.869 284.863C130.631 285.35 130.512 285.923 130.512 286.58C130.512 287.215 130.631 287.781 130.869 288.28C131.107 288.767 131.435 289.153 131.855 289.436C132.274 289.708 132.744 289.844 133.266 289.844ZM142.721 291.204C142.199 291.204 141.729 291.108 141.31 290.915C140.89 290.711 140.556 290.388 140.307 289.946C140.069 289.504 139.95 288.932 139.95 288.229V278.42H141.48V288.076C141.48 288.688 141.604 289.141 141.854 289.436C142.114 289.731 142.471 289.878 142.925 289.878C143.14 289.878 143.35 289.855 143.554 289.81C143.769 289.753 143.95 289.691 144.098 289.623L144.472 290.864C144.268 290.955 144.013 291.034 143.707 291.102C143.412 291.17 143.083 291.204 142.721 291.204ZM145.912 291V282.16H147.442V291H145.912ZM146.677 280.647C146.382 280.647 146.127 280.539 145.912 280.324C145.708 280.109 145.606 279.859 145.606 279.576C145.606 279.247 145.702 278.987 145.895 278.794C146.087 278.601 146.348 278.505 146.677 278.505C146.971 278.505 147.221 278.613 147.425 278.828C147.64 279.032 147.748 279.281 147.748 279.576C147.748 279.893 147.651 280.154 147.459 280.358C147.266 280.551 147.005 280.647 146.677 280.647ZM149.397 291V289.793L154.276 283.486H149.499V282.16H156.146V283.333L151.284 289.64H156.231V291H149.397ZM161.55 291.204C160.281 291.204 159.272 290.802 158.524 289.997C157.788 289.181 157.419 288.042 157.419 286.58C157.419 285.696 157.584 284.908 157.912 284.217C158.252 283.514 158.723 282.965 159.323 282.568C159.924 282.16 160.621 281.956 161.414 281.956C162.264 281.956 162.967 282.143 163.522 282.517C164.089 282.88 164.514 283.373 164.797 283.996C165.081 284.619 165.222 285.305 165.222 286.053C165.222 286.45 165.205 286.835 165.171 287.209H158.983C159.085 288.036 159.374 288.682 159.85 289.147C160.326 289.612 160.955 289.844 161.737 289.844C162.247 289.844 162.706 289.793 163.114 289.691C163.522 289.578 163.913 289.436 164.287 289.266L164.644 290.575C164.236 290.756 163.777 290.904 163.267 291.017C162.757 291.142 162.185 291.204 161.55 291.204ZM158.966 285.968H163.811C163.811 285.107 163.596 284.444 163.165 283.979C162.735 283.514 162.14 283.282 161.38 283.282C160.723 283.282 160.179 283.514 159.748 283.979C159.318 284.432 159.057 285.095 158.966 285.968ZM170.61 291.204C169.885 291.204 169.222 291.017 168.621 290.643C168.021 290.269 167.545 289.742 167.193 289.062C166.842 288.371 166.666 287.56 166.666 286.631C166.666 285.736 166.842 284.937 167.193 284.234C167.556 283.531 168.032 282.976 168.621 282.568C169.222 282.16 169.879 281.956 170.593 281.956C171.183 281.956 171.687 282.075 172.106 282.313C172.537 282.551 172.871 282.795 173.109 283.044V278.42H174.639V288.858C174.639 289.289 174.741 289.572 174.945 289.708C175.161 289.833 175.393 289.895 175.642 289.895L175.319 291.085C174.243 291.085 173.585 290.654 173.347 289.793C173.098 290.144 172.747 290.467 172.293 290.762C171.851 291.057 171.29 291.204 170.61 291.204ZM170.95 289.844C171.37 289.844 171.766 289.748 172.14 289.555C172.526 289.351 172.849 289.09 173.109 288.773V284.387C172.894 284.115 172.594 283.866 172.208 283.639C171.823 283.401 171.398 283.282 170.933 283.282C170.389 283.282 169.913 283.429 169.505 283.724C169.097 284.019 168.78 284.415 168.553 284.914C168.338 285.401 168.23 285.957 168.23 286.58C168.23 287.203 168.349 287.764 168.587 288.263C168.825 288.75 169.148 289.136 169.556 289.419C169.976 289.702 170.44 289.844 170.95 289.844ZM182.784 291V278.42H184.314V283.571C184.631 283.106 185.033 282.721 185.521 282.415C186.008 282.109 186.58 281.956 187.238 281.956C188.235 281.956 188.977 282.256 189.465 282.857C189.963 283.458 190.213 284.251 190.213 285.237V291H188.683V285.407C188.683 284.772 188.535 284.262 188.241 283.877C187.946 283.492 187.532 283.299 187 283.299C186.478 283.299 185.98 283.486 185.504 283.86C185.039 284.223 184.642 284.653 184.314 285.152V291H182.784ZM196.227 291.204C195.491 291.204 194.822 291.017 194.221 290.643C193.621 290.269 193.139 289.742 192.776 289.062C192.425 288.371 192.249 287.56 192.249 286.631C192.249 285.747 192.425 284.954 192.776 284.251C193.139 283.548 193.632 282.993 194.255 282.585C194.89 282.166 195.615 281.956 196.431 281.956C196.941 281.956 197.4 282.047 197.808 282.228C198.228 282.398 198.59 282.613 198.896 282.874V282.16H200.29V288.858C200.29 289.289 200.392 289.572 200.596 289.708C200.812 289.833 201.044 289.895 201.293 289.895L200.97 291.085C199.882 291.085 199.225 290.643 198.998 289.759C198.738 290.122 198.381 290.456 197.927 290.762C197.485 291.057 196.919 291.204 196.227 291.204ZM196.567 289.844C196.998 289.844 197.406 289.742 197.791 289.538C198.177 289.323 198.5 289.056 198.76 288.739V283.996C198.454 283.781 198.114 283.611 197.74 283.486C197.378 283.35 196.992 283.282 196.584 283.282C196.04 283.282 195.559 283.424 195.139 283.707C194.731 283.979 194.408 284.364 194.17 284.863C193.932 285.35 193.813 285.923 193.813 286.58C193.813 287.215 193.932 287.781 194.17 288.28C194.408 288.767 194.737 289.153 195.156 289.436C195.576 289.708 196.046 289.844 196.567 289.844ZM203.337 291V282.16H204.816V283.639C205.133 283.163 205.535 282.766 206.023 282.449C206.521 282.12 207.111 281.956 207.791 281.956C208.788 281.956 209.53 282.256 210.018 282.857C210.516 283.458 210.766 284.251 210.766 285.237V291H209.236V285.407C209.236 284.772 209.083 284.262 208.777 283.877C208.482 283.492 208.068 283.299 207.536 283.299C207.014 283.299 206.521 283.486 206.057 283.86C205.592 284.223 205.195 284.653 204.867 285.152V291H203.337ZM216.644 294.944C216.123 294.944 215.613 294.882 215.114 294.757C214.627 294.632 214.19 294.445 213.805 294.196L214.366 292.87C214.638 293.085 214.955 293.261 215.318 293.397C215.681 293.544 216.123 293.618 216.644 293.618C217.449 293.618 218.078 293.403 218.531 292.972C218.996 292.553 219.228 291.878 219.228 290.949V289.861C219.001 290.133 218.673 290.394 218.242 290.643C217.823 290.881 217.318 291 216.729 291C216.06 291 215.426 290.83 214.825 290.49C214.224 290.139 213.737 289.629 213.363 288.96C212.989 288.291 212.802 287.487 212.802 286.546C212.802 285.662 212.983 284.874 213.346 284.183C213.72 283.492 214.219 282.948 214.842 282.551C215.465 282.154 216.151 281.956 216.899 281.956C217.398 281.956 217.851 282.041 218.259 282.211C218.667 282.381 219.018 282.591 219.313 282.84V282.16H220.707V290.796C220.707 291.771 220.537 292.564 220.197 293.176C219.857 293.788 219.381 294.236 218.769 294.519C218.168 294.802 217.46 294.944 216.644 294.944ZM217.069 289.64C217.522 289.64 217.93 289.538 218.293 289.334C218.656 289.13 218.95 288.892 219.177 288.62V283.996C218.928 283.815 218.627 283.65 218.276 283.503C217.925 283.356 217.517 283.282 217.052 283.282C216.587 283.282 216.151 283.407 215.743 283.656C215.335 283.905 215.001 284.268 214.74 284.744C214.491 285.209 214.366 285.781 214.366 286.461C214.366 287.107 214.491 287.668 214.74 288.144C215.001 288.62 215.335 288.988 215.743 289.249C216.151 289.51 216.593 289.64 217.069 289.64ZM227.064 291.204C226.226 291.204 225.472 291.011 224.803 290.626C224.135 290.229 223.608 289.685 223.222 288.994C222.848 288.291 222.661 287.487 222.661 286.58C222.661 285.628 222.854 284.806 223.239 284.115C223.625 283.424 224.152 282.891 224.82 282.517C225.489 282.143 226.237 281.956 227.064 281.956C227.892 281.956 228.634 282.143 229.291 282.517C229.96 282.891 230.487 283.424 230.872 284.115C231.269 284.795 231.467 285.605 231.467 286.546C231.467 287.487 231.275 288.308 230.889 289.011C230.504 289.702 229.977 290.241 229.308 290.626C228.651 291.011 227.903 291.204 227.064 291.204ZM227.064 289.844C227.96 289.844 228.657 289.544 229.155 288.943C229.654 288.331 229.903 287.543 229.903 286.58C229.903 285.991 229.779 285.452 229.529 284.965C229.28 284.466 228.94 284.07 228.509 283.775C228.09 283.469 227.608 283.316 227.064 283.316C226.169 283.316 225.472 283.611 224.973 284.2C224.475 284.789 224.225 285.571 224.225 286.546C224.225 287.135 224.35 287.685 224.599 288.195C224.849 288.694 225.183 289.096 225.602 289.402C226.033 289.697 226.52 289.844 227.064 289.844ZM236.392 291.204C235.882 291.204 235.4 291.096 234.947 290.881C234.493 290.666 234.125 290.32 233.842 289.844C233.558 289.357 233.417 288.711 233.417 287.906V282.16H234.947V287.702C234.947 288.393 235.094 288.926 235.389 289.3C235.683 289.663 236.114 289.844 236.681 289.844C237.145 289.844 237.593 289.753 238.024 289.572C238.466 289.379 238.857 289.124 239.197 288.807V282.16H240.727V288.705C240.727 289.192 240.829 289.515 241.033 289.674C241.248 289.821 241.48 289.895 241.73 289.895L241.407 291.085C240.353 291.085 239.701 290.666 239.452 289.827C239.055 290.235 238.596 290.569 238.075 290.83C237.553 291.079 236.992 291.204 236.392 291.204ZM246.855 291.204C246.005 291.204 245.331 290.926 244.832 290.371C244.345 289.804 244.101 289 244.101 287.957V283.809H242.571V282.483H244.135L244.458 279.695H245.631V282.483H248.079V283.809H245.631V288.076C245.631 288.733 245.767 289.192 246.039 289.453C246.323 289.714 246.657 289.844 247.042 289.844C247.326 289.844 247.592 289.799 247.841 289.708C248.102 289.617 248.34 289.51 248.555 289.385L248.98 290.609C248.754 290.745 248.448 290.875 248.062 291C247.677 291.136 247.275 291.204 246.855 291.204ZM257.995 291.204C257.326 291.204 256.72 291.119 256.176 290.949C255.643 290.779 255.201 290.558 254.85 290.286L255.496 289.011C255.791 289.26 256.159 289.47 256.601 289.64C257.054 289.799 257.536 289.878 258.046 289.878C258.681 289.878 259.157 289.776 259.474 289.572C259.803 289.357 259.967 289.085 259.967 288.756C259.967 288.518 259.905 288.308 259.78 288.127C259.667 287.946 259.451 287.77 259.134 287.6C258.817 287.419 258.358 287.226 257.757 287.022C256.93 286.739 256.306 286.404 255.887 286.019C255.479 285.622 255.275 285.078 255.275 284.387C255.275 283.707 255.57 283.135 256.159 282.67C256.76 282.194 257.587 281.956 258.641 281.956C259.208 281.956 259.712 282.018 260.154 282.143C260.596 282.256 260.993 282.404 261.344 282.585L260.919 283.843C260.613 283.662 260.262 283.514 259.865 283.401C259.48 283.288 259.049 283.231 258.573 283.231C257.984 283.231 257.536 283.35 257.23 283.588C256.924 283.826 256.771 284.087 256.771 284.37C256.771 284.642 256.89 284.874 257.128 285.067C257.366 285.26 257.831 285.469 258.522 285.696C259.644 286.07 260.426 286.484 260.868 286.937C261.31 287.39 261.531 287.957 261.531 288.637C261.531 289.43 261.208 290.059 260.562 290.524C259.927 290.977 259.072 291.204 257.995 291.204ZM267.137 291.204C266.298 291.204 265.562 291.011 264.927 290.626C264.304 290.229 263.822 289.685 263.482 288.994C263.142 288.291 262.972 287.487 262.972 286.58C262.972 285.73 263.142 284.954 263.482 284.251C263.833 283.548 264.332 282.993 264.978 282.585C265.624 282.166 266.383 281.956 267.256 281.956C267.755 281.956 268.191 282.001 268.565 282.092C268.95 282.183 269.319 282.313 269.67 282.483L269.211 283.775C268.894 283.616 268.588 283.503 268.293 283.435C268.01 283.356 267.692 283.316 267.341 283.316C266.548 283.316 265.879 283.605 265.335 284.183C264.802 284.75 264.536 285.537 264.536 286.546C264.536 287.158 264.649 287.713 264.876 288.212C265.103 288.711 265.414 289.107 265.811 289.402C266.219 289.697 266.695 289.844 267.239 289.844C267.67 289.844 268.038 289.799 268.344 289.708C268.65 289.606 268.979 289.464 269.33 289.283L269.806 290.575C269.455 290.768 269.058 290.921 268.616 291.034C268.185 291.147 267.692 291.204 267.137 291.204ZM271.586 291V278.42H273.116V283.571C273.433 283.106 273.835 282.721 274.323 282.415C274.81 282.109 275.382 281.956 276.04 281.956C277.037 281.956 277.779 282.256 278.267 282.857C278.765 283.458 279.015 284.251 279.015 285.237V291H277.485V285.407C277.485 284.772 277.337 284.262 277.043 283.877C276.748 283.492 276.334 283.299 275.802 283.299C275.28 283.299 274.782 283.486 274.306 283.86C273.841 284.223 273.444 284.653 273.116 285.152V291H271.586ZM285.182 291.204C283.913 291.204 282.904 290.802 282.156 289.997C281.419 289.181 281.051 288.042 281.051 286.58C281.051 285.696 281.215 284.908 281.544 284.217C281.884 283.514 282.354 282.965 282.955 282.568C283.556 282.16 284.253 281.956 285.046 281.956C285.896 281.956 286.599 282.143 287.154 282.517C287.721 282.88 288.146 283.373 288.429 283.996C288.712 284.619 288.854 285.305 288.854 286.053C288.854 286.45 288.837 286.835 288.803 287.209H282.615C282.717 288.036 283.006 288.682 283.482 289.147C283.958 289.612 284.587 289.844 285.369 289.844C285.879 289.844 286.338 289.793 286.746 289.691C287.154 289.578 287.545 289.436 287.919 289.266L288.276 290.575C287.868 290.756 287.409 290.904 286.899 291.017C286.389 291.142 285.817 291.204 285.182 291.204ZM282.598 285.968H287.443C287.443 285.107 287.228 284.444 286.797 283.979C286.366 283.514 285.771 283.282 285.012 283.282C284.355 283.282 283.811 283.514 283.38 283.979C282.949 284.432 282.689 285.095 282.598 285.968ZM294.242 291.204C293.517 291.204 292.854 291.017 292.253 290.643C291.653 290.269 291.177 289.742 290.825 289.062C290.474 288.371 290.298 287.56 290.298 286.631C290.298 285.736 290.474 284.937 290.825 284.234C291.188 283.531 291.664 282.976 292.253 282.568C292.854 282.16 293.511 281.956 294.225 281.956C294.815 281.956 295.319 282.075 295.738 282.313C296.169 282.551 296.503 282.795 296.741 283.044V278.42H298.271V288.858C298.271 289.289 298.373 289.572 298.577 289.708C298.793 289.833 299.025 289.895 299.274 289.895L298.951 291.085C297.875 291.085 297.217 290.654 296.979 289.793C296.73 290.144 296.379 290.467 295.925 290.762C295.483 291.057 294.922 291.204 294.242 291.204ZM294.582 289.844C295.002 289.844 295.398 289.748 295.772 289.555C296.158 289.351 296.481 289.09 296.741 288.773V284.387C296.526 284.115 296.226 283.866 295.84 283.639C295.455 283.401 295.03 283.282 294.565 283.282C294.021 283.282 293.545 283.429 293.137 283.724C292.729 284.019 292.412 284.415 292.185 284.914C291.97 285.401 291.862 285.957 291.862 286.58C291.862 287.203 291.981 287.764 292.219 288.263C292.457 288.75 292.78 289.136 293.188 289.419C293.608 289.702 294.072 289.844 294.582 289.844ZM304.209 291.204C303.699 291.204 303.217 291.096 302.764 290.881C302.311 290.666 301.942 290.32 301.659 289.844C301.376 289.357 301.234 288.711 301.234 287.906V282.16H302.764V287.702C302.764 288.393 302.911 288.926 303.206 289.3C303.501 289.663 303.931 289.844 304.498 289.844C304.963 289.844 305.41 289.753 305.841 289.572C306.283 289.379 306.674 289.124 307.014 288.807V282.16H308.544V288.705C308.544 289.192 308.646 289.515 308.85 289.674C309.065 289.821 309.298 289.895 309.547 289.895L309.224 291.085C308.17 291.085 307.518 290.666 307.269 289.827C306.872 290.235 306.413 290.569 305.892 290.83C305.371 291.079 304.81 291.204 304.209 291.204ZM314.265 291.204C313.743 291.204 313.273 291.108 312.854 290.915C312.434 290.711 312.1 290.388 311.851 289.946C311.613 289.504 311.494 288.932 311.494 288.229V278.42H313.024V288.076C313.024 288.688 313.148 289.141 313.398 289.436C313.658 289.731 314.015 289.878 314.469 289.878C314.684 289.878 314.894 289.855 315.098 289.81C315.313 289.753 315.494 289.691 315.642 289.623L316.016 290.864C315.812 290.955 315.557 291.034 315.251 291.102C314.956 291.17 314.627 291.204 314.265 291.204ZM320.743 291.204C319.473 291.204 318.465 290.802 317.717 289.997C316.98 289.181 316.612 288.042 316.612 286.58C316.612 285.696 316.776 284.908 317.105 284.217C317.445 283.514 317.915 282.965 318.516 282.568C319.116 282.16 319.813 281.956 320.607 281.956C321.457 281.956 322.159 282.143 322.715 282.517C323.281 282.88 323.706 283.373 323.99 283.996C324.273 284.619 324.415 285.305 324.415 286.053C324.415 286.45 324.398 286.835 324.364 287.209H318.176C318.278 288.036 318.567 288.682 319.043 289.147C319.519 289.612 320.148 289.844 320.93 289.844C321.44 289.844 321.899 289.793 322.307 289.691C322.715 289.578 323.106 289.436 323.48 289.266L323.837 290.575C323.429 290.756 322.97 290.904 322.46 291.017C321.95 291.142 321.377 291.204 320.743 291.204ZM318.159 285.968H323.004C323.004 285.107 322.788 284.444 322.358 283.979C321.927 283.514 321.332 283.282 320.573 283.282C319.915 283.282 319.371 283.514 318.941 283.979C318.51 284.432 318.249 285.095 318.159 285.968ZM331.55 291V282.16H333.08V291H331.55ZM332.315 280.647C332.021 280.647 331.766 280.539 331.55 280.324C331.346 280.109 331.244 279.859 331.244 279.576C331.244 279.247 331.341 278.987 331.533 278.794C331.726 278.601 331.987 278.505 332.315 278.505C332.61 278.505 332.859 278.613 333.063 278.828C333.279 279.032 333.386 279.281 333.386 279.576C333.386 279.893 333.29 280.154 333.097 280.358C332.905 280.551 332.644 280.647 332.315 280.647ZM338.18 291.204C337.512 291.204 336.905 291.119 336.361 290.949C335.829 290.779 335.387 290.558 335.035 290.286L335.681 289.011C335.976 289.26 336.344 289.47 336.786 289.64C337.24 289.799 337.721 289.878 338.231 289.878C338.866 289.878 339.342 289.776 339.659 289.572C339.988 289.357 340.152 289.085 340.152 288.756C340.152 288.518 340.09 288.308 339.965 288.127C339.852 287.946 339.637 287.77 339.319 287.6C339.002 287.419 338.543 287.226 337.942 287.022C337.115 286.739 336.492 286.404 336.072 286.019C335.664 285.622 335.46 285.078 335.46 284.387C335.46 283.707 335.755 283.135 336.344 282.67C336.945 282.194 337.772 281.956 338.826 281.956C339.393 281.956 339.897 282.018 340.339 282.143C340.781 282.256 341.178 282.404 341.529 282.585L341.104 283.843C340.798 283.662 340.447 283.514 340.05 283.401C339.665 283.288 339.234 283.231 338.758 283.231C338.169 283.231 337.721 283.35 337.415 283.588C337.109 283.826 336.956 284.087 336.956 284.37C336.956 284.642 337.075 284.874 337.313 285.067C337.551 285.26 338.016 285.469 338.707 285.696C339.829 286.07 340.611 286.484 341.053 286.937C341.495 287.39 341.716 287.957 341.716 288.637C341.716 289.43 341.393 290.059 340.747 290.524C340.113 290.977 339.257 291.204 338.18 291.204ZM153.301 313.204C152.791 313.204 152.31 313.113 151.856 312.932C151.414 312.739 151.046 312.518 150.751 312.269V313H149.323V300.42H150.853V305.078C151.08 304.817 151.409 304.568 151.839 304.33C152.281 304.081 152.803 303.956 153.403 303.956C154.083 303.956 154.718 304.137 155.307 304.5C155.908 304.851 156.39 305.367 156.752 306.047C157.115 306.716 157.296 307.532 157.296 308.495C157.296 309.198 157.183 309.838 156.956 310.416C156.73 310.994 156.424 311.493 156.038 311.912C155.664 312.32 155.239 312.637 154.763 312.864C154.287 313.091 153.8 313.204 153.301 313.204ZM152.893 311.844C153.449 311.844 153.936 311.708 154.355 311.436C154.786 311.164 155.12 310.779 155.358 310.28C155.608 309.781 155.732 309.203 155.732 308.546C155.732 307.866 155.608 307.282 155.358 306.795C155.12 306.308 154.797 305.934 154.389 305.673C153.993 305.412 153.551 305.282 153.063 305.282C152.576 305.282 152.134 305.407 151.737 305.656C151.352 305.894 151.057 306.155 150.853 306.438V311.164C151.114 311.368 151.42 311.532 151.771 311.657C152.123 311.782 152.497 311.844 152.893 311.844ZM159.417 313V304.16H160.896V306.081C161.043 305.707 161.242 305.361 161.491 305.044C161.74 304.715 162.052 304.455 162.426 304.262C162.8 304.058 163.236 303.956 163.735 303.956C163.905 303.956 164.075 303.967 164.245 303.99C164.415 304.001 164.557 304.024 164.67 304.058L164.211 305.639C163.996 305.548 163.741 305.503 163.446 305.503C163.027 305.503 162.624 305.622 162.239 305.86C161.865 306.098 161.553 306.466 161.304 306.965C161.066 307.464 160.947 308.098 160.947 308.869V313H159.417ZM169.229 313.204C167.959 313.204 166.951 312.802 166.203 311.997C165.466 311.181 165.098 310.042 165.098 308.58C165.098 307.696 165.262 306.908 165.591 306.217C165.931 305.514 166.401 304.965 167.002 304.568C167.602 304.16 168.299 303.956 169.093 303.956C169.943 303.956 170.645 304.143 171.201 304.517C171.767 304.88 172.192 305.373 172.476 305.996C172.759 306.619 172.901 307.305 172.901 308.053C172.901 308.45 172.884 308.835 172.85 309.209H166.662C166.764 310.036 167.053 310.682 167.529 311.147C168.005 311.612 168.634 311.844 169.416 311.844C169.926 311.844 170.385 311.793 170.793 311.691C171.201 311.578 171.592 311.436 171.966 311.266L172.323 312.575C171.915 312.756 171.456 312.904 170.946 313.017C170.436 313.142 169.863 313.204 169.229 313.204ZM166.645 307.968H171.49C171.49 307.107 171.274 306.444 170.844 305.979C170.413 305.514 169.818 305.282 169.059 305.282C168.401 305.282 167.857 305.514 167.427 305.979C166.996 306.432 166.735 307.095 166.645 307.968ZM176.793 313L174.005 304.568L175.416 304.075L177.694 311.266L179.768 304.789H181.417L183.44 311.266L185.701 304.075L187.061 304.568L184.256 313H182.573L180.533 306.421L178.476 313H176.793ZM188.852 313V304.16H190.382V313H188.852ZM189.617 302.647C189.322 302.647 189.067 302.539 188.852 302.324C188.648 302.109 188.546 301.859 188.546 301.576C188.546 301.247 188.642 300.987 188.835 300.794C189.027 300.601 189.288 300.505 189.617 300.505C189.911 300.505 190.161 300.613 190.365 300.828C190.58 301.032 190.688 301.281 190.688 301.576C190.688 301.893 190.591 302.154 190.399 302.358C190.206 302.551 189.945 302.647 189.617 302.647ZM193.102 313V304.16H194.581V305.639C194.898 305.163 195.3 304.766 195.788 304.449C196.286 304.12 196.876 303.956 197.556 303.956C198.553 303.956 199.295 304.256 199.783 304.857C200.281 305.458 200.531 306.251 200.531 307.237V313H199.001V307.407C199.001 306.772 198.848 306.262 198.542 305.877C198.247 305.492 197.833 305.299 197.301 305.299C196.779 305.299 196.286 305.486 195.822 305.86C195.357 306.223 194.96 306.653 194.632 307.152V313H193.102ZM206.409 316.944C205.888 316.944 205.378 316.882 204.879 316.757C204.392 316.632 203.956 316.445 203.57 316.196L204.131 314.87C204.403 315.085 204.721 315.261 205.083 315.397C205.446 315.544 205.888 315.618 206.409 315.618C207.214 315.618 207.843 315.403 208.296 314.972C208.761 314.553 208.993 313.878 208.993 312.949V311.861C208.767 312.133 208.438 312.394 208.007 312.643C207.588 312.881 207.084 313 206.494 313C205.826 313 205.191 312.83 204.59 312.49C203.99 312.139 203.502 311.629 203.128 310.96C202.754 310.291 202.567 309.487 202.567 308.546C202.567 307.662 202.749 306.874 203.111 306.183C203.485 305.492 203.984 304.948 204.607 304.551C205.231 304.154 205.916 303.956 206.664 303.956C207.163 303.956 207.616 304.041 208.024 304.211C208.432 304.381 208.784 304.591 209.078 304.84V304.16H210.472V312.796C210.472 313.771 210.302 314.564 209.962 315.176C209.622 315.788 209.146 316.236 208.534 316.519C207.934 316.802 207.225 316.944 206.409 316.944ZM206.834 311.64C207.288 311.64 207.696 311.538 208.058 311.334C208.421 311.13 208.716 310.892 208.942 310.62V305.996C208.693 305.815 208.393 305.65 208.041 305.503C207.69 305.356 207.282 305.282 206.817 305.282C206.353 305.282 205.916 305.407 205.508 305.656C205.1 305.905 204.766 306.268 204.505 306.744C204.256 307.209 204.131 307.781 204.131 308.461C204.131 309.107 204.256 309.668 204.505 310.144C204.766 310.62 205.1 310.988 205.508 311.249C205.916 311.51 206.358 311.64 206.834 311.64ZM214.297 313.204C213.991 313.204 213.724 313.091 213.498 312.864C213.271 312.637 213.158 312.371 213.158 312.065C213.158 311.714 213.26 311.436 213.464 311.232C213.668 311.028 213.945 310.926 214.297 310.926C214.591 310.926 214.852 311.039 215.079 311.266C215.317 311.493 215.436 311.759 215.436 312.065C215.436 312.405 215.328 312.683 215.113 312.898C214.897 313.102 214.625 313.204 214.297 313.204ZM219.393 313.204C219.087 313.204 218.821 313.091 218.594 312.864C218.368 312.637 218.254 312.371 218.254 312.065C218.254 311.714 218.356 311.436 218.56 311.232C218.764 311.028 219.042 310.926 219.393 310.926C219.688 310.926 219.949 311.039 220.175 311.266C220.413 311.493 220.532 311.759 220.532 312.065C220.532 312.405 220.425 312.683 220.209 312.898C219.994 313.102 219.722 313.204 219.393 313.204ZM224.49 313.204C224.184 313.204 223.918 313.091 223.691 312.864C223.464 312.637 223.351 312.371 223.351 312.065C223.351 311.714 223.453 311.436 223.657 311.232C223.861 311.028 224.139 310.926 224.49 310.926C224.785 310.926 225.045 311.039 225.272 311.266C225.51 311.493 225.629 311.759 225.629 312.065C225.629 312.405 225.521 312.683 225.306 312.898C225.091 313.102 224.819 313.204 224.49 313.204Z" fill="#D31744"/>
</g>
<rect x="0.5" y="0.5" width="374" height="579" stroke="black"/>
<defs>
<filter id="filter0_b_527_1791" x="-10" y="487" width="395" height="103" filterUnits="userSpaceOnUse" color-interpolation-filters="sRGB">
<feFlood flood-opacity="0" result="BackgroundImageFix"/>
<feGaussianBlur in="BackgroundImageFix" stdDeviation="5"/>
<feComposite in2="SourceAlpha" operator="in" result="effect1_backgroundBlur_527_1791"/>
<feBlend mode="normal" in="SourceGraphic" in2="effect1_backgroundBlur_527_1791" result="shape"/>
</filter>
<filter id="filter1_b_527_1791" x="-10" y="487" width="395" height="103" filterUnits="userSpaceOnUse" color-interpolation-filters="sRGB">
<feFlood flood-opacity="0" result="BackgroundImageFix"/>
<feGaussianBlur in="BackgroundImageFix" stdDeviation="5"/>
<feComposite in2="SourceAlpha" operator="in" result="effect1_backgroundBlur_527_1791"/>
<feBlend mode="normal" in="SourceGraphic" in2="effect1_backgroundBlur_527_1791" result="shape"/>
</filter>
<clipPath id="clip0_527_1791">
<rect width="375" height="580" fill="white"/>
</clipPath>
<clipPath id="clip1_527_1791">
<rect width="375" height="83" fill="white" transform="translate(0 497)"/>
</clipPath>
<clipPath id="clip2_527_1791">
<rect width="375" height="34" fill="white" transform="translate(0 546)"/>
</clipPath>
<clipPath id="clip3_527_1791">
<rect width="375" height="83" fill="white" transform="translate(0 497)"/>
</clipPath>
</defs>
</svg>
