<svg width="375" height="580" viewBox="0 0 375 580" fill="none" xmlns="http://www.w3.org/2000/svg">
<rect x="0.5" y="0.5" width="374" height="579" fill="#ECF0F1"/>
<rect x="0.5" y="0.5" width="374" height="579" stroke="black"/>
<path d="M119.75 259.1C119.75 261.2 119.283 263.033 118.35 264.6C117.417 266.167 116 267.383 114.1 268.25C112.233 269.083 109.867 269.5 107 269.5C105.667 269.5 104.433 269.417 103.3 269.25C102.167 269.083 101.1 268.85 100.1 268.55C99.1 268.217 98.1 267.817 97.1 267.35V260.3C98.8 261.033 100.533 261.717 102.3 262.35C104.1 262.95 105.8 263.25 107.4 263.25C108.433 263.25 109.267 263.083 109.9 262.75C110.533 262.417 111 261.967 111.3 261.4C111.6 260.833 111.75 260.183 111.75 259.45C111.75 258.55 111.5 257.783 111 257.15C110.533 256.517 109.833 255.933 108.9 255.4C107.967 254.833 106.817 254.267 105.45 253.7C104.45 253.267 103.467 252.767 102.5 252.2C101.533 251.633 100.667 250.95 99.9 250.15C99.1333 249.317 98.5167 248.317 98.05 247.15C97.6167 245.983 97.4 244.583 97.4 242.95C97.4 240.817 97.9 239 98.9 237.5C99.9 235.967 101.3 234.8 103.1 234C104.9 233.2 107 232.8 109.4 232.8C111.367 232.8 113.183 233.017 114.85 233.45C116.55 233.883 118.167 234.5 119.7 235.3L117.15 241.2C115.683 240.533 114.283 240.017 112.95 239.65C111.65 239.283 110.383 239.1 109.15 239.1C108.317 239.1 107.617 239.25 107.05 239.55C106.483 239.85 106.05 240.267 105.75 240.8C105.483 241.333 105.35 241.967 105.35 242.7C105.35 243.533 105.567 244.25 106 244.85C106.467 245.417 107.183 245.983 108.15 246.55C109.117 247.083 110.35 247.733 111.85 248.5C113.517 249.333 114.933 250.217 116.1 251.15C117.3 252.05 118.2 253.133 118.8 254.4C119.433 255.667 119.75 257.233 119.75 259.1ZM132.865 238.75C132.865 240.083 132.815 241.367 132.715 242.6C132.648 243.833 132.582 244.7 132.515 245.2H132.915C133.482 244.267 134.115 243.517 134.815 242.95C135.548 242.35 136.365 241.917 137.265 241.65C138.165 241.35 139.132 241.2 140.165 241.2C141.965 241.2 143.548 241.55 144.915 242.25C146.315 242.95 147.415 244.033 148.215 245.5C149.015 246.967 149.415 248.867 149.415 251.2V269H141.365V253.05C141.365 251.083 141.065 249.617 140.465 248.65C139.898 247.65 138.998 247.15 137.765 247.15C136.532 247.15 135.548 247.5 134.815 248.2C134.082 248.9 133.565 249.917 133.265 251.25C132.998 252.583 132.865 254.217 132.865 256.15V269H124.865V231H132.865V238.75ZM167.666 241.15C171.033 241.15 173.633 241.95 175.466 243.55C177.333 245.117 178.266 247.533 178.266 250.8V269H172.716L171.166 265.3H170.966C170.233 266.267 169.483 267.067 168.716 267.7C167.949 268.333 167.066 268.783 166.066 269.05C165.066 269.35 163.849 269.5 162.416 269.5C160.916 269.5 159.566 269.2 158.366 268.6C157.199 267.967 156.266 267.017 155.566 265.75C154.866 264.45 154.516 262.817 154.516 260.85C154.516 257.95 155.466 255.817 157.366 254.45C159.299 253.05 162.133 252.283 165.866 252.15L170.266 252V250.8C170.266 249.367 169.949 248.317 169.316 247.65C168.683 246.983 167.816 246.65 166.716 246.65C165.583 246.65 164.399 246.85 163.166 247.25C161.933 247.617 160.699 248.083 159.466 248.65L157.016 243.6C158.483 242.833 160.099 242.233 161.866 241.8C163.666 241.367 165.599 241.15 167.666 241.15ZM167.966 256.45C165.999 256.517 164.616 256.95 163.816 257.75C163.049 258.55 162.666 259.6 162.666 260.9C162.666 262.033 162.933 262.85 163.466 263.35C164.033 263.817 164.766 264.05 165.666 264.05C166.933 264.05 168.016 263.583 168.916 262.65C169.849 261.683 170.316 260.333 170.316 258.6V256.35L167.966 256.45ZM192.923 269H184.923V231H192.923V269ZM207.718 269H199.718V231H207.718V269ZM257.913 233.3L249.463 269H240.063L236.113 250.25C236.047 249.883 235.947 249.333 235.813 248.6C235.68 247.867 235.53 247.067 235.363 246.2C235.23 245.333 235.097 244.517 234.963 243.75C234.863 242.95 234.78 242.333 234.713 241.9C234.68 242.333 234.597 242.95 234.463 243.75C234.33 244.517 234.18 245.333 234.013 246.2C233.88 247.033 233.747 247.833 233.613 248.6C233.48 249.333 233.363 249.9 233.263 250.3L229.313 269H219.913L211.463 233.3H219.363L223.313 252.8C223.413 253.367 223.547 254.067 223.713 254.9C223.88 255.7 224.047 256.55 224.213 257.45C224.38 258.317 224.53 259.167 224.663 260C224.797 260.833 224.897 261.55 224.963 262.15C225.063 261.517 225.18 260.8 225.313 260C225.48 259.167 225.63 258.317 225.763 257.45C225.93 256.583 226.08 255.783 226.213 255.05C226.38 254.283 226.513 253.667 226.613 253.2L230.963 233.3H238.463L242.713 253.3C242.813 253.733 242.93 254.333 243.063 255.1C243.23 255.833 243.397 256.633 243.563 257.5C243.73 258.367 243.88 259.217 244.013 260.05C244.147 260.85 244.263 261.55 244.363 262.15C244.463 261.317 244.613 260.333 244.813 259.2C245.013 258.033 245.23 256.867 245.463 255.7C245.697 254.533 245.897 253.567 246.063 252.8L250.013 233.3H257.913ZM271.904 241.2C274.337 241.2 276.437 241.683 278.204 242.65C279.97 243.617 281.337 245.017 282.304 246.85C283.27 248.683 283.754 250.933 283.754 253.6V257.2H267.504C267.57 259.3 268.104 260.95 269.104 262.15C270.137 263.35 271.604 263.95 273.504 263.95C275.17 263.95 276.67 263.783 278.004 263.45C279.37 263.083 280.77 262.533 282.204 261.8V267.55C280.97 268.217 279.62 268.7 278.154 269C276.72 269.333 274.937 269.5 272.804 269.5C270.204 269.5 267.887 269 265.854 268C263.854 266.967 262.27 265.417 261.104 263.35C259.97 261.283 259.404 258.683 259.404 255.55C259.404 252.35 259.92 249.7 260.954 247.6C262.02 245.467 263.487 243.867 265.354 242.8C267.254 241.733 269.437 241.2 271.904 241.2ZM272.054 246.5C270.854 246.5 269.854 246.967 269.054 247.9C268.254 248.833 267.787 250.283 267.654 252.25H276.404C276.404 251.15 276.237 250.167 275.904 249.3C275.57 248.433 275.087 247.75 274.454 247.25C273.82 246.75 273.02 246.5 272.054 246.5Z" fill="#1ABC9C"/>
<path d="M57.34 346.72L53.7 361H50.26L48.32 353.5C48.28 353.353 48.2267 353.133 48.16 352.84C48.1067 352.547 48.04 352.227 47.96 351.88C47.8933 351.533 47.8333 351.207 47.78 350.9C47.7267 350.58 47.6867 350.333 47.66 350.16C47.6467 350.333 47.6067 350.58 47.54 350.9C47.4867 351.207 47.4267 351.533 47.36 351.88C47.2933 352.213 47.2267 352.533 47.16 352.84C47.0933 353.133 47.04 353.36 47 353.52L45.08 361H41.64L38 346.72H40.98L42.8 354.52C42.8533 354.747 42.9133 355.027 42.98 355.36C43.0467 355.68 43.1133 356.02 43.18 356.38C43.2467 356.727 43.3067 357.067 43.36 357.4C43.4267 357.733 43.4733 358.02 43.5 358.26C43.5267 358.007 43.5667 357.72 43.62 357.4C43.6733 357.067 43.7333 356.733 43.8 356.4C43.8667 356.053 43.9267 355.733 43.98 355.44C44.0467 355.133 44.1067 354.893 44.16 354.72L46.24 346.72H49.1L51.18 354.72C51.22 354.893 51.2733 355.133 51.34 355.44C51.4067 355.733 51.4733 356.053 51.54 356.4C51.6067 356.747 51.6667 357.087 51.72 357.42C51.7733 357.74 51.8133 358.02 51.84 358.26C51.88 357.927 51.94 357.533 52.02 357.08C52.1 356.613 52.1867 356.147 52.28 355.68C52.3867 355.213 52.4733 354.827 52.54 354.52L54.36 346.72H57.34ZM61.8759 348.9C61.8759 349.433 61.8559 349.947 61.8159 350.44C61.7893 350.933 61.7626 351.28 61.7359 351.48H61.8959C62.1359 351.107 62.4159 350.807 62.7359 350.58C63.0559 350.34 63.4093 350.167 63.7959 350.06C64.1959 349.94 64.6159 349.88 65.0559 349.88C65.8426 349.88 66.5293 350.02 67.1159 350.3C67.7026 350.58 68.1559 351.013 68.4759 351.6C68.8093 352.187 68.9759 352.947 68.9759 353.88V361H65.9959V354.62C65.9959 353.833 65.8493 353.247 65.5559 352.86C65.2759 352.46 64.8359 352.26 64.2359 352.26C63.6359 352.26 63.1626 352.4 62.8159 352.68C62.4826 352.96 62.2426 353.367 62.0959 353.9C61.9493 354.433 61.8759 355.087 61.8759 355.86V361H58.8959V345.8H61.8759V348.9ZM76.5405 349.88C77.5538 349.88 78.4205 350.073 79.1405 350.46C79.8738 350.847 80.4405 351.407 80.8405 352.14C81.2405 352.873 81.4405 353.773 81.4405 354.84V356.28H74.4005C74.4271 357.12 74.6738 357.78 75.1405 358.26C75.6205 358.74 76.2805 358.98 77.1205 358.98C77.8271 358.98 78.4671 358.913 79.0405 358.78C79.6138 358.633 80.2071 358.413 80.8205 358.12V360.42C80.2871 360.687 79.7205 360.88 79.1205 361C78.5338 361.133 77.8205 361.2 76.9805 361.2C75.8871 361.2 74.9205 361 74.0805 360.6C73.2405 360.187 72.5805 359.567 72.1005 358.74C71.6205 357.913 71.3805 356.873 71.3805 355.62C71.3805 354.34 71.5938 353.28 72.0205 352.44C72.4605 351.587 73.0671 350.947 73.8405 350.52C74.6138 350.093 75.5138 349.88 76.5405 349.88ZM76.5605 352C75.9871 352 75.5071 352.187 75.1205 352.56C74.7471 352.933 74.5271 353.513 74.4605 354.3H78.6405C78.6405 353.86 78.5605 353.467 78.4005 353.12C78.2538 352.773 78.0271 352.5 77.7205 352.3C77.4138 352.1 77.0271 352 76.5605 352ZM89.9569 349.88C90.1035 349.88 90.2769 349.887 90.4769 349.9C90.6769 349.913 90.8369 349.933 90.9569 349.96L90.7369 352.76C90.6435 352.733 90.5035 352.713 90.3169 352.7C90.1435 352.673 89.9902 352.66 89.8569 352.66C89.4702 352.66 89.0969 352.713 88.7369 352.82C88.3769 352.913 88.0502 353.067 87.7569 353.28C87.4769 353.493 87.2502 353.78 87.0769 354.14C86.9169 354.487 86.8369 354.92 86.8369 355.44V361H83.8569V350.08H86.1169L86.5569 351.92H86.6969C86.9102 351.547 87.1769 351.207 87.4969 350.9C87.8169 350.593 88.1835 350.347 88.5969 350.16C89.0235 349.973 89.4769 349.88 89.9569 349.88ZM97.0483 349.88C98.0616 349.88 98.9283 350.073 99.6483 350.46C100.382 350.847 100.948 351.407 101.348 352.14C101.748 352.873 101.948 353.773 101.948 354.84V356.28H94.9083C94.9349 357.12 95.1816 357.78 95.6483 358.26C96.1283 358.74 96.7883 358.98 97.6283 358.98C98.3349 358.98 98.9749 358.913 99.5483 358.78C100.122 358.633 100.715 358.413 101.328 358.12V360.42C100.795 360.687 100.228 360.88 99.6283 361C99.0416 361.133 98.3283 361.2 97.4883 361.2C96.3949 361.2 95.4283 361 94.5883 360.6C93.7483 360.187 93.0883 359.567 92.6083 358.74C92.1283 357.913 91.8883 356.873 91.8883 355.62C91.8883 354.34 92.1016 353.28 92.5283 352.44C92.9683 351.587 93.5749 350.947 94.3483 350.52C95.1216 350.093 96.0216 349.88 97.0483 349.88ZM97.0683 352C96.4949 352 96.0149 352.187 95.6283 352.56C95.2549 352.933 95.0349 353.513 94.9683 354.3H99.1483C99.1483 353.86 99.0683 353.467 98.9083 353.12C98.7616 352.773 98.5349 352.5 98.2283 352.3C97.9216 352.1 97.5349 352 97.0683 352ZM115.64 349.88C116.867 349.88 117.86 350.36 118.62 351.32C119.38 352.267 119.76 353.667 119.76 355.52C119.76 356.76 119.58 357.807 119.22 358.66C118.86 359.5 118.367 360.133 117.74 360.56C117.113 360.987 116.387 361.2 115.56 361.2C115.04 361.2 114.587 361.133 114.2 361C113.827 360.867 113.507 360.693 113.24 360.48C112.973 360.267 112.74 360.04 112.54 359.8H112.38C112.433 360.053 112.473 360.32 112.5 360.6C112.527 360.867 112.54 361.133 112.54 361.4V365.8H109.56V350.08H111.98L112.4 351.5H112.54C112.74 351.207 112.98 350.94 113.26 350.7C113.54 350.447 113.873 350.247 114.26 350.1C114.66 349.953 115.12 349.88 115.64 349.88ZM114.68 352.26C114.16 352.26 113.747 352.367 113.44 352.58C113.133 352.793 112.907 353.12 112.76 353.56C112.627 353.987 112.553 354.527 112.54 355.18V355.5C112.54 356.207 112.607 356.807 112.74 357.3C112.873 357.78 113.1 358.147 113.42 358.4C113.74 358.653 114.173 358.78 114.72 358.78C115.173 358.78 115.547 358.653 115.84 358.4C116.133 358.147 116.353 357.773 116.5 357.28C116.647 356.787 116.72 356.187 116.72 355.48C116.72 354.413 116.553 353.613 116.22 353.08C115.9 352.533 115.387 352.26 114.68 352.26ZM125.196 361H122.216V345.8H125.196V361ZM132.79 349.86C134.257 349.86 135.377 350.18 136.15 350.82C136.937 351.447 137.33 352.413 137.33 353.72V361H135.25L134.67 359.52H134.59C134.283 359.907 133.963 360.227 133.63 360.48C133.31 360.733 132.937 360.913 132.51 361.02C132.097 361.14 131.583 361.2 130.97 361.2C130.33 361.2 129.75 361.08 129.23 360.84C128.723 360.587 128.323 360.207 128.03 359.7C127.737 359.18 127.59 358.527 127.59 357.74C127.59 356.58 127.997 355.727 128.81 355.18C129.623 354.62 130.843 354.313 132.47 354.26L134.37 354.2V353.72C134.37 353.147 134.217 352.727 133.91 352.46C133.617 352.193 133.203 352.06 132.67 352.06C132.137 352.06 131.617 352.14 131.11 352.3C130.603 352.447 130.097 352.633 129.59 352.86L128.61 350.84C129.197 350.533 129.843 350.293 130.55 350.12C131.27 349.947 132.017 349.86 132.79 349.86ZM133.21 355.98C132.25 356.007 131.583 356.18 131.21 356.5C130.837 356.82 130.65 357.24 130.65 357.76C130.65 358.213 130.783 358.54 131.05 358.74C131.317 358.927 131.663 359.02 132.09 359.02C132.73 359.02 133.27 358.833 133.71 358.46C134.15 358.073 134.37 357.533 134.37 356.84V355.94L133.21 355.98ZM146.58 349.88C147.754 349.88 148.694 350.2 149.4 350.84C150.107 351.467 150.46 352.48 150.46 353.88V361H147.48V354.62C147.48 353.833 147.34 353.247 147.06 352.86C146.78 352.46 146.334 352.26 145.72 352.26C144.814 352.26 144.194 352.573 143.86 353.2C143.527 353.813 143.36 354.7 143.36 355.86V361H140.38V350.08H142.66L143.06 351.48H143.22C143.46 351.107 143.754 350.807 144.1 350.58C144.447 350.34 144.834 350.167 145.26 350.06C145.687 349.94 146.127 349.88 146.58 349.88ZM161.145 357.76C161.145 358.493 160.972 359.12 160.625 359.64C160.278 360.147 159.758 360.533 159.065 360.8C158.372 361.067 157.512 361.2 156.485 361.2C155.725 361.2 155.072 361.147 154.525 361.04C153.978 360.947 153.432 360.787 152.885 360.56V358.1C153.472 358.367 154.105 358.587 154.785 358.76C155.465 358.933 156.065 359.02 156.585 359.02C157.172 359.02 157.585 358.933 157.825 358.76C158.078 358.587 158.205 358.36 158.205 358.08C158.205 357.893 158.152 357.727 158.045 357.58C157.952 357.433 157.738 357.267 157.405 357.08C157.072 356.893 156.552 356.653 155.845 356.36C155.165 356.067 154.605 355.78 154.165 355.5C153.725 355.207 153.398 354.86 153.185 354.46C152.972 354.047 152.865 353.533 152.865 352.92C152.865 351.907 153.258 351.147 154.045 350.64C154.832 350.133 155.878 349.88 157.185 349.88C157.865 349.88 158.512 349.947 159.125 350.08C159.738 350.213 160.372 350.433 161.025 350.74L160.125 352.88C159.765 352.72 159.418 352.58 159.085 352.46C158.752 352.34 158.425 352.247 158.105 352.18C157.798 352.113 157.478 352.08 157.145 352.08C156.705 352.08 156.372 352.14 156.145 352.26C155.932 352.38 155.825 352.56 155.825 352.8C155.825 352.973 155.878 353.133 155.985 353.28C156.105 353.413 156.325 353.56 156.645 353.72C156.978 353.88 157.465 354.093 158.105 354.36C158.732 354.613 159.272 354.88 159.725 355.16C160.178 355.427 160.525 355.767 160.765 356.18C161.018 356.58 161.145 357.107 161.145 357.76ZM181.482 349.88C182.722 349.88 183.655 350.2 184.282 350.84C184.922 351.467 185.242 352.48 185.242 353.88V361H182.262V354.62C182.262 353.833 182.128 353.247 181.862 352.86C181.595 352.46 181.182 352.26 180.622 352.26C179.835 352.26 179.275 352.54 178.942 353.1C178.608 353.66 178.442 354.467 178.442 355.52V361H175.462V354.62C175.462 354.1 175.402 353.667 175.282 353.32C175.162 352.973 174.982 352.713 174.742 352.54C174.502 352.353 174.195 352.26 173.822 352.26C173.275 352.26 172.842 352.4 172.522 352.68C172.202 352.96 171.975 353.367 171.842 353.9C171.708 354.433 171.642 355.087 171.642 355.86V361H168.662V350.08H170.942L171.342 351.48H171.502C171.728 351.107 172.008 350.807 172.342 350.58C172.675 350.34 173.042 350.167 173.442 350.06C173.855 349.94 174.268 349.88 174.682 349.88C175.482 349.88 176.162 350.013 176.722 350.28C177.282 350.533 177.708 350.933 178.002 351.48H178.262C178.595 350.92 179.055 350.513 179.642 350.26C180.242 350.007 180.855 349.88 181.482 349.88ZM192.81 349.88C193.823 349.88 194.69 350.073 195.41 350.46C196.143 350.847 196.71 351.407 197.11 352.14C197.51 352.873 197.71 353.773 197.71 354.84V356.28H190.67C190.697 357.12 190.943 357.78 191.41 358.26C191.89 358.74 192.55 358.98 193.39 358.98C194.097 358.98 194.737 358.913 195.31 358.78C195.883 358.633 196.477 358.413 197.09 358.12V360.42C196.557 360.687 195.99 360.88 195.39 361C194.803 361.133 194.09 361.2 193.25 361.2C192.157 361.2 191.19 361 190.35 360.6C189.51 360.187 188.85 359.567 188.37 358.74C187.89 357.913 187.65 356.873 187.65 355.62C187.65 354.34 187.863 353.28 188.29 352.44C188.73 351.587 189.337 350.947 190.11 350.52C190.883 350.093 191.783 349.88 192.81 349.88ZM192.83 352C192.257 352 191.777 352.187 191.39 352.56C191.017 352.933 190.797 353.513 190.73 354.3H194.91C194.91 353.86 194.83 353.467 194.67 353.12C194.523 352.773 194.297 352.5 193.99 352.3C193.683 352.1 193.297 352 192.83 352ZM204.626 349.88C205.64 349.88 206.506 350.073 207.226 350.46C207.96 350.847 208.526 351.407 208.926 352.14C209.326 352.873 209.526 353.773 209.526 354.84V356.28H202.486C202.513 357.12 202.76 357.78 203.226 358.26C203.706 358.74 204.366 358.98 205.206 358.98C205.913 358.98 206.553 358.913 207.126 358.78C207.7 358.633 208.293 358.413 208.906 358.12V360.42C208.373 360.687 207.806 360.88 207.206 361C206.62 361.133 205.906 361.2 205.066 361.2C203.973 361.2 203.006 361 202.166 360.6C201.326 360.187 200.666 359.567 200.186 358.74C199.706 357.913 199.466 356.873 199.466 355.62C199.466 354.34 199.68 353.28 200.106 352.44C200.546 351.587 201.153 350.947 201.926 350.52C202.7 350.093 203.6 349.88 204.626 349.88ZM204.646 352C204.073 352 203.593 352.187 203.206 352.56C202.833 352.933 202.613 353.513 202.546 354.3H206.726C206.726 353.86 206.646 353.467 206.486 353.12C206.34 352.773 206.113 352.5 205.806 352.3C205.5 352.1 205.113 352 204.646 352ZM216.543 358.82C216.876 358.82 217.196 358.787 217.503 358.72C217.809 358.653 218.116 358.573 218.423 358.48V360.7C218.103 360.833 217.703 360.947 217.223 361.04C216.756 361.147 216.243 361.2 215.683 361.2C215.029 361.2 214.443 361.093 213.923 360.88C213.416 360.667 213.009 360.3 212.703 359.78C212.409 359.247 212.263 358.513 212.263 357.58V352.32H210.843V351.06L212.483 350.06L213.343 347.76H215.243V350.08H218.303V352.32H215.243V357.58C215.243 357.993 215.363 358.307 215.603 358.52C215.843 358.72 216.156 358.82 216.543 358.82ZM233.43 357.76C233.43 358.493 233.257 359.12 232.91 359.64C232.563 360.147 232.043 360.533 231.35 360.8C230.657 361.067 229.797 361.2 228.77 361.2C228.01 361.2 227.357 361.147 226.81 361.04C226.263 360.947 225.717 360.787 225.17 360.56V358.1C225.757 358.367 226.39 358.587 227.07 358.76C227.75 358.933 228.35 359.02 228.87 359.02C229.457 359.02 229.87 358.933 230.11 358.76C230.363 358.587 230.49 358.36 230.49 358.08C230.49 357.893 230.437 357.727 230.33 357.58C230.237 357.433 230.023 357.267 229.69 357.08C229.357 356.893 228.837 356.653 228.13 356.36C227.45 356.067 226.89 355.78 226.45 355.5C226.01 355.207 225.683 354.86 225.47 354.46C225.257 354.047 225.15 353.533 225.15 352.92C225.15 351.907 225.543 351.147 226.33 350.64C227.117 350.133 228.163 349.88 229.47 349.88C230.15 349.88 230.797 349.947 231.41 350.08C232.023 350.213 232.657 350.433 233.31 350.74L232.41 352.88C232.05 352.72 231.703 352.58 231.37 352.46C231.037 352.34 230.71 352.247 230.39 352.18C230.083 352.113 229.763 352.08 229.43 352.08C228.99 352.08 228.657 352.14 228.43 352.26C228.217 352.38 228.11 352.56 228.11 352.8C228.11 352.973 228.163 353.133 228.27 353.28C228.39 353.413 228.61 353.56 228.93 353.72C229.263 353.88 229.75 354.093 230.39 354.36C231.017 354.613 231.557 354.88 232.01 355.16C232.463 355.427 232.81 355.767 233.05 356.18C233.303 356.58 233.43 357.107 233.43 357.76ZM241.831 349.88C243.058 349.88 244.051 350.36 244.811 351.32C245.571 352.267 245.951 353.667 245.951 355.52C245.951 356.76 245.771 357.807 245.411 358.66C245.051 359.5 244.558 360.133 243.931 360.56C243.305 360.987 242.578 361.2 241.751 361.2C241.231 361.2 240.778 361.133 240.391 361C240.018 360.867 239.698 360.693 239.431 360.48C239.165 360.267 238.931 360.04 238.731 359.8H238.571C238.625 360.053 238.665 360.32 238.691 360.6C238.718 360.867 238.731 361.133 238.731 361.4V365.8H235.751V350.08H238.171L238.591 351.5H238.731C238.931 351.207 239.171 350.94 239.451 350.7C239.731 350.447 240.065 350.247 240.451 350.1C240.851 349.953 241.311 349.88 241.831 349.88ZM240.871 352.26C240.351 352.26 239.938 352.367 239.631 352.58C239.325 352.793 239.098 353.12 238.951 353.56C238.818 353.987 238.745 354.527 238.731 355.18V355.5C238.731 356.207 238.798 356.807 238.931 357.3C239.065 357.78 239.291 358.147 239.611 358.4C239.931 358.653 240.365 358.78 240.911 358.78C241.365 358.78 241.738 358.653 242.031 358.4C242.325 358.147 242.545 357.773 242.691 357.28C242.838 356.787 242.911 356.187 242.911 355.48C242.911 354.413 242.745 353.613 242.411 353.08C242.091 352.533 241.578 352.26 240.871 352.26ZM258.328 355.52C258.328 356.427 258.201 357.233 257.948 357.94C257.708 358.647 257.354 359.247 256.888 359.74C256.434 360.22 255.881 360.587 255.228 360.84C254.574 361.08 253.834 361.2 253.008 361.2C252.248 361.2 251.541 361.08 250.888 360.84C250.248 360.587 249.694 360.22 249.228 359.74C248.761 359.247 248.394 358.647 248.128 357.94C247.874 357.233 247.748 356.427 247.748 355.52C247.748 354.307 247.961 353.287 248.388 352.46C248.814 351.62 249.428 350.98 250.228 350.54C251.028 350.1 251.974 349.88 253.068 349.88C254.094 349.88 255.001 350.1 255.788 350.54C256.574 350.98 257.194 351.62 257.648 352.46C258.101 353.287 258.328 354.307 258.328 355.52ZM250.788 355.52C250.788 356.24 250.861 356.847 251.008 357.34C251.168 357.82 251.414 358.187 251.748 358.44C252.081 358.68 252.514 358.8 253.048 358.8C253.581 358.8 254.008 358.68 254.328 358.44C254.661 358.187 254.901 357.82 255.048 357.34C255.208 356.847 255.288 356.24 255.288 355.52C255.288 354.8 255.208 354.2 255.048 353.72C254.901 353.24 254.661 352.88 254.328 352.64C253.994 352.4 253.561 352.28 253.028 352.28C252.241 352.28 251.668 352.553 251.308 353.1C250.961 353.633 250.788 354.44 250.788 355.52ZM266.99 349.88C268.164 349.88 269.104 350.2 269.81 350.84C270.517 351.467 270.87 352.48 270.87 353.88V361H267.89V354.62C267.89 353.833 267.75 353.247 267.47 352.86C267.19 352.46 266.744 352.26 266.13 352.26C265.224 352.26 264.604 352.573 264.27 353.2C263.937 353.813 263.77 354.7 263.77 355.86V361H260.79V350.08H263.07L263.47 351.48H263.63C263.87 351.107 264.164 350.807 264.51 350.58C264.857 350.34 265.244 350.167 265.67 350.06C266.097 349.94 266.537 349.88 266.99 349.88ZM278.535 358.82C278.868 358.82 279.188 358.787 279.495 358.72C279.802 358.653 280.108 358.573 280.415 358.48V360.7C280.095 360.833 279.695 360.947 279.215 361.04C278.748 361.147 278.235 361.2 277.675 361.2C277.022 361.2 276.435 361.093 275.915 360.88C275.408 360.667 275.002 360.3 274.695 359.78C274.402 359.247 274.255 358.513 274.255 357.58V352.32H272.835V351.06L274.475 350.06L275.335 347.76H277.235V350.08H280.295V352.32H277.235V357.58C277.235 357.993 277.355 358.307 277.595 358.52C277.835 358.72 278.148 358.82 278.535 358.82ZM287.087 349.86C288.554 349.86 289.674 350.18 290.447 350.82C291.234 351.447 291.627 352.413 291.627 353.72V361H289.547L288.967 359.52H288.887C288.58 359.907 288.26 360.227 287.927 360.48C287.607 360.733 287.234 360.913 286.807 361.02C286.394 361.14 285.88 361.2 285.267 361.2C284.627 361.2 284.047 361.08 283.527 360.84C283.02 360.587 282.62 360.207 282.327 359.7C282.034 359.18 281.887 358.527 281.887 357.74C281.887 356.58 282.294 355.727 283.107 355.18C283.92 354.62 285.14 354.313 286.767 354.26L288.667 354.2V353.72C288.667 353.147 288.514 352.727 288.207 352.46C287.914 352.193 287.5 352.06 286.967 352.06C286.434 352.06 285.914 352.14 285.407 352.3C284.9 352.447 284.394 352.633 283.887 352.86L282.907 350.84C283.494 350.533 284.14 350.293 284.847 350.12C285.567 349.947 286.314 349.86 287.087 349.86ZM287.507 355.98C286.547 356.007 285.88 356.18 285.507 356.5C285.134 356.82 284.947 357.24 284.947 357.76C284.947 358.213 285.08 358.54 285.347 358.74C285.614 358.927 285.96 359.02 286.387 359.02C287.027 359.02 287.567 358.833 288.007 358.46C288.447 358.073 288.667 357.533 288.667 356.84V355.94L287.507 355.98ZM300.877 349.88C302.051 349.88 302.991 350.2 303.697 350.84C304.404 351.467 304.757 352.48 304.757 353.88V361H301.777V354.62C301.777 353.833 301.637 353.247 301.357 352.86C301.077 352.46 300.631 352.26 300.017 352.26C299.111 352.26 298.491 352.573 298.157 353.2C297.824 353.813 297.657 354.7 297.657 355.86V361H294.677V350.08H296.957L297.357 351.48H297.517C297.757 351.107 298.051 350.807 298.397 350.58C298.744 350.34 299.131 350.167 299.557 350.06C299.984 349.94 300.424 349.88 300.877 349.88ZM312.322 349.88C313.335 349.88 314.202 350.073 314.922 350.46C315.655 350.847 316.222 351.407 316.622 352.14C317.022 352.873 317.222 353.773 317.222 354.84V356.28H310.182C310.208 357.12 310.455 357.78 310.922 358.26C311.402 358.74 312.062 358.98 312.902 358.98C313.608 358.98 314.248 358.913 314.822 358.78C315.395 358.633 315.988 358.413 316.602 358.12V360.42C316.068 360.687 315.502 360.88 314.902 361C314.315 361.133 313.602 361.2 312.762 361.2C311.668 361.2 310.702 361 309.862 360.6C309.022 360.187 308.362 359.567 307.882 358.74C307.402 357.913 307.162 356.873 307.162 355.62C307.162 354.34 307.375 353.28 307.802 352.44C308.242 351.587 308.848 350.947 309.622 350.52C310.395 350.093 311.295 349.88 312.322 349.88ZM312.342 352C311.768 352 311.288 352.187 310.902 352.56C310.528 352.933 310.308 353.513 310.242 354.3H314.422C314.422 353.86 314.342 353.467 314.182 353.12C314.035 352.773 313.808 352.5 313.502 352.3C313.195 352.1 312.808 352 312.342 352ZM322.618 350.08V361H319.638V350.08H322.618ZM321.138 345.8C321.578 345.8 321.958 345.907 322.278 346.12C322.598 346.32 322.758 346.7 322.758 347.26C322.758 347.807 322.598 348.187 322.278 348.4C321.958 348.613 321.578 348.72 321.138 348.72C320.685 348.72 320.298 348.613 319.978 348.4C319.671 348.187 319.518 347.807 319.518 347.26C319.518 346.7 319.671 346.32 319.978 346.12C320.298 345.907 320.685 345.8 321.138 345.8ZM330.332 358.82C330.665 358.82 330.985 358.787 331.292 358.72C331.599 358.653 331.905 358.573 332.212 358.48V360.7C331.892 360.833 331.492 360.947 331.012 361.04C330.545 361.147 330.032 361.2 329.472 361.2C328.819 361.2 328.232 361.093 327.712 360.88C327.205 360.667 326.799 360.3 326.492 359.78C326.199 359.247 326.052 358.513 326.052 357.58V352.32H324.632V351.06L326.272 350.06L327.132 347.76H329.032V350.08H332.092V352.32H329.032V357.58C329.032 357.993 329.152 358.307 329.392 358.52C329.632 358.72 329.945 358.82 330.332 358.82ZM332.844 350.08H336.104L338.164 356.22C338.23 356.42 338.284 356.62 338.324 356.82C338.377 357.02 338.417 357.227 338.444 357.44C338.484 357.653 338.51 357.88 338.524 358.12H338.584C338.624 357.773 338.677 357.447 338.744 357.14C338.824 356.82 338.91 356.513 339.004 356.22L341.024 350.08H344.224L339.604 362.4C339.324 363.147 338.957 363.773 338.504 364.28C338.064 364.787 337.55 365.167 336.964 365.42C336.377 365.673 335.737 365.8 335.044 365.8C334.71 365.8 334.417 365.78 334.164 365.74C333.924 365.713 333.71 365.68 333.524 365.64V363.28C333.67 363.307 333.844 363.333 334.044 363.36C334.257 363.387 334.477 363.4 334.704 363.4C335.117 363.4 335.47 363.313 335.764 363.14C336.07 362.967 336.324 362.727 336.524 362.42C336.724 362.127 336.884 361.807 337.004 361.46L337.184 360.92L332.844 350.08Z" fill="#F1C40F"/>
</svg>
