<svg width="455" height="580" viewBox="0 0 455 580" fill="none" xmlns="http://www.w3.org/2000/svg">
<g clip-path="url(#clip0_521_2689)">
<rect width="375" height="580" transform="translate(80)" fill="white"/>
<path opacity="0.35" d="M418.667 17.833H435.333C436.53 17.833 437.5 18.8031 437.5 19.9997V25.9997C437.5 27.1963 436.53 28.1663 435.333 28.1663H418.667C417.47 28.1663 416.5 27.1963 416.5 25.9997V19.9997C416.5 18.8031 417.47 17.833 418.667 17.833Z" stroke="#222222"/>
<path opacity="0.4" d="M439 20.9995V24.9995C439.805 24.6607 440.328 23.8726 440.328 22.9995C440.328 22.1264 439.805 21.3383 439 20.9995" fill="#222222"/>
<path d="M418 20.6663C418 19.93 418.597 19.333 419.333 19.333H434.667C435.403 19.333 436 19.93 436 20.6663V25.333C436 26.0694 435.403 26.6663 434.667 26.6663H419.333C418.597 26.6663 418 26.0694 418 25.333V20.6663Z" fill="#222222"/>
<path fill-rule="evenodd" clip-rule="evenodd" d="M403.33 19.6079C405.546 19.608 407.677 20.4594 409.283 21.9862C409.404 22.1041 409.598 22.1026 409.717 21.9829L410.873 20.8162C410.933 20.7555 410.967 20.6733 410.966 20.5877C410.966 20.5021 410.931 20.4202 410.87 20.3602C406.655 16.3207 400.005 16.3207 395.79 20.3602C395.729 20.4202 395.694 20.502 395.694 20.5876C395.693 20.6732 395.727 20.7555 395.787 20.8162L396.943 21.9829C397.062 22.1028 397.256 22.1043 397.377 21.9862C398.983 20.4593 401.114 19.6079 403.33 19.6079ZM403.33 23.4036C404.548 23.4035 405.722 23.856 406.624 24.6732C406.746 24.7892 406.939 24.7867 407.058 24.6676L408.212 23.5009C408.273 23.4397 408.307 23.3567 408.306 23.2704C408.305 23.1842 408.27 23.1018 408.208 23.0419C405.459 20.4855 401.204 20.4855 398.455 23.0419C398.393 23.1018 398.358 23.1842 398.357 23.2705C398.356 23.3568 398.39 23.4398 398.451 23.5009L399.605 24.6676C399.724 24.7867 399.917 24.7892 400.039 24.6732C400.941 23.8566 402.114 23.4041 403.33 23.4036ZM405.643 25.9574C405.645 26.0439 405.611 26.1273 405.549 26.1879L403.552 28.2036C403.493 28.2628 403.414 28.2961 403.33 28.2961C403.247 28.2961 403.167 28.2628 403.109 28.2036L401.111 26.1879C401.049 26.1272 401.015 26.0438 401.017 25.9573C401.019 25.8708 401.056 25.7889 401.121 25.7309C402.396 24.652 404.264 24.652 405.54 25.7309C405.604 25.7889 405.642 25.8709 405.643 25.9574Z" fill="#222222"/>
<path fill-rule="evenodd" clip-rule="evenodd" d="M389.667 17.6665H388.667C388.114 17.6665 387.667 18.1142 387.667 18.6665V27.3332C387.667 27.8855 388.114 28.3332 388.667 28.3332H389.667C390.219 28.3332 390.667 27.8855 390.667 27.3332V18.6665C390.667 18.1142 390.219 17.6665 389.667 17.6665ZM384 19.9998H385C385.552 19.9998 386 20.4476 386 20.9998V27.3332C386 27.8855 385.552 28.3332 385 28.3332H384C383.448 28.3332 383 27.8855 383 27.3332V20.9998C383 20.4476 383.448 19.9998 384 19.9998ZM380.333 22.3332H379.333C378.781 22.3332 378.333 22.7809 378.333 23.3332V27.3332C378.333 27.8855 378.781 28.3332 379.333 28.3332H380.333C380.886 28.3332 381.333 27.8855 381.333 27.3332V23.3332C381.333 22.7809 380.886 22.3332 380.333 22.3332ZM375.667 24.3332H374.667C374.114 24.3332 373.667 24.7809 373.667 25.3332V27.3332C373.667 27.8855 374.114 28.3332 374.667 28.3332H375.667C376.219 28.3332 376.667 27.8855 376.667 27.3332V25.3332C376.667 24.7809 376.219 24.3332 375.667 24.3332Z" fill="#222222"/>
<path d="M117.321 28.2563C120.009 28.2563 121.605 26.1543 121.605 22.5947C121.605 21.2544 121.349 20.1265 120.858 19.2549C120.148 17.8999 118.925 17.1675 117.379 17.1675C115.079 17.1675 113.453 18.7129 113.453 20.8809C113.453 22.917 114.918 24.3965 116.932 24.3965C118.17 24.3965 119.174 23.8179 119.672 22.8145H119.694C119.694 22.8145 119.723 22.8145 119.73 22.8145C119.745 22.8145 119.796 22.8145 119.796 22.8145C119.796 25.2314 118.881 26.6743 117.335 26.6743C116.427 26.6743 115.724 26.1763 115.482 25.3779H113.6C113.915 27.1138 115.387 28.2563 117.321 28.2563ZM117.387 22.895C116.171 22.895 115.307 22.0308 115.307 20.8223C115.307 19.6431 116.215 18.7422 117.394 18.7422C118.573 18.7422 119.481 19.6577 119.481 20.8516C119.481 22.0308 118.595 22.895 117.387 22.895Z" fill="black"/>
<path d="M124.696 28.1538C125.392 28.1538 125.868 27.6558 125.868 26.9966C125.868 26.3301 125.392 25.8394 124.696 25.8394C124.008 25.8394 123.525 26.3301 123.525 26.9966C123.525 27.6558 124.008 28.1538 124.696 28.1538ZM124.696 22.6606C125.392 22.6606 125.868 22.1699 125.868 21.5107C125.868 20.8442 125.392 20.3535 124.696 20.3535C124.008 20.3535 123.525 20.8442 123.525 21.5107C123.525 22.1699 124.008 22.6606 124.696 22.6606Z" fill="black"/>
<path d="M132.724 28H134.533V26.0298H135.961V24.4331H134.533V17.4312H131.867C129.999 20.2437 128.513 22.5947 127.561 24.3452V26.0298H132.724V28ZM129.311 24.3672C130.541 22.1992 131.64 20.4634 132.651 18.9692H132.753V24.4771H129.311V24.3672Z" fill="black"/>
<path d="M139.99 28H141.88V17.4312H139.997L137.236 19.3647V21.1812L139.865 19.3354H139.99V28Z" fill="black"/>
<path d="M237.63 62.04C237.63 62.88 237.423 63.6133 237.01 64.24C236.597 64.8667 235.997 65.3533 235.21 65.7C234.437 66.0333 233.49 66.2 232.37 66.2C231.877 66.2 231.39 66.1667 230.91 66.1C230.443 66.0333 229.99 65.94 229.55 65.82C229.123 65.6867 228.717 65.5267 228.33 65.34V62.52C229.01 62.8133 229.71 63.0867 230.43 63.34C231.163 63.58 231.89 63.7 232.61 63.7C233.103 63.7 233.497 63.6333 233.79 63.5C234.097 63.3667 234.317 63.1867 234.45 62.96C234.597 62.7333 234.67 62.4733 234.67 62.18C234.67 61.82 234.543 61.5133 234.29 61.26C234.05 61.0067 233.723 60.7733 233.31 60.56C232.897 60.3333 232.423 60.0933 231.89 59.84C231.557 59.68 231.197 59.4933 230.81 59.28C230.423 59.0533 230.05 58.78 229.69 58.46C229.343 58.1267 229.057 57.7267 228.83 57.26C228.603 56.7933 228.49 56.2333 228.49 55.58C228.49 54.7267 228.683 54 229.07 53.4C229.47 52.7867 230.03 52.32 230.75 52C231.483 51.68 232.343 51.52 233.33 51.52C234.077 51.52 234.783 51.6067 235.45 51.78C236.13 51.9533 236.837 52.2 237.57 52.52L236.59 54.88C235.937 54.6133 235.35 54.4067 234.83 54.26C234.31 54.1133 233.777 54.04 233.23 54.04C232.857 54.04 232.537 54.1 232.27 54.22C232.003 54.34 231.797 54.5067 231.65 54.72C231.517 54.9333 231.45 55.1867 231.45 55.48C231.45 55.8133 231.55 56.1 231.75 56.34C231.95 56.5667 232.25 56.7867 232.65 57C233.05 57.2133 233.55 57.4667 234.15 57.76C234.883 58.1067 235.503 58.4667 236.01 58.84C236.53 59.2133 236.93 59.6533 237.21 60.16C237.49 60.6667 237.63 61.2933 237.63 62.04ZM242.966 53.9C242.966 54.4333 242.946 54.9467 242.906 55.44C242.879 55.9333 242.852 56.28 242.826 56.48H242.986C243.226 56.1067 243.506 55.8067 243.826 55.58C244.146 55.34 244.499 55.1667 244.886 55.06C245.286 54.94 245.706 54.88 246.146 54.88C246.932 54.88 247.619 55.02 248.206 55.3C248.792 55.58 249.246 56.0133 249.566 56.6C249.899 57.1867 250.066 57.9467 250.066 58.88V66H247.086V59.62C247.086 58.8333 246.939 58.2467 246.646 57.86C246.366 57.46 245.926 57.26 245.326 57.26C244.726 57.26 244.252 57.4 243.906 57.68C243.572 57.96 243.332 58.3667 243.186 58.9C243.039 59.4333 242.966 60.0867 242.966 60.86V66H239.986V50.8H242.966V53.9ZM257.61 54.86C259.077 54.86 260.197 55.18 260.97 55.82C261.757 56.4467 262.15 57.4133 262.15 58.72V66H260.07L259.49 64.52H259.41C259.104 64.9067 258.784 65.2267 258.45 65.48C258.13 65.7333 257.757 65.9133 257.33 66.02C256.917 66.14 256.404 66.2 255.79 66.2C255.15 66.2 254.57 66.08 254.05 65.84C253.544 65.5867 253.144 65.2067 252.85 64.7C252.557 64.18 252.41 63.5267 252.41 62.74C252.41 61.58 252.817 60.7267 253.63 60.18C254.444 59.62 255.664 59.3133 257.29 59.26L259.19 59.2V58.72C259.19 58.1467 259.037 57.7267 258.73 57.46C258.437 57.1933 258.024 57.06 257.49 57.06C256.957 57.06 256.437 57.14 255.93 57.3C255.424 57.4467 254.917 57.6333 254.41 57.86L253.43 55.84C254.017 55.5333 254.664 55.2933 255.37 55.12C256.09 54.9467 256.837 54.86 257.61 54.86ZM258.03 60.98C257.07 61.0067 256.404 61.18 256.03 61.5C255.657 61.82 255.47 62.24 255.47 62.76C255.47 63.2133 255.604 63.54 255.87 63.74C256.137 63.9267 256.484 64.02 256.91 64.02C257.55 64.02 258.09 63.8333 258.53 63.46C258.97 63.0733 259.19 62.5333 259.19 61.84V60.94L258.03 60.98ZM268.181 66H265.201V50.8H268.181V66ZM274.274 66H271.294V50.8H274.274V66ZM295.168 51.72L291.528 66H288.088L286.148 58.5C286.108 58.3533 286.055 58.1333 285.988 57.84C285.935 57.5467 285.868 57.2267 285.788 56.88C285.721 56.5333 285.661 56.2067 285.608 55.9C285.555 55.58 285.515 55.3333 285.488 55.16C285.475 55.3333 285.435 55.58 285.368 55.9C285.315 56.2067 285.255 56.5333 285.188 56.88C285.121 57.2133 285.055 57.5333 284.988 57.84C284.921 58.1333 284.868 58.36 284.828 58.52L282.908 66H279.468L275.828 51.72H278.808L280.628 59.52C280.681 59.7467 280.741 60.0267 280.808 60.36C280.875 60.68 280.941 61.02 281.008 61.38C281.075 61.7267 281.135 62.0667 281.188 62.4C281.255 62.7333 281.301 63.02 281.328 63.26C281.355 63.0067 281.395 62.72 281.448 62.4C281.501 62.0667 281.561 61.7333 281.628 61.4C281.695 61.0533 281.755 60.7333 281.808 60.44C281.875 60.1333 281.935 59.8933 281.988 59.72L284.068 51.72H286.928L289.008 59.72C289.048 59.8933 289.101 60.1333 289.168 60.44C289.235 60.7333 289.301 61.0533 289.368 61.4C289.435 61.7467 289.495 62.0867 289.548 62.42C289.601 62.74 289.641 63.02 289.668 63.26C289.708 62.9267 289.768 62.5333 289.848 62.08C289.928 61.6133 290.015 61.1467 290.108 60.68C290.215 60.2133 290.301 59.8267 290.368 59.52L292.188 51.72H295.168ZM300.833 54.88C301.847 54.88 302.713 55.0733 303.433 55.46C304.167 55.8467 304.733 56.4067 305.133 57.14C305.533 57.8733 305.733 58.7733 305.733 59.84V61.28H298.693C298.72 62.12 298.967 62.78 299.433 63.26C299.913 63.74 300.573 63.98 301.413 63.98C302.12 63.98 302.76 63.9133 303.333 63.78C303.907 63.6333 304.5 63.4133 305.113 63.12V65.42C304.58 65.6867 304.013 65.88 303.413 66C302.827 66.1333 302.113 66.2 301.273 66.2C300.18 66.2 299.213 66 298.373 65.6C297.533 65.1867 296.873 64.5667 296.393 63.74C295.913 62.9133 295.673 61.8733 295.673 60.62C295.673 59.34 295.887 58.28 296.313 57.44C296.753 56.5867 297.36 55.9467 298.133 55.52C298.907 55.0933 299.807 54.88 300.833 54.88ZM300.853 57C300.28 57 299.8 57.1867 299.413 57.56C299.04 57.9333 298.82 58.5133 298.753 59.3H302.933C302.933 58.86 302.853 58.4667 302.693 58.12C302.547 57.7733 302.32 57.5 302.013 57.3C301.707 57.1 301.32 57 300.853 57Z" fill="#1ABC9C"/>
<line x1="80" y1="82.5" x2="455" y2="82.5" stroke="#787BC5"/>
<path d="M382.48 184.252V183.316H385.384V184.252H382.48Z" fill="black"/>
<rect width="375" height="83" transform="translate(80 497)" fill="white"/>
<rect x="80" y="496.5" width="375" height="0.5" fill="black" fill-opacity="0.3"/>
<g clip-path="url(#clip1_521_2689)">
<g filter="url(#filter0_b_521_2689)">
<rect x="80" y="497" width="375" height="83" fill="white" fill-opacity="0.82"/>
</g>
<path fill-rule="evenodd" clip-rule="evenodd" d="M169.406 511.902H161.516C161.044 511.904 160.624 511.604 160.473 511.156L158.043 503.747C157.89 503.3 157.471 503 157 503C156.529 503 156.11 503.3 155.957 503.747L153.527 511.156C153.376 511.604 152.956 511.904 152.484 511.902H144.594C144.125 511.891 143.704 512.188 143.555 512.633C143.407 513.079 143.565 513.569 143.945 513.843L150.348 518.452C150.726 518.721 150.886 519.206 150.742 519.647L148.302 527.089C148.197 527.421 148.258 527.784 148.466 528.063C148.673 528.342 149.002 528.504 149.35 528.498C149.582 528.497 149.807 528.422 149.994 528.285L156.351 523.709C156.739 523.431 157.261 523.431 157.649 523.709L164.006 528.285C164.193 528.422 164.418 528.497 164.65 528.498C164.998 528.504 165.327 528.342 165.534 528.063C165.742 527.784 165.803 527.421 165.698 527.089L163.258 519.647C163.114 519.206 163.274 518.721 163.652 518.452L170.055 513.843C170.435 513.569 170.593 513.079 170.445 512.633C170.296 512.188 169.875 511.891 169.406 511.902Z" fill="#007AFF"/>
<path d="M151.691 532.9H152.861V533.33C152.861 535.11 151.461 536.62 149.031 536.98L148.511 535.91C150.641 535.63 151.691 534.42 151.691 533.33V532.9ZM151.941 532.9H153.101V533.33C153.101 534.41 154.161 535.63 156.281 535.91L155.771 536.98C153.341 536.62 151.941 535.11 151.941 533.33V532.9ZM151.701 538.5H153.021V541.89H151.701V538.5ZM148.211 537.66H156.581V538.74H148.211V537.66ZM162.08 534.67H164.4V535.74H162.08V534.67ZM159.96 533.01C161.35 533.01 162.4 533.94 162.4 535.22C162.4 536.51 161.35 537.43 159.96 537.43C158.56 537.43 157.51 536.51 157.51 535.22C157.51 533.94 158.56 533.01 159.96 533.01ZM159.96 534.12C159.28 534.12 158.78 534.53 158.78 535.22C158.78 535.91 159.28 536.33 159.96 536.33C160.64 536.33 161.13 535.91 161.13 535.22C161.13 534.53 160.64 534.12 159.96 534.12ZM163.82 532.63H165.15V537.61H163.82V532.63ZM159 538.01H160.32V538.89H163.83V538.01H165.15V541.79H159V538.01ZM160.32 539.91V540.73H163.83V539.91H160.32Z" fill="#007AFF"/>
<path fill-rule="evenodd" clip-rule="evenodd" d="M280.406 511.902H272.516C272.044 511.904 271.624 511.604 271.473 511.156L269.043 503.747C268.89 503.3 268.471 503 268 503C267.529 503 267.11 503.3 266.957 503.747L264.527 511.156C264.376 511.604 263.956 511.904 263.484 511.902H255.594C255.125 511.891 254.704 512.188 254.555 512.633C254.407 513.079 254.565 513.569 254.945 513.843L261.348 518.452C261.726 518.721 261.886 519.206 261.742 519.647L259.302 527.089C259.197 527.421 259.258 527.784 259.466 528.063C259.673 528.342 260.002 528.504 260.35 528.498C260.582 528.497 260.807 528.422 260.994 528.285L267.351 523.709C267.739 523.431 268.261 523.431 268.649 523.709L275.006 528.285C275.193 528.422 275.418 528.497 275.65 528.498C275.998 528.504 276.327 528.342 276.534 528.063C276.742 527.784 276.803 527.421 276.698 527.089L274.258 519.647C274.114 519.206 274.274 518.721 274.652 518.452L281.055 513.843C281.435 513.569 281.593 513.079 281.445 512.633C281.296 512.188 280.875 511.891 280.406 511.902Z" fill="#8E8E93"/>
<path d="M262.721 537.28H264.051V538.91H262.721V537.28ZM259.201 536.84H267.571V537.89H259.201V536.84ZM263.371 538.55C265.371 538.55 266.581 539.15 266.581 540.22C266.581 541.29 265.371 541.89 263.371 541.89C261.361 541.89 260.151 541.29 260.151 540.22C260.151 539.15 261.361 538.55 263.371 538.55ZM263.371 539.55C262.131 539.55 261.501 539.76 261.501 540.22C261.501 540.67 262.131 540.89 263.371 540.89C264.611 540.89 265.241 540.67 265.241 540.22C265.241 539.76 264.611 539.55 263.371 539.55ZM262.471 533.5H263.651V533.73C263.651 535.12 262.401 536.26 260.011 536.48L259.551 535.44C261.581 535.27 262.471 534.45 262.471 533.73V533.5ZM263.121 533.5H264.301V533.73C264.301 534.46 265.181 535.27 267.221 535.44L266.761 536.48C264.381 536.26 263.121 535.13 263.121 533.73V533.5ZM259.961 533.01H266.821V534.06H259.961V533.01ZM269.26 533.41H275.13V534.48H269.26V533.41ZM268.41 539.7H276.78V540.78H268.41V539.7ZM271.37 536.52H272.7V540.23H271.37V536.52ZM274.65 533.41H275.98V534.3C275.98 535.46 275.98 536.76 275.61 538.74L274.28 538.59C274.65 536.75 274.65 535.41 274.65 534.3V533.41Z" fill="#8E8E93"/>
<path fill-rule="evenodd" clip-rule="evenodd" d="M390.406 511.902H382.516C382.044 511.904 381.624 511.604 381.473 511.156L379.043 503.747C378.89 503.3 378.471 503 378 503C377.529 503 377.11 503.3 376.957 503.747L374.527 511.156C374.376 511.604 373.956 511.904 373.484 511.902H365.594C365.125 511.891 364.704 512.188 364.555 512.633C364.407 513.079 364.565 513.569 364.945 513.843L371.348 518.452C371.726 518.721 371.886 519.206 371.742 519.647L369.302 527.089C369.197 527.421 369.258 527.784 369.466 528.063C369.673 528.342 370.002 528.504 370.35 528.498C370.582 528.497 370.807 528.422 370.994 528.285L377.351 523.709C377.739 523.431 378.261 523.431 378.649 523.709L385.006 528.285C385.193 528.422 385.418 528.497 385.65 528.498C385.998 528.504 386.327 528.342 386.534 528.063C386.742 527.784 386.803 527.421 386.698 527.089L384.258 519.647C384.114 519.206 384.274 518.721 384.652 518.452L391.055 513.843C391.435 513.569 391.593 513.079 391.445 512.633C391.296 512.188 390.875 511.891 390.406 511.902Z" fill="#8E8E93"/>
<path d="M364.111 539.73H372.491V540.82H364.111V539.73ZM364.751 533.43H371.801V534.49H364.751V533.43ZM364.791 537.26H371.771V538.33H364.791V537.26ZM366.011 534.41H367.341V537.36H366.011V534.41ZM369.221 534.41H370.541V537.36H369.221V534.41ZM373.31 539.79H381.69V540.87H373.31V539.79ZM376.82 538.04H378.15V540.23H376.82V538.04ZM374.25 533.23H380.75V536.31H375.59V537.87H374.27V535.27H379.43V534.28H374.25V533.23ZM374.27 537.34H380.96V538.41H374.27V537.34ZM388.88 532.63H390.22V537.37H388.88V532.63ZM383.95 537.74H390.22V540.24H385.28V541.36H383.97V539.29H388.9V538.76H383.95V537.74ZM383.97 540.8H390.47V541.83H383.97V540.8ZM382.9 533.19H387.89V534.21H382.9V533.19ZM382.79 537.21L382.66 536.16C384.28 536.16 386.44 536.13 388.23 535.91L388.3 536.86C386.47 537.16 384.39 537.2 382.79 537.21ZM383.63 533.65H384.9V536.68H383.63V533.65ZM385.87 533.65H387.16V536.68H385.87V533.65Z" fill="#8E8E93"/>
<rect width="375" height="83" transform="translate(80 497)" fill="white"/>
<g clip-path="url(#clip2_521_2689)">
<g filter="url(#filter1_b_521_2689)">
<rect x="80" y="497" width="375" height="83" fill="white" fill-opacity="0.82"/>
</g>
<path d="M240.846 553.8L242.336 550.86H243.966L241.596 555.22V558H240.096V555.27L237.726 550.86H239.366L240.846 553.8ZM249.208 555.26C249.208 555.713 249.144 556.117 249.018 556.47C248.898 556.823 248.721 557.123 248.488 557.37C248.261 557.61 247.984 557.793 247.658 557.92C247.331 558.04 246.961 558.1 246.548 558.1C246.168 558.1 245.814 558.04 245.488 557.92C245.168 557.793 244.891 557.61 244.658 557.37C244.424 557.123 244.241 556.823 244.108 556.47C243.981 556.117 243.918 555.713 243.918 555.26C243.918 554.653 244.024 554.143 244.238 553.73C244.451 553.31 244.758 552.99 245.158 552.77C245.558 552.55 246.031 552.44 246.578 552.44C247.091 552.44 247.544 552.55 247.938 552.77C248.331 552.99 248.641 553.31 248.868 553.73C249.094 554.143 249.208 554.653 249.208 555.26ZM245.438 555.26C245.438 555.62 245.474 555.923 245.548 556.17C245.628 556.41 245.751 556.593 245.918 556.72C246.084 556.84 246.301 556.9 246.568 556.9C246.834 556.9 247.048 556.84 247.208 556.72C247.374 556.593 247.494 556.41 247.568 556.17C247.648 555.923 247.688 555.62 247.688 555.26C247.688 554.9 247.648 554.6 247.568 554.36C247.494 554.12 247.374 553.94 247.208 553.82C247.041 553.7 246.824 553.64 246.558 553.64C246.164 553.64 245.878 553.777 245.698 554.05C245.524 554.317 245.438 554.72 245.438 555.26ZM255.449 552.54V558H254.309L254.109 557.3H254.029C253.916 557.487 253.769 557.64 253.589 557.76C253.416 557.873 253.223 557.957 253.009 558.01C252.796 558.07 252.576 558.1 252.349 558.1C251.963 558.1 251.623 558.03 251.329 557.89C251.036 557.75 250.809 557.533 250.649 557.24C250.489 556.947 250.409 556.567 250.409 556.1V552.54H251.899V555.73C251.899 556.117 251.969 556.41 252.109 556.61C252.249 556.81 252.473 556.91 252.779 556.91C253.086 556.91 253.323 556.84 253.489 556.7C253.663 556.56 253.783 556.357 253.849 556.09C253.923 555.823 253.959 555.497 253.959 555.11V552.54H255.449ZM260.061 552.44C260.135 552.44 260.221 552.443 260.321 552.45C260.421 552.457 260.501 552.467 260.561 552.48L260.451 553.88C260.405 553.867 260.335 553.857 260.241 553.85C260.155 553.837 260.078 553.83 260.011 553.83C259.818 553.83 259.631 553.857 259.451 553.91C259.271 553.957 259.108 554.033 258.961 554.14C258.821 554.247 258.708 554.39 258.621 554.57C258.541 554.743 258.501 554.96 258.501 555.22V558H257.011V552.54H258.141L258.361 553.46H258.431C258.538 553.273 258.671 553.103 258.831 552.95C258.991 552.797 259.175 552.673 259.381 552.58C259.595 552.487 259.821 552.44 260.061 552.44ZM266.55 550.86C267.47 550.86 268.14 551.06 268.56 551.46C268.987 551.853 269.2 552.397 269.2 553.09C269.2 553.403 269.153 553.703 269.06 553.99C268.967 554.27 268.81 554.523 268.59 554.75C268.377 554.97 268.093 555.143 267.74 555.27C267.387 555.397 266.95 555.46 266.43 555.46H265.78V558H264.27V550.86H266.55ZM266.47 552.1H265.78V554.22H266.28C266.567 554.22 266.813 554.183 267.02 554.11C267.227 554.037 267.387 553.92 267.5 553.76C267.613 553.6 267.67 553.393 267.67 553.14C267.67 552.787 267.573 552.527 267.38 552.36C267.187 552.187 266.883 552.1 266.47 552.1ZM271.919 558H270.429V550.4H271.919V558ZM275.716 552.43C276.45 552.43 277.01 552.59 277.396 552.91C277.79 553.223 277.986 553.707 277.986 554.36V558H276.946L276.656 557.26H276.616C276.463 557.453 276.303 557.613 276.136 557.74C275.976 557.867 275.79 557.957 275.576 558.01C275.37 558.07 275.113 558.1 274.806 558.1C274.486 558.1 274.196 558.04 273.936 557.92C273.683 557.793 273.483 557.603 273.336 557.35C273.19 557.09 273.116 556.763 273.116 556.37C273.116 555.79 273.32 555.363 273.726 555.09C274.133 554.81 274.743 554.657 275.556 554.63L276.506 554.6V554.36C276.506 554.073 276.43 553.863 276.276 553.73C276.13 553.597 275.923 553.53 275.656 553.53C275.39 553.53 275.13 553.57 274.876 553.65C274.623 553.723 274.37 553.817 274.116 553.93L273.626 552.92C273.92 552.767 274.243 552.647 274.596 552.56C274.956 552.473 275.33 552.43 275.716 552.43ZM275.926 555.49C275.446 555.503 275.113 555.59 274.926 555.75C274.74 555.91 274.646 556.12 274.646 556.38C274.646 556.607 274.713 556.77 274.846 556.87C274.98 556.963 275.153 557.01 275.366 557.01C275.686 557.01 275.956 556.917 276.176 556.73C276.396 556.537 276.506 556.267 276.506 555.92V555.47L275.926 555.49ZM282.611 552.44C283.198 552.44 283.668 552.6 284.021 552.92C284.375 553.233 284.551 553.74 284.551 554.44V558H283.061V554.81C283.061 554.417 282.991 554.123 282.851 553.93C282.711 553.73 282.488 553.63 282.181 553.63C281.728 553.63 281.418 553.787 281.251 554.1C281.085 554.407 281.001 554.85 281.001 555.43V558H279.511V552.54H280.651L280.851 553.24H280.931C281.051 553.053 281.198 552.903 281.371 552.79C281.545 552.67 281.738 552.583 281.951 552.53C282.165 552.47 282.385 552.44 282.611 552.44ZM289.894 556.38C289.894 556.747 289.807 557.06 289.634 557.32C289.46 557.573 289.2 557.767 288.854 557.9C288.507 558.033 288.077 558.1 287.564 558.1C287.184 558.1 286.857 558.073 286.584 558.02C286.31 557.973 286.037 557.893 285.764 557.78V556.55C286.057 556.683 286.374 556.793 286.714 556.88C287.054 556.967 287.354 557.01 287.614 557.01C287.907 557.01 288.114 556.967 288.234 556.88C288.36 556.793 288.424 556.68 288.424 556.54C288.424 556.447 288.397 556.363 288.344 556.29C288.297 556.217 288.19 556.133 288.024 556.04C287.857 555.947 287.597 555.827 287.244 555.68C286.904 555.533 286.624 555.39 286.404 555.25C286.184 555.103 286.02 554.93 285.914 554.73C285.807 554.523 285.754 554.267 285.754 553.96C285.754 553.453 285.95 553.073 286.344 552.82C286.737 552.567 287.26 552.44 287.914 552.44C288.254 552.44 288.577 552.473 288.884 552.54C289.19 552.607 289.507 552.717 289.834 552.87L289.384 553.94C289.204 553.86 289.03 553.79 288.864 553.73C288.697 553.67 288.534 553.623 288.374 553.59C288.22 553.557 288.06 553.54 287.894 553.54C287.674 553.54 287.507 553.57 287.394 553.63C287.287 553.69 287.234 553.78 287.234 553.9C287.234 553.987 287.26 554.067 287.314 554.14C287.374 554.207 287.484 554.28 287.644 554.36C287.81 554.44 288.054 554.547 288.374 554.68C288.687 554.807 288.957 554.94 289.184 555.08C289.41 555.213 289.584 555.383 289.704 555.59C289.83 555.79 289.894 556.053 289.894 556.38Z" fill="#7277E2"/>
<path d="M254 529.25C254 525.714 254 523.947 255.098 522.848C256.197 521.75 257.964 521.75 261.5 521.75H266.5C270.036 521.75 271.803 521.75 272.902 522.848C274 523.947 274 525.714 274 529.25V537.785C274 541.139 274 542.816 272.945 543.329C271.889 543.842 270.571 542.805 267.933 540.733L267.089 540.07C265.606 538.905 264.865 538.322 264 538.322C263.135 538.322 262.394 538.905 260.911 540.07L260.067 540.733C257.429 542.805 256.111 543.842 255.055 543.329C254 542.816 254 541.139 254 537.785V529.25Z" fill="white" stroke="#7277E2" stroke-width="1.4"/>
<path d="M363.604 558L363.084 556.3H360.484L359.964 558H358.334L360.854 550.83H362.704L365.234 558H363.604ZM362.204 553.37C362.171 553.257 362.127 553.113 362.074 552.94C362.021 552.767 361.967 552.59 361.914 552.41C361.861 552.23 361.817 552.073 361.784 551.94C361.751 552.073 361.704 552.24 361.644 552.44C361.591 552.633 361.537 552.82 361.484 553C361.437 553.173 361.401 553.297 361.374 553.37L360.864 555.03H362.724L362.204 553.37ZM367.508 552.17C367.508 552.377 367.502 552.58 367.488 552.78C367.475 552.98 367.462 553.137 367.448 553.25H367.508C367.655 553.023 367.852 552.833 368.098 552.68C368.345 552.52 368.665 552.44 369.058 552.44C369.672 552.44 370.168 552.68 370.548 553.16C370.928 553.633 371.118 554.333 371.118 555.26C371.118 555.88 371.028 556.403 370.848 556.83C370.675 557.25 370.432 557.567 370.118 557.78C369.805 557.993 369.438 558.1 369.018 558.1C368.618 558.1 368.302 558.03 368.068 557.89C367.842 557.743 367.655 557.58 367.508 557.4H367.408L367.158 558H366.018V550.4H367.508V552.17ZM368.578 553.63C368.318 553.63 368.112 553.683 367.958 553.79C367.805 553.897 367.692 554.06 367.618 554.28C367.552 554.493 367.515 554.763 367.508 555.09V555.25C367.508 555.777 367.585 556.183 367.738 556.47C367.898 556.75 368.185 556.89 368.598 556.89C368.905 556.89 369.148 556.75 369.328 556.47C369.508 556.183 369.598 555.773 369.598 555.24C369.598 554.707 369.505 554.307 369.318 554.04C369.138 553.767 368.892 553.63 368.578 553.63ZM377.306 555.26C377.306 555.713 377.243 556.117 377.116 556.47C376.996 556.823 376.82 557.123 376.586 557.37C376.36 557.61 376.083 557.793 375.756 557.92C375.43 558.04 375.06 558.1 374.646 558.1C374.266 558.1 373.913 558.04 373.586 557.92C373.266 557.793 372.99 557.61 372.756 557.37C372.523 557.123 372.34 556.823 372.206 556.47C372.08 556.117 372.016 555.713 372.016 555.26C372.016 554.653 372.123 554.143 372.336 553.73C372.55 553.31 372.856 552.99 373.256 552.77C373.656 552.55 374.13 552.44 374.676 552.44C375.19 552.44 375.643 552.55 376.036 552.77C376.43 552.99 376.74 553.31 376.966 553.73C377.193 554.143 377.306 554.653 377.306 555.26ZM373.536 555.26C373.536 555.62 373.573 555.923 373.646 556.17C373.726 556.41 373.85 556.593 374.016 556.72C374.183 556.84 374.4 556.9 374.666 556.9C374.933 556.9 375.146 556.84 375.306 556.72C375.473 556.593 375.593 556.41 375.666 556.17C375.746 555.923 375.786 555.62 375.786 555.26C375.786 554.9 375.746 554.6 375.666 554.36C375.593 554.12 375.473 553.94 375.306 553.82C375.14 553.7 374.923 553.64 374.656 553.64C374.263 553.64 373.976 553.777 373.796 554.05C373.623 554.317 373.536 554.72 373.536 555.26ZM383.548 552.54V558H382.408L382.208 557.3H382.128C382.014 557.487 381.868 557.64 381.688 557.76C381.514 557.873 381.321 557.957 381.108 558.01C380.894 558.07 380.674 558.1 380.448 558.1C380.061 558.1 379.721 558.03 379.428 557.89C379.134 557.75 378.908 557.533 378.748 557.24C378.588 556.947 378.508 556.567 378.508 556.1V552.54H379.998V555.73C379.998 556.117 380.068 556.41 380.208 556.61C380.348 556.81 380.571 556.91 380.878 556.91C381.184 556.91 381.421 556.84 381.588 556.7C381.761 556.56 381.881 556.357 381.948 556.09C382.021 555.823 382.058 555.497 382.058 555.11V552.54H383.548ZM387.41 556.91C387.577 556.91 387.737 556.893 387.89 556.86C388.043 556.827 388.197 556.787 388.35 556.74V557.85C388.19 557.917 387.99 557.973 387.75 558.02C387.517 558.073 387.26 558.1 386.98 558.1C386.653 558.1 386.36 558.047 386.1 557.94C385.847 557.833 385.643 557.65 385.49 557.39C385.343 557.123 385.27 556.757 385.27 556.29V553.66H384.56V553.03L385.38 552.53L385.81 551.38H386.76V552.54H388.29V553.66H386.76V556.29C386.76 556.497 386.82 556.653 386.94 556.76C387.06 556.86 387.217 556.91 387.41 556.91Z" fill="#7277E2"/>
<path d="M374 521.427L376.43 528.906L376.598 529.424H377.143H385.007L378.645 534.046L378.204 534.366L378.373 534.884L380.802 542.363L374.441 537.741L374 537.42L373.559 537.741L367.198 542.363L369.627 534.884L369.796 534.366L369.355 534.046L362.993 529.424H370.857H371.402L371.57 528.906L374 521.427Z" fill="white" stroke="#7277E2" stroke-width="1.5"/>
<path d="M145.965 558H144.455V554.92H141.625V558H140.115V550.86H141.625V553.66H144.455V550.86H145.965V558ZM152.601 555.26C152.601 555.713 152.538 556.117 152.411 556.47C152.291 556.823 152.115 557.123 151.881 557.37C151.655 557.61 151.378 557.793 151.051 557.92C150.725 558.04 150.355 558.1 149.941 558.1C149.561 558.1 149.208 558.04 148.881 557.92C148.561 557.793 148.285 557.61 148.051 557.37C147.818 557.123 147.635 556.823 147.501 556.47C147.375 556.117 147.311 555.713 147.311 555.26C147.311 554.653 147.418 554.143 147.631 553.73C147.845 553.31 148.151 552.99 148.551 552.77C148.951 552.55 149.425 552.44 149.971 552.44C150.485 552.44 150.938 552.55 151.331 552.77C151.725 552.99 152.035 553.31 152.261 553.73C152.488 554.143 152.601 554.653 152.601 555.26ZM148.831 555.26C148.831 555.62 148.868 555.923 148.941 556.17C149.021 556.41 149.145 556.593 149.311 556.72C149.478 556.84 149.695 556.9 149.961 556.9C150.228 556.9 150.441 556.84 150.601 556.72C150.768 556.593 150.888 556.41 150.961 556.17C151.041 555.923 151.081 555.62 151.081 555.26C151.081 554.9 151.041 554.6 150.961 554.36C150.888 554.12 150.768 553.94 150.601 553.82C150.435 553.7 150.218 553.64 149.951 553.64C149.558 553.64 149.271 553.777 149.091 554.05C148.918 554.317 148.831 554.72 148.831 555.26ZM160.243 552.44C160.863 552.44 161.329 552.6 161.643 552.92C161.963 553.233 162.123 553.74 162.123 554.44V558H160.633V554.81C160.633 554.417 160.566 554.123 160.433 553.93C160.299 553.73 160.093 553.63 159.813 553.63C159.419 553.63 159.139 553.77 158.973 554.05C158.806 554.33 158.723 554.733 158.723 555.26V558H157.233V554.81C157.233 554.55 157.203 554.333 157.143 554.16C157.083 553.987 156.993 553.857 156.873 553.77C156.753 553.677 156.599 553.63 156.413 553.63C156.139 553.63 155.923 553.7 155.763 553.84C155.603 553.98 155.489 554.183 155.423 554.45C155.356 554.717 155.323 555.043 155.323 555.43V558H153.833V552.54H154.973L155.173 553.24H155.253C155.366 553.053 155.506 552.903 155.673 552.79C155.839 552.67 156.023 552.583 156.223 552.53C156.429 552.47 156.636 552.44 156.843 552.44C157.243 552.44 157.583 552.507 157.863 552.64C158.143 552.767 158.356 552.967 158.503 553.24H158.633C158.799 552.96 159.029 552.757 159.323 552.63C159.623 552.503 159.929 552.44 160.243 552.44ZM165.907 552.44C166.414 552.44 166.847 552.537 167.207 552.73C167.574 552.923 167.857 553.203 168.057 553.57C168.257 553.937 168.357 554.387 168.357 554.92V555.64H164.837C164.85 556.06 164.974 556.39 165.207 556.63C165.447 556.87 165.777 556.99 166.197 556.99C166.55 556.99 166.87 556.957 167.157 556.89C167.444 556.817 167.74 556.707 168.047 556.56V557.71C167.78 557.843 167.497 557.94 167.197 558C166.904 558.067 166.547 558.1 166.127 558.1C165.58 558.1 165.097 558 164.677 557.8C164.257 557.593 163.927 557.283 163.687 556.87C163.447 556.457 163.327 555.937 163.327 555.31C163.327 554.67 163.434 554.14 163.647 553.72C163.867 553.293 164.17 552.973 164.557 552.76C164.944 552.547 165.394 552.44 165.907 552.44ZM165.917 553.5C165.63 553.5 165.39 553.593 165.197 553.78C165.01 553.967 164.9 554.257 164.867 554.65H166.957C166.957 554.43 166.917 554.233 166.837 554.06C166.764 553.887 166.65 553.75 166.497 553.65C166.344 553.55 166.15 553.5 165.917 553.5Z" fill="#333AD5" fill-opacity="0.69"/>
<path d="M148.05 524C144.709 524 142 526.869 142 530.409C142 536.818 149.15 542.645 153 544C156.85 542.645 164 536.818 164 530.409C164 526.869 161.291 524 157.95 524C155.904 524 154.095 525.076 153 526.723C151.905 525.076 150.096 524 148.05 524Z" fill="white" stroke="#7277E2" stroke-width="2" stroke-linecap="round" stroke-linejoin="round"/>
</g>
</g>
<g clip-path="url(#clip3_521_2689)">
<rect x="201" y="566" width="134" height="5" rx="2.5" fill="black"/>
</g>
<path opacity="0.35" d="M418.667 17.833H435.333C436.53 17.833 437.5 18.8031 437.5 19.9997V25.9997C437.5 27.1963 436.53 28.1663 435.333 28.1663H418.667C417.47 28.1663 416.5 27.1963 416.5 25.9997V19.9997C416.5 18.8031 417.47 17.833 418.667 17.833Z" stroke="#222222"/>
<path opacity="0.4" d="M439 20.9995V24.9995C439.805 24.6607 440.328 23.8726 440.328 22.9995C440.328 22.1264 439.805 21.3383 439 20.9995" fill="#222222"/>
<path d="M418 20.6663C418 19.93 418.597 19.333 419.333 19.333H434.667C435.403 19.333 436 19.93 436 20.6663V25.333C436 26.0694 435.403 26.6663 434.667 26.6663H419.333C418.597 26.6663 418 26.0694 418 25.333V20.6663Z" fill="#222222"/>
<path fill-rule="evenodd" clip-rule="evenodd" d="M403.33 19.6079C405.546 19.608 407.677 20.4594 409.283 21.9862C409.404 22.1041 409.598 22.1026 409.717 21.9829L410.873 20.8162C410.933 20.7555 410.967 20.6733 410.966 20.5877C410.966 20.5021 410.931 20.4202 410.87 20.3602C406.655 16.3207 400.005 16.3207 395.79 20.3602C395.729 20.4202 395.694 20.502 395.694 20.5876C395.693 20.6732 395.727 20.7555 395.787 20.8162L396.943 21.9829C397.062 22.1028 397.256 22.1043 397.377 21.9862C398.983 20.4593 401.114 19.6079 403.33 19.6079ZM403.33 23.4036C404.548 23.4035 405.722 23.856 406.624 24.6732C406.746 24.7892 406.939 24.7867 407.058 24.6676L408.212 23.5009C408.273 23.4397 408.307 23.3567 408.306 23.2704C408.305 23.1842 408.27 23.1018 408.208 23.0419C405.459 20.4855 401.204 20.4855 398.455 23.0419C398.393 23.1018 398.358 23.1842 398.357 23.2705C398.356 23.3568 398.39 23.4398 398.451 23.5009L399.605 24.6676C399.724 24.7867 399.917 24.7892 400.039 24.6732C400.941 23.8566 402.114 23.4041 403.33 23.4036ZM405.643 25.9574C405.645 26.0439 405.611 26.1273 405.549 26.1879L403.552 28.2036C403.493 28.2628 403.414 28.2961 403.33 28.2961C403.247 28.2961 403.167 28.2628 403.109 28.2036L401.111 26.1879C401.049 26.1272 401.015 26.0438 401.017 25.9573C401.019 25.8708 401.056 25.7889 401.121 25.7309C402.396 24.652 404.264 24.652 405.54 25.7309C405.604 25.7889 405.642 25.8709 405.643 25.9574Z" fill="#222222"/>
<path fill-rule="evenodd" clip-rule="evenodd" d="M389.667 17.6665H388.667C388.114 17.6665 387.667 18.1142 387.667 18.6665V27.3332C387.667 27.8855 388.114 28.3332 388.667 28.3332H389.667C390.219 28.3332 390.667 27.8855 390.667 27.3332V18.6665C390.667 18.1142 390.219 17.6665 389.667 17.6665ZM384 19.9998H385C385.552 19.9998 386 20.4476 386 20.9998V27.3332C386 27.8855 385.552 28.3332 385 28.3332H384C383.448 28.3332 383 27.8855 383 27.3332V20.9998C383 20.4476 383.448 19.9998 384 19.9998ZM380.333 22.3332H379.333C378.781 22.3332 378.333 22.7809 378.333 23.3332V27.3332C378.333 27.8855 378.781 28.3332 379.333 28.3332H380.333C380.886 28.3332 381.333 27.8855 381.333 27.3332V23.3332C381.333 22.7809 380.886 22.3332 380.333 22.3332ZM375.667 24.3332H374.667C374.114 24.3332 373.667 24.7809 373.667 25.3332V27.3332C373.667 27.8855 374.114 28.3332 374.667 28.3332H375.667C376.219 28.3332 376.667 27.8855 376.667 27.3332V25.3332C376.667 24.7809 376.219 24.3332 375.667 24.3332Z" fill="#222222"/>
<g opacity="0.11">
<path d="M117.321 28.2563C120.009 28.2563 121.605 26.1543 121.605 22.5947C121.605 21.2544 121.349 20.1265 120.858 19.2549C120.148 17.8999 118.925 17.1675 117.379 17.1675C115.079 17.1675 113.453 18.7129 113.453 20.8809C113.453 22.917 114.918 24.3965 116.932 24.3965C118.17 24.3965 119.174 23.8179 119.672 22.8145H119.694C119.694 22.8145 119.723 22.8145 119.73 22.8145C119.745 22.8145 119.796 22.8145 119.796 22.8145C119.796 25.2314 118.881 26.6743 117.335 26.6743C116.427 26.6743 115.724 26.1763 115.482 25.3779H113.6C113.915 27.1138 115.387 28.2563 117.321 28.2563ZM117.387 22.895C116.171 22.895 115.307 22.0308 115.307 20.8223C115.307 19.6431 116.215 18.7422 117.394 18.7422C118.573 18.7422 119.481 19.6577 119.481 20.8516C119.481 22.0308 118.595 22.895 117.387 22.895Z" fill="black"/>
<path d="M124.696 28.1538C125.392 28.1538 125.868 27.6558 125.868 26.9966C125.868 26.3301 125.392 25.8394 124.696 25.8394C124.008 25.8394 123.525 26.3301 123.525 26.9966C123.525 27.6558 124.008 28.1538 124.696 28.1538ZM124.696 22.6606C125.392 22.6606 125.868 22.1699 125.868 21.5107C125.868 20.8442 125.392 20.3535 124.696 20.3535C124.008 20.3535 123.525 20.8442 123.525 21.5107C123.525 22.1699 124.008 22.6606 124.696 22.6606Z" fill="black"/>
<path d="M132.724 28H134.533V26.0298H135.961V24.4331H134.533V17.4312H131.867C129.999 20.2437 128.513 22.5947 127.561 24.3452V26.0298H132.724V28ZM129.311 24.3672C130.541 22.1992 131.64 20.4634 132.651 18.9692H132.753V24.4771H129.311V24.3672Z" fill="black"/>
<path d="M139.99 28H141.88V17.4312H139.997L137.236 19.3647V21.1812L139.865 19.3354H139.99V28Z" fill="black"/>
</g>
<path d="M113.908 306V301.478L109.777 294.763L111.137 293.947L114.775 299.982L118.345 294.015L119.62 294.763L115.523 301.478V306H113.908ZM123.755 306.204C122.916 306.204 122.163 306.011 121.494 305.626C120.825 305.229 120.298 304.685 119.913 303.994C119.539 303.291 119.352 302.487 119.352 301.58C119.352 300.628 119.545 299.806 119.93 299.115C120.315 298.424 120.842 297.891 121.511 297.517C122.18 297.143 122.928 296.956 123.755 296.956C124.582 296.956 125.325 297.143 125.982 297.517C126.651 297.891 127.178 298.424 127.563 299.115C127.96 299.795 128.158 300.605 128.158 301.546C128.158 302.487 127.965 303.308 127.58 304.011C127.195 304.702 126.668 305.241 125.999 305.626C125.342 306.011 124.594 306.204 123.755 306.204ZM123.755 304.844C124.65 304.844 125.347 304.544 125.846 303.943C126.345 303.331 126.594 302.543 126.594 301.58C126.594 300.991 126.469 300.452 126.22 299.965C125.971 299.466 125.631 299.07 125.2 298.775C124.781 298.469 124.299 298.316 123.755 298.316C122.86 298.316 122.163 298.611 121.664 299.2C121.165 299.789 120.916 300.571 120.916 301.546C120.916 302.135 121.041 302.685 121.29 303.195C121.539 303.694 121.874 304.096 122.293 304.402C122.724 304.697 123.211 304.844 123.755 304.844ZM133.082 306.204C132.572 306.204 132.09 306.096 131.637 305.881C131.184 305.666 130.815 305.32 130.532 304.844C130.249 304.357 130.107 303.711 130.107 302.906V297.16H131.637V302.702C131.637 303.393 131.784 303.926 132.079 304.3C132.374 304.663 132.804 304.844 133.371 304.844C133.836 304.844 134.283 304.753 134.714 304.572C135.156 304.379 135.547 304.124 135.887 303.807V297.16H137.417V303.705C137.417 304.192 137.519 304.515 137.723 304.674C137.938 304.821 138.171 304.895 138.42 304.895L138.097 306.085C137.043 306.085 136.391 305.666 136.142 304.827C135.745 305.235 135.286 305.569 134.765 305.83C134.244 306.079 133.683 306.204 133.082 306.204ZM140.452 306V297.16H141.931V299.081C142.078 298.707 142.276 298.361 142.526 298.044C142.775 297.715 143.087 297.455 143.461 297.262C143.835 297.058 144.271 296.956 144.77 296.956C144.94 296.956 145.11 296.967 145.28 296.99C145.45 297.001 145.591 297.024 145.705 297.058L145.246 298.639C145.03 298.548 144.775 298.503 144.481 298.503C144.061 298.503 143.659 298.622 143.274 298.86C142.9 299.098 142.588 299.466 142.339 299.965C142.101 300.464 141.982 301.098 141.982 301.869V306H140.452ZM152.662 309.74V299.421C152.662 299.036 152.565 298.764 152.373 298.605C152.191 298.435 151.953 298.35 151.659 298.35L151.982 297.16C153.024 297.16 153.676 297.574 153.937 298.401C154.05 298.231 154.231 298.033 154.481 297.806C154.741 297.579 155.059 297.381 155.433 297.211C155.818 297.041 156.254 296.956 156.742 296.956C157.422 296.956 158.056 297.137 158.646 297.5C159.246 297.851 159.728 298.367 160.091 299.047C160.453 299.716 160.635 300.532 160.635 301.495C160.635 302.436 160.453 303.263 160.091 303.977C159.728 304.68 159.252 305.229 158.663 305.626C158.085 306.011 157.456 306.204 156.776 306.204C156.254 306.204 155.767 306.102 155.314 305.898C154.86 305.683 154.486 305.439 154.192 305.167V309.74H152.662ZM156.47 304.844C157.24 304.844 157.864 304.544 158.34 303.943C158.827 303.331 159.071 302.532 159.071 301.546C159.071 300.866 158.946 300.282 158.697 299.795C158.459 299.308 158.136 298.934 157.728 298.673C157.331 298.412 156.889 298.282 156.402 298.282C155.914 298.282 155.472 298.407 155.076 298.656C154.69 298.894 154.396 299.155 154.192 299.438V303.79C154.486 304.096 154.826 304.351 155.212 304.555C155.597 304.748 156.016 304.844 156.47 304.844ZM166.3 306.204C165.031 306.204 164.022 305.802 163.274 304.997C162.538 304.181 162.169 303.042 162.169 301.58C162.169 300.696 162.334 299.908 162.662 299.217C163.002 298.514 163.473 297.965 164.073 297.568C164.674 297.16 165.371 296.956 166.164 296.956C167.014 296.956 167.717 297.143 168.272 297.517C168.839 297.88 169.264 298.373 169.547 298.996C169.831 299.619 169.972 300.305 169.972 301.053C169.972 301.45 169.955 301.835 169.921 302.209H163.733C163.835 303.036 164.124 303.682 164.6 304.147C165.076 304.612 165.705 304.844 166.487 304.844C166.997 304.844 167.456 304.793 167.864 304.691C168.272 304.578 168.663 304.436 169.037 304.266L169.394 305.575C168.986 305.756 168.527 305.904 168.017 306.017C167.507 306.142 166.935 306.204 166.3 306.204ZM163.716 300.968H168.561C168.561 300.107 168.346 299.444 167.915 298.979C167.485 298.514 166.89 298.282 166.13 298.282C165.473 298.282 164.929 298.514 164.498 298.979C164.068 299.432 163.807 300.095 163.716 300.968ZM172.011 306V297.16H173.49V299.081C173.638 298.707 173.836 298.361 174.085 298.044C174.335 297.715 174.646 297.455 175.02 297.262C175.394 297.058 175.831 296.956 176.329 296.956C176.499 296.956 176.669 296.967 176.839 296.99C177.009 297.001 177.151 297.024 177.264 297.058L176.805 298.639C176.59 298.548 176.335 298.503 176.04 298.503C175.621 298.503 175.219 298.622 174.833 298.86C174.459 299.098 174.148 299.466 173.898 299.965C173.66 300.464 173.541 301.098 173.541 301.869V306H172.011ZM180.75 306.204C180.081 306.204 179.475 306.119 178.931 305.949C178.398 305.779 177.956 305.558 177.605 305.286L178.251 304.011C178.545 304.26 178.914 304.47 179.356 304.64C179.809 304.799 180.291 304.878 180.801 304.878C181.435 304.878 181.911 304.776 182.229 304.572C182.557 304.357 182.722 304.085 182.722 303.756C182.722 303.518 182.659 303.308 182.535 303.127C182.421 302.946 182.206 302.77 181.889 302.6C181.571 302.419 181.112 302.226 180.512 302.022C179.684 301.739 179.061 301.404 178.642 301.019C178.234 300.622 178.03 300.078 178.03 299.387C178.03 298.707 178.324 298.135 178.914 297.67C179.514 297.194 180.342 296.956 181.396 296.956C181.962 296.956 182.467 297.018 182.909 297.143C183.351 297.256 183.747 297.404 184.099 297.585L183.674 298.843C183.368 298.662 183.016 298.514 182.62 298.401C182.234 298.288 181.804 298.231 181.328 298.231C180.738 298.231 180.291 298.35 179.985 298.588C179.679 298.826 179.526 299.087 179.526 299.37C179.526 299.642 179.645 299.874 179.883 300.067C180.121 300.26 180.585 300.469 181.277 300.696C182.399 301.07 183.181 301.484 183.623 301.937C184.065 302.39 184.286 302.957 184.286 303.637C184.286 304.43 183.963 305.059 183.317 305.524C182.682 305.977 181.826 306.204 180.75 306.204ZM190.045 306.204C189.206 306.204 188.453 306.011 187.784 305.626C187.115 305.229 186.588 304.685 186.203 303.994C185.829 303.291 185.642 302.487 185.642 301.58C185.642 300.628 185.835 299.806 186.22 299.115C186.605 298.424 187.132 297.891 187.801 297.517C188.47 297.143 189.218 296.956 190.045 296.956C190.872 296.956 191.615 297.143 192.272 297.517C192.941 297.891 193.468 298.424 193.853 299.115C194.25 299.795 194.448 300.605 194.448 301.546C194.448 302.487 194.255 303.308 193.87 304.011C193.485 304.702 192.958 305.241 192.289 305.626C191.632 306.011 190.884 306.204 190.045 306.204ZM190.045 304.844C190.94 304.844 191.637 304.544 192.136 303.943C192.635 303.331 192.884 302.543 192.884 301.58C192.884 300.991 192.759 300.452 192.51 299.965C192.261 299.466 191.921 299.07 191.49 298.775C191.071 298.469 190.589 298.316 190.045 298.316C189.15 298.316 188.453 298.611 187.954 299.2C187.455 299.789 187.206 300.571 187.206 301.546C187.206 302.135 187.331 302.685 187.58 303.195C187.829 303.694 188.164 304.096 188.583 304.402C189.014 304.697 189.501 304.844 190.045 304.844ZM196.482 306V297.16H197.961V298.639C198.278 298.163 198.681 297.766 199.168 297.449C199.667 297.12 200.256 296.956 200.936 296.956C201.933 296.956 202.676 297.256 203.163 297.857C203.662 298.458 203.911 299.251 203.911 300.237V306H202.381V300.407C202.381 299.772 202.228 299.262 201.922 298.877C201.627 298.492 201.214 298.299 200.681 298.299C200.16 298.299 199.667 298.486 199.202 298.86C198.737 299.223 198.341 299.653 198.012 300.152V306H196.482ZM209.926 306.204C209.189 306.204 208.52 306.017 207.92 305.643C207.319 305.269 206.837 304.742 206.475 304.062C206.123 303.371 205.948 302.56 205.948 301.631C205.948 300.747 206.123 299.954 206.475 299.251C206.837 298.548 207.33 297.993 207.954 297.585C208.588 297.166 209.314 296.956 210.13 296.956C210.64 296.956 211.099 297.047 211.507 297.228C211.926 297.398 212.289 297.613 212.595 297.874V297.16H213.989V303.858C213.989 304.289 214.091 304.572 214.295 304.708C214.51 304.833 214.742 304.895 214.992 304.895L214.669 306.085C213.581 306.085 212.923 305.643 212.697 304.759C212.436 305.122 212.079 305.456 211.626 305.762C211.184 306.057 210.617 306.204 209.926 306.204ZM210.266 304.844C210.696 304.844 211.104 304.742 211.49 304.538C211.875 304.323 212.198 304.056 212.459 303.739V298.996C212.153 298.781 211.813 298.611 211.439 298.486C211.076 298.35 210.691 298.282 210.283 298.282C209.739 298.282 209.257 298.424 208.838 298.707C208.43 298.979 208.107 299.364 207.869 299.863C207.631 300.35 207.512 300.923 207.512 301.58C207.512 302.215 207.631 302.781 207.869 303.28C208.107 303.767 208.435 304.153 208.855 304.436C209.274 304.708 209.744 304.844 210.266 304.844ZM219.721 306.204C219.199 306.204 218.729 306.108 218.31 305.915C217.89 305.711 217.556 305.388 217.307 304.946C217.069 304.504 216.95 303.932 216.95 303.229V293.42H218.48V303.076C218.48 303.688 218.604 304.141 218.854 304.436C219.114 304.731 219.471 304.878 219.925 304.878C220.14 304.878 220.35 304.855 220.554 304.81C220.769 304.753 220.95 304.691 221.098 304.623L221.472 305.864C221.268 305.955 221.013 306.034 220.707 306.102C220.412 306.17 220.083 306.204 219.721 306.204ZM222.912 306V297.16H224.442V306H222.912ZM223.677 295.647C223.382 295.647 223.127 295.539 222.912 295.324C222.708 295.109 222.606 294.859 222.606 294.576C222.606 294.247 222.702 293.987 222.895 293.794C223.087 293.601 223.348 293.505 223.677 293.505C223.971 293.505 224.221 293.613 224.425 293.828C224.64 294.032 224.748 294.281 224.748 294.576C224.748 294.893 224.651 295.154 224.459 295.358C224.266 295.551 224.005 295.647 223.677 295.647ZM226.397 306V304.793L231.276 298.486H226.499V297.16H233.146V298.333L228.284 304.64H233.231V306H226.397ZM238.55 306.204C237.281 306.204 236.272 305.802 235.524 304.997C234.788 304.181 234.419 303.042 234.419 301.58C234.419 300.696 234.584 299.908 234.912 299.217C235.252 298.514 235.723 297.965 236.323 297.568C236.924 297.16 237.621 296.956 238.414 296.956C239.264 296.956 239.967 297.143 240.522 297.517C241.089 297.88 241.514 298.373 241.797 298.996C242.081 299.619 242.222 300.305 242.222 301.053C242.222 301.45 242.205 301.835 242.171 302.209H235.983C236.085 303.036 236.374 303.682 236.85 304.147C237.326 304.612 237.955 304.844 238.737 304.844C239.247 304.844 239.706 304.793 240.114 304.691C240.522 304.578 240.913 304.436 241.287 304.266L241.644 305.575C241.236 305.756 240.777 305.904 240.267 306.017C239.757 306.142 239.185 306.204 238.55 306.204ZM235.966 300.968H240.811C240.811 300.107 240.596 299.444 240.165 298.979C239.735 298.514 239.14 298.282 238.38 298.282C237.723 298.282 237.179 298.514 236.748 298.979C236.318 299.432 236.057 300.095 235.966 300.968ZM247.61 306.204C246.885 306.204 246.222 306.017 245.621 305.643C245.021 305.269 244.545 304.742 244.193 304.062C243.842 303.371 243.666 302.56 243.666 301.631C243.666 300.736 243.842 299.937 244.193 299.234C244.556 298.531 245.032 297.976 245.621 297.568C246.222 297.16 246.879 296.956 247.593 296.956C248.183 296.956 248.687 297.075 249.106 297.313C249.537 297.551 249.871 297.795 250.109 298.044V293.42H251.639V303.858C251.639 304.289 251.741 304.572 251.945 304.708C252.161 304.833 252.393 304.895 252.642 304.895L252.319 306.085C251.243 306.085 250.585 305.654 250.347 304.793C250.098 305.144 249.747 305.467 249.293 305.762C248.851 306.057 248.29 306.204 247.61 306.204ZM247.95 304.844C248.37 304.844 248.766 304.748 249.14 304.555C249.526 304.351 249.849 304.09 250.109 303.773V299.387C249.894 299.115 249.594 298.866 249.208 298.639C248.823 298.401 248.398 298.282 247.933 298.282C247.389 298.282 246.913 298.429 246.505 298.724C246.097 299.019 245.78 299.415 245.553 299.914C245.338 300.401 245.23 300.957 245.23 301.58C245.23 302.203 245.349 302.764 245.587 303.263C245.825 303.75 246.148 304.136 246.556 304.419C246.976 304.702 247.44 304.844 247.95 304.844ZM259.784 306V293.42H261.314V298.571C261.631 298.106 262.033 297.721 262.521 297.415C263.008 297.109 263.58 296.956 264.238 296.956C265.235 296.956 265.977 297.256 266.465 297.857C266.963 298.458 267.213 299.251 267.213 300.237V306H265.683V300.407C265.683 299.772 265.535 299.262 265.241 298.877C264.946 298.492 264.532 298.299 264 298.299C263.478 298.299 262.98 298.486 262.504 298.86C262.039 299.223 261.642 299.653 261.314 300.152V306H259.784ZM273.227 306.204C272.491 306.204 271.822 306.017 271.221 305.643C270.621 305.269 270.139 304.742 269.776 304.062C269.425 303.371 269.249 302.56 269.249 301.631C269.249 300.747 269.425 299.954 269.776 299.251C270.139 298.548 270.632 297.993 271.255 297.585C271.89 297.166 272.615 296.956 273.431 296.956C273.941 296.956 274.4 297.047 274.808 297.228C275.228 297.398 275.59 297.613 275.896 297.874V297.16H277.29V303.858C277.29 304.289 277.392 304.572 277.596 304.708C277.812 304.833 278.044 304.895 278.293 304.895L277.97 306.085C276.882 306.085 276.225 305.643 275.998 304.759C275.738 305.122 275.381 305.456 274.927 305.762C274.485 306.057 273.919 306.204 273.227 306.204ZM273.567 304.844C273.998 304.844 274.406 304.742 274.791 304.538C275.177 304.323 275.5 304.056 275.76 303.739V298.996C275.454 298.781 275.114 298.611 274.74 298.486C274.378 298.35 273.992 298.282 273.584 298.282C273.04 298.282 272.559 298.424 272.139 298.707C271.731 298.979 271.408 299.364 271.17 299.863C270.932 300.35 270.813 300.923 270.813 301.58C270.813 302.215 270.932 302.781 271.17 303.28C271.408 303.767 271.737 304.153 272.156 304.436C272.576 304.708 273.046 304.844 273.567 304.844ZM280.337 306V297.16H281.816V298.639C282.133 298.163 282.535 297.766 283.023 297.449C283.521 297.12 284.111 296.956 284.791 296.956C285.788 296.956 286.53 297.256 287.018 297.857C287.516 298.458 287.766 299.251 287.766 300.237V306H286.236V300.407C286.236 299.772 286.083 299.262 285.777 298.877C285.482 298.492 285.068 298.299 284.536 298.299C284.014 298.299 283.521 298.486 283.057 298.86C282.592 299.223 282.195 299.653 281.867 300.152V306H280.337ZM293.644 309.944C293.123 309.944 292.613 309.882 292.114 309.757C291.627 309.632 291.19 309.445 290.805 309.196L291.366 307.87C291.638 308.085 291.955 308.261 292.318 308.397C292.681 308.544 293.123 308.618 293.644 308.618C294.449 308.618 295.078 308.403 295.531 307.972C295.996 307.553 296.228 306.878 296.228 305.949V304.861C296.001 305.133 295.673 305.394 295.242 305.643C294.823 305.881 294.318 306 293.729 306C293.06 306 292.426 305.83 291.825 305.49C291.224 305.139 290.737 304.629 290.363 303.96C289.989 303.291 289.802 302.487 289.802 301.546C289.802 300.662 289.983 299.874 290.346 299.183C290.72 298.492 291.219 297.948 291.842 297.551C292.465 297.154 293.151 296.956 293.899 296.956C294.398 296.956 294.851 297.041 295.259 297.211C295.667 297.381 296.018 297.591 296.313 297.84V297.16H297.707V305.796C297.707 306.771 297.537 307.564 297.197 308.176C296.857 308.788 296.381 309.236 295.769 309.519C295.168 309.802 294.46 309.944 293.644 309.944ZM294.069 304.64C294.522 304.64 294.93 304.538 295.293 304.334C295.656 304.13 295.95 303.892 296.177 303.62V298.996C295.928 298.815 295.627 298.65 295.276 298.503C294.925 298.356 294.517 298.282 294.052 298.282C293.587 298.282 293.151 298.407 292.743 298.656C292.335 298.905 292.001 299.268 291.74 299.744C291.491 300.209 291.366 300.781 291.366 301.461C291.366 302.107 291.491 302.668 291.74 303.144C292.001 303.62 292.335 303.988 292.743 304.249C293.151 304.51 293.593 304.64 294.069 304.64ZM304.064 306.204C303.226 306.204 302.472 306.011 301.803 305.626C301.135 305.229 300.608 304.685 300.222 303.994C299.848 303.291 299.661 302.487 299.661 301.58C299.661 300.628 299.854 299.806 300.239 299.115C300.625 298.424 301.152 297.891 301.82 297.517C302.489 297.143 303.237 296.956 304.064 296.956C304.892 296.956 305.634 297.143 306.291 297.517C306.96 297.891 307.487 298.424 307.872 299.115C308.269 299.795 308.467 300.605 308.467 301.546C308.467 302.487 308.275 303.308 307.889 304.011C307.504 304.702 306.977 305.241 306.308 305.626C305.651 306.011 304.903 306.204 304.064 306.204ZM304.064 304.844C304.96 304.844 305.657 304.544 306.155 303.943C306.654 303.331 306.903 302.543 306.903 301.58C306.903 300.991 306.779 300.452 306.529 299.965C306.28 299.466 305.94 299.07 305.509 298.775C305.09 298.469 304.608 298.316 304.064 298.316C303.169 298.316 302.472 298.611 301.973 299.2C301.475 299.789 301.225 300.571 301.225 301.546C301.225 302.135 301.35 302.685 301.599 303.195C301.849 303.694 302.183 304.096 302.602 304.402C303.033 304.697 303.52 304.844 304.064 304.844ZM313.392 306.204C312.882 306.204 312.4 306.096 311.947 305.881C311.493 305.666 311.125 305.32 310.842 304.844C310.558 304.357 310.417 303.711 310.417 302.906V297.16H311.947V302.702C311.947 303.393 312.094 303.926 312.389 304.3C312.683 304.663 313.114 304.844 313.681 304.844C314.145 304.844 314.593 304.753 315.024 304.572C315.466 304.379 315.857 304.124 316.197 303.807V297.16H317.727V303.705C317.727 304.192 317.829 304.515 318.033 304.674C318.248 304.821 318.48 304.895 318.73 304.895L318.407 306.085C317.353 306.085 316.701 305.666 316.452 304.827C316.055 305.235 315.596 305.569 315.075 305.83C314.553 306.079 313.992 306.204 313.392 306.204ZM323.855 306.204C323.005 306.204 322.331 305.926 321.832 305.371C321.345 304.804 321.101 304 321.101 302.957V298.809H319.571V297.483H321.135L321.458 294.695H322.631V297.483H325.079V298.809H322.631V303.076C322.631 303.733 322.767 304.192 323.039 304.453C323.323 304.714 323.657 304.844 324.042 304.844C324.326 304.844 324.592 304.799 324.841 304.708C325.102 304.617 325.34 304.51 325.555 304.385L325.98 305.609C325.754 305.745 325.448 305.875 325.062 306C324.677 306.136 324.275 306.204 323.855 306.204ZM334.995 306.204C334.326 306.204 333.72 306.119 333.176 305.949C332.643 305.779 332.201 305.558 331.85 305.286L332.496 304.011C332.791 304.26 333.159 304.47 333.601 304.64C334.054 304.799 334.536 304.878 335.046 304.878C335.681 304.878 336.157 304.776 336.474 304.572C336.803 304.357 336.967 304.085 336.967 303.756C336.967 303.518 336.905 303.308 336.78 303.127C336.667 302.946 336.451 302.77 336.134 302.6C335.817 302.419 335.358 302.226 334.757 302.022C333.93 301.739 333.306 301.404 332.887 301.019C332.479 300.622 332.275 300.078 332.275 299.387C332.275 298.707 332.57 298.135 333.159 297.67C333.76 297.194 334.587 296.956 335.641 296.956C336.208 296.956 336.712 297.018 337.154 297.143C337.596 297.256 337.993 297.404 338.344 297.585L337.919 298.843C337.613 298.662 337.262 298.514 336.865 298.401C336.48 298.288 336.049 298.231 335.573 298.231C334.984 298.231 334.536 298.35 334.23 298.588C333.924 298.826 333.771 299.087 333.771 299.37C333.771 299.642 333.89 299.874 334.128 300.067C334.366 300.26 334.831 300.469 335.522 300.696C336.644 301.07 337.426 301.484 337.868 301.937C338.31 302.39 338.531 302.957 338.531 303.637C338.531 304.43 338.208 305.059 337.562 305.524C336.927 305.977 336.072 306.204 334.995 306.204ZM344.137 306.204C343.298 306.204 342.562 306.011 341.927 305.626C341.304 305.229 340.822 304.685 340.482 303.994C340.142 303.291 339.972 302.487 339.972 301.58C339.972 300.73 340.142 299.954 340.482 299.251C340.833 298.548 341.332 297.993 341.978 297.585C342.624 297.166 343.383 296.956 344.256 296.956C344.755 296.956 345.191 297.001 345.565 297.092C345.95 297.183 346.319 297.313 346.67 297.483L346.211 298.775C345.894 298.616 345.588 298.503 345.293 298.435C345.01 298.356 344.692 298.316 344.341 298.316C343.548 298.316 342.879 298.605 342.335 299.183C341.802 299.75 341.536 300.537 341.536 301.546C341.536 302.158 341.649 302.713 341.876 303.212C342.103 303.711 342.414 304.107 342.811 304.402C343.219 304.697 343.695 304.844 344.239 304.844C344.67 304.844 345.038 304.799 345.344 304.708C345.65 304.606 345.979 304.464 346.33 304.283L346.806 305.575C346.455 305.768 346.058 305.921 345.616 306.034C345.185 306.147 344.692 306.204 344.137 306.204ZM348.586 306V293.42H350.116V298.571C350.433 298.106 350.835 297.721 351.323 297.415C351.81 297.109 352.382 296.956 353.04 296.956C354.037 296.956 354.779 297.256 355.267 297.857C355.765 298.458 356.015 299.251 356.015 300.237V306H354.485V300.407C354.485 299.772 354.337 299.262 354.043 298.877C353.748 298.492 353.334 298.299 352.802 298.299C352.28 298.299 351.782 298.486 351.306 298.86C350.841 299.223 350.444 299.653 350.116 300.152V306H348.586ZM362.182 306.204C360.913 306.204 359.904 305.802 359.156 304.997C358.419 304.181 358.051 303.042 358.051 301.58C358.051 300.696 358.215 299.908 358.544 299.217C358.884 298.514 359.354 297.965 359.955 297.568C360.556 297.16 361.253 296.956 362.046 296.956C362.896 296.956 363.599 297.143 364.154 297.517C364.721 297.88 365.146 298.373 365.429 298.996C365.712 299.619 365.854 300.305 365.854 301.053C365.854 301.45 365.837 301.835 365.803 302.209H359.615C359.717 303.036 360.006 303.682 360.482 304.147C360.958 304.612 361.587 304.844 362.369 304.844C362.879 304.844 363.338 304.793 363.746 304.691C364.154 304.578 364.545 304.436 364.919 304.266L365.276 305.575C364.868 305.756 364.409 305.904 363.899 306.017C363.389 306.142 362.817 306.204 362.182 306.204ZM359.598 300.968H364.443C364.443 300.107 364.228 299.444 363.797 298.979C363.366 298.514 362.771 298.282 362.012 298.282C361.355 298.282 360.811 298.514 360.38 298.979C359.949 299.432 359.689 300.095 359.598 300.968ZM371.242 306.204C370.517 306.204 369.854 306.017 369.253 305.643C368.653 305.269 368.177 304.742 367.825 304.062C367.474 303.371 367.298 302.56 367.298 301.631C367.298 300.736 367.474 299.937 367.825 299.234C368.188 298.531 368.664 297.976 369.253 297.568C369.854 297.16 370.511 296.956 371.225 296.956C371.815 296.956 372.319 297.075 372.738 297.313C373.169 297.551 373.503 297.795 373.741 298.044V293.42H375.271V303.858C375.271 304.289 375.373 304.572 375.577 304.708C375.793 304.833 376.025 304.895 376.274 304.895L375.951 306.085C374.875 306.085 374.217 305.654 373.979 304.793C373.73 305.144 373.379 305.467 372.925 305.762C372.483 306.057 371.922 306.204 371.242 306.204ZM371.582 304.844C372.002 304.844 372.398 304.748 372.772 304.555C373.158 304.351 373.481 304.09 373.741 303.773V299.387C373.526 299.115 373.226 298.866 372.84 298.639C372.455 298.401 372.03 298.282 371.565 298.282C371.021 298.282 370.545 298.429 370.137 298.724C369.729 299.019 369.412 299.415 369.185 299.914C368.97 300.401 368.862 300.957 368.862 301.58C368.862 302.203 368.981 302.764 369.219 303.263C369.457 303.75 369.78 304.136 370.188 304.419C370.608 304.702 371.072 304.844 371.582 304.844ZM381.209 306.204C380.699 306.204 380.217 306.096 379.764 305.881C379.311 305.666 378.942 305.32 378.659 304.844C378.376 304.357 378.234 303.711 378.234 302.906V297.16H379.764V302.702C379.764 303.393 379.911 303.926 380.206 304.3C380.501 304.663 380.931 304.844 381.498 304.844C381.963 304.844 382.41 304.753 382.841 304.572C383.283 304.379 383.674 304.124 384.014 303.807V297.16H385.544V303.705C385.544 304.192 385.646 304.515 385.85 304.674C386.065 304.821 386.298 304.895 386.547 304.895L386.224 306.085C385.17 306.085 384.518 305.666 384.269 304.827C383.872 305.235 383.413 305.569 382.892 305.83C382.371 306.079 381.81 306.204 381.209 306.204ZM391.265 306.204C390.743 306.204 390.273 306.108 389.854 305.915C389.434 305.711 389.1 305.388 388.851 304.946C388.613 304.504 388.494 303.932 388.494 303.229V293.42H390.024V303.076C390.024 303.688 390.148 304.141 390.398 304.436C390.658 304.731 391.015 304.878 391.469 304.878C391.684 304.878 391.894 304.855 392.098 304.81C392.313 304.753 392.494 304.691 392.642 304.623L393.016 305.864C392.812 305.955 392.557 306.034 392.251 306.102C391.956 306.17 391.627 306.204 391.265 306.204ZM397.743 306.204C396.473 306.204 395.465 305.802 394.717 304.997C393.98 304.181 393.612 303.042 393.612 301.58C393.612 300.696 393.776 299.908 394.105 299.217C394.445 298.514 394.915 297.965 395.516 297.568C396.116 297.16 396.813 296.956 397.607 296.956C398.457 296.956 399.159 297.143 399.715 297.517C400.281 297.88 400.706 298.373 400.99 298.996C401.273 299.619 401.415 300.305 401.415 301.053C401.415 301.45 401.398 301.835 401.364 302.209H395.176C395.278 303.036 395.567 303.682 396.043 304.147C396.519 304.612 397.148 304.844 397.93 304.844C398.44 304.844 398.899 304.793 399.307 304.691C399.715 304.578 400.106 304.436 400.48 304.266L400.837 305.575C400.429 305.756 399.97 305.904 399.46 306.017C398.95 306.142 398.377 306.204 397.743 306.204ZM395.159 300.968H400.004C400.004 300.107 399.788 299.444 399.358 298.979C398.927 298.514 398.332 298.282 397.573 298.282C396.915 298.282 396.371 298.514 395.941 298.979C395.51 299.432 395.249 300.095 395.159 300.968ZM408.55 306V297.16H410.08V306H408.55ZM409.315 295.647C409.021 295.647 408.766 295.539 408.55 295.324C408.346 295.109 408.244 294.859 408.244 294.576C408.244 294.247 408.341 293.987 408.533 293.794C408.726 293.601 408.987 293.505 409.315 293.505C409.61 293.505 409.859 293.613 410.063 293.828C410.279 294.032 410.386 294.281 410.386 294.576C410.386 294.893 410.29 295.154 410.097 295.358C409.905 295.551 409.644 295.647 409.315 295.647ZM415.18 306.204C414.512 306.204 413.905 306.119 413.361 305.949C412.829 305.779 412.387 305.558 412.035 305.286L412.681 304.011C412.976 304.26 413.344 304.47 413.786 304.64C414.24 304.799 414.721 304.878 415.231 304.878C415.866 304.878 416.342 304.776 416.659 304.572C416.988 304.357 417.152 304.085 417.152 303.756C417.152 303.518 417.09 303.308 416.965 303.127C416.852 302.946 416.637 302.77 416.319 302.6C416.002 302.419 415.543 302.226 414.942 302.022C414.115 301.739 413.492 301.404 413.072 301.019C412.664 300.622 412.46 300.078 412.46 299.387C412.46 298.707 412.755 298.135 413.344 297.67C413.945 297.194 414.772 296.956 415.826 296.956C416.393 296.956 416.897 297.018 417.339 297.143C417.781 297.256 418.178 297.404 418.529 297.585L418.104 298.843C417.798 298.662 417.447 298.514 417.05 298.401C416.665 298.288 416.234 298.231 415.758 298.231C415.169 298.231 414.721 298.35 414.415 298.588C414.109 298.826 413.956 299.087 413.956 299.37C413.956 299.642 414.075 299.874 414.313 300.067C414.551 300.26 415.016 300.469 415.707 300.696C416.829 301.07 417.611 301.484 418.053 301.937C418.495 302.39 418.716 302.957 418.716 303.637C418.716 304.43 418.393 305.059 417.747 305.524C417.113 305.977 416.257 306.204 415.18 306.204ZM230.301 328.204C229.791 328.204 229.31 328.113 228.856 327.932C228.414 327.739 228.046 327.518 227.751 327.269V328H226.323V315.42H227.853V320.078C228.08 319.817 228.409 319.568 228.839 319.33C229.281 319.081 229.803 318.956 230.403 318.956C231.083 318.956 231.718 319.137 232.307 319.5C232.908 319.851 233.39 320.367 233.752 321.047C234.115 321.716 234.296 322.532 234.296 323.495C234.296 324.198 234.183 324.838 233.956 325.416C233.73 325.994 233.424 326.493 233.038 326.912C232.664 327.32 232.239 327.637 231.763 327.864C231.287 328.091 230.8 328.204 230.301 328.204ZM229.893 326.844C230.449 326.844 230.936 326.708 231.355 326.436C231.786 326.164 232.12 325.779 232.358 325.28C232.608 324.781 232.732 324.203 232.732 323.546C232.732 322.866 232.608 322.282 232.358 321.795C232.12 321.308 231.797 320.934 231.389 320.673C230.993 320.412 230.551 320.282 230.063 320.282C229.576 320.282 229.134 320.407 228.737 320.656C228.352 320.894 228.057 321.155 227.853 321.438V326.164C228.114 326.368 228.42 326.532 228.771 326.657C229.123 326.782 229.497 326.844 229.893 326.844ZM236.417 328V319.16H237.896V321.081C238.043 320.707 238.242 320.361 238.491 320.044C238.74 319.715 239.052 319.455 239.426 319.262C239.8 319.058 240.236 318.956 240.735 318.956C240.905 318.956 241.075 318.967 241.245 318.99C241.415 319.001 241.557 319.024 241.67 319.058L241.211 320.639C240.996 320.548 240.741 320.503 240.446 320.503C240.027 320.503 239.624 320.622 239.239 320.86C238.865 321.098 238.553 321.466 238.304 321.965C238.066 322.464 237.947 323.098 237.947 323.869V328H236.417ZM246.229 328.204C244.959 328.204 243.951 327.802 243.203 326.997C242.466 326.181 242.098 325.042 242.098 323.58C242.098 322.696 242.262 321.908 242.591 321.217C242.931 320.514 243.401 319.965 244.002 319.568C244.602 319.16 245.299 318.956 246.093 318.956C246.943 318.956 247.645 319.143 248.201 319.517C248.767 319.88 249.192 320.373 249.476 320.996C249.759 321.619 249.901 322.305 249.901 323.053C249.901 323.45 249.884 323.835 249.85 324.209H243.662C243.764 325.036 244.053 325.682 244.529 326.147C245.005 326.612 245.634 326.844 246.416 326.844C246.926 326.844 247.385 326.793 247.793 326.691C248.201 326.578 248.592 326.436 248.966 326.266L249.323 327.575C248.915 327.756 248.456 327.904 247.946 328.017C247.436 328.142 246.863 328.204 246.229 328.204ZM243.645 322.968H248.49C248.49 322.107 248.274 321.444 247.844 320.979C247.413 320.514 246.818 320.282 246.059 320.282C245.401 320.282 244.857 320.514 244.427 320.979C243.996 321.432 243.735 322.095 243.645 322.968ZM253.793 328L251.005 319.568L252.416 319.075L254.694 326.266L256.768 319.789H258.417L260.44 326.266L262.701 319.075L264.061 319.568L261.256 328H259.573L257.533 321.421L255.476 328H253.793ZM265.852 328V319.16H267.382V328H265.852ZM266.617 317.647C266.322 317.647 266.067 317.539 265.852 317.324C265.648 317.109 265.546 316.859 265.546 316.576C265.546 316.247 265.642 315.987 265.835 315.794C266.027 315.601 266.288 315.505 266.617 315.505C266.911 315.505 267.161 315.613 267.365 315.828C267.58 316.032 267.688 316.281 267.688 316.576C267.688 316.893 267.591 317.154 267.399 317.358C267.206 317.551 266.945 317.647 266.617 317.647ZM270.102 328V319.16H271.581V320.639C271.898 320.163 272.3 319.766 272.788 319.449C273.286 319.12 273.876 318.956 274.556 318.956C275.553 318.956 276.295 319.256 276.783 319.857C277.281 320.458 277.531 321.251 277.531 322.237V328H276.001V322.407C276.001 321.772 275.848 321.262 275.542 320.877C275.247 320.492 274.833 320.299 274.301 320.299C273.779 320.299 273.286 320.486 272.822 320.86C272.357 321.223 271.96 321.653 271.632 322.152V328H270.102ZM283.409 331.944C282.888 331.944 282.378 331.882 281.879 331.757C281.392 331.632 280.956 331.445 280.57 331.196L281.131 329.87C281.403 330.085 281.721 330.261 282.083 330.397C282.446 330.544 282.888 330.618 283.409 330.618C284.214 330.618 284.843 330.403 285.296 329.972C285.761 329.553 285.993 328.878 285.993 327.949V326.861C285.767 327.133 285.438 327.394 285.007 327.643C284.588 327.881 284.084 328 283.494 328C282.826 328 282.191 327.83 281.59 327.49C280.99 327.139 280.502 326.629 280.128 325.96C279.754 325.291 279.567 324.487 279.567 323.546C279.567 322.662 279.749 321.874 280.111 321.183C280.485 320.492 280.984 319.948 281.607 319.551C282.231 319.154 282.916 318.956 283.664 318.956C284.163 318.956 284.616 319.041 285.024 319.211C285.432 319.381 285.784 319.591 286.078 319.84V319.16H287.472V327.796C287.472 328.771 287.302 329.564 286.962 330.176C286.622 330.788 286.146 331.236 285.534 331.519C284.934 331.802 284.225 331.944 283.409 331.944ZM283.834 326.64C284.288 326.64 284.696 326.538 285.058 326.334C285.421 326.13 285.716 325.892 285.942 325.62V320.996C285.693 320.815 285.393 320.65 285.041 320.503C284.69 320.356 284.282 320.282 283.817 320.282C283.353 320.282 282.916 320.407 282.508 320.656C282.1 320.905 281.766 321.268 281.505 321.744C281.256 322.209 281.131 322.781 281.131 323.461C281.131 324.107 281.256 324.668 281.505 325.144C281.766 325.62 282.1 325.988 282.508 326.249C282.916 326.51 283.358 326.64 283.834 326.64ZM291.297 328.204C290.991 328.204 290.724 328.091 290.498 327.864C290.271 327.637 290.158 327.371 290.158 327.065C290.158 326.714 290.26 326.436 290.464 326.232C290.668 326.028 290.945 325.926 291.297 325.926C291.591 325.926 291.852 326.039 292.079 326.266C292.317 326.493 292.436 326.759 292.436 327.065C292.436 327.405 292.328 327.683 292.113 327.898C291.897 328.102 291.625 328.204 291.297 328.204ZM296.393 328.204C296.087 328.204 295.821 328.091 295.594 327.864C295.368 327.637 295.254 327.371 295.254 327.065C295.254 326.714 295.356 326.436 295.56 326.232C295.764 326.028 296.042 325.926 296.393 325.926C296.688 325.926 296.949 326.039 297.175 326.266C297.413 326.493 297.532 326.759 297.532 327.065C297.532 327.405 297.425 327.683 297.209 327.898C296.994 328.102 296.722 328.204 296.393 328.204ZM301.49 328.204C301.184 328.204 300.918 328.091 300.691 327.864C300.464 327.637 300.351 327.371 300.351 327.065C300.351 326.714 300.453 326.436 300.657 326.232C300.861 326.028 301.139 325.926 301.49 325.926C301.785 325.926 302.045 326.039 302.272 326.266C302.51 326.493 302.629 326.759 302.629 327.065C302.629 327.405 302.521 327.683 302.306 327.898C302.091 328.102 301.819 328.204 301.49 328.204Z" fill="#D31744"/>
<path d="M294.5 239C294.5 255.569 281.069 269 264.5 269C247.931 269 234.5 255.569 234.5 239C234.5 222.431 247.931 209 264.5 209C281.069 209 294.5 222.431 294.5 239ZM237.5 239C237.5 253.912 249.588 266 264.5 266C279.412 266 291.5 253.912 291.5 239C291.5 224.088 279.412 212 264.5 212C249.588 212 237.5 224.088 237.5 239Z" fill="#E4E4E4"/>
<path d="M293 239C293.828 239 294.504 238.328 294.463 237.501C294.291 234.073 293.532 230.697 292.216 227.519C290.709 223.88 288.499 220.573 285.713 217.787C282.927 215.001 279.62 212.791 275.981 211.284C272.803 209.968 269.427 209.209 265.999 209.037C265.172 208.996 264.5 209.672 264.5 210.5V210.5C264.5 211.328 265.172 211.996 265.999 212.042C269.032 212.21 272.019 212.89 274.832 214.055C278.108 215.412 281.085 217.401 283.592 219.908C286.099 222.415 288.088 225.392 289.445 228.668C290.61 231.481 291.29 234.468 291.458 237.501C291.504 238.328 292.172 239 293 239V239Z" fill="#6979F8"/>
</g>
<defs>
<filter id="filter0_b_521_2689" x="70" y="487" width="395" height="103" filterUnits="userSpaceOnUse" color-interpolation-filters="sRGB">
<feFlood flood-opacity="0" result="BackgroundImageFix"/>
<feGaussianBlur in="BackgroundImageFix" stdDeviation="5"/>
<feComposite in2="SourceAlpha" operator="in" result="effect1_backgroundBlur_521_2689"/>
<feBlend mode="normal" in="SourceGraphic" in2="effect1_backgroundBlur_521_2689" result="shape"/>
</filter>
<filter id="filter1_b_521_2689" x="70" y="487" width="395" height="103" filterUnits="userSpaceOnUse" color-interpolation-filters="sRGB">
<feFlood flood-opacity="0" result="BackgroundImageFix"/>
<feGaussianBlur in="BackgroundImageFix" stdDeviation="5"/>
<feComposite in2="SourceAlpha" operator="in" result="effect1_backgroundBlur_521_2689"/>
<feBlend mode="normal" in="SourceGraphic" in2="effect1_backgroundBlur_521_2689" result="shape"/>
</filter>
<clipPath id="clip0_521_2689">
<rect width="375" height="580" fill="white" transform="translate(80)"/>
</clipPath>
<clipPath id="clip1_521_2689">
<rect width="375" height="83" fill="white" transform="translate(80 497)"/>
</clipPath>
<clipPath id="clip2_521_2689">
<rect width="375" height="83" fill="white" transform="translate(80 497)"/>
</clipPath>
<clipPath id="clip3_521_2689">
<rect width="375" height="34" fill="white" transform="translate(80 546)"/>
</clipPath>
</defs>
</svg>
