<svg width="375" height="580" viewBox="0 0 375 580" fill="none" xmlns="http://www.w3.org/2000/svg">
<g clip-path="url(#clip0_521_2201)">
<rect width="375" height="580" fill="#ECF0F1"/>
<path d="M116.75 299.1C116.75 301.2 116.283 303.033 115.35 304.6C114.417 306.167 113 307.383 111.1 308.25C109.233 309.083 106.867 309.5 104 309.5C102.667 309.5 101.433 309.417 100.3 309.25C99.1667 309.083 98.1 308.85 97.1 308.55C96.1 308.217 95.1 307.817 94.1 307.35V300.3C95.8 301.033 97.5333 301.717 99.3 302.35C101.1 302.95 102.8 303.25 104.4 303.25C105.433 303.25 106.267 303.083 106.9 302.75C107.533 302.417 108 301.967 108.3 301.4C108.6 300.833 108.75 300.183 108.75 299.45C108.75 298.55 108.5 297.783 108 297.15C107.533 296.517 106.833 295.933 105.9 295.4C104.967 294.833 103.817 294.267 102.45 293.7C101.45 293.267 100.467 292.767 99.5 292.2C98.5333 291.633 97.6667 290.95 96.9 290.15C96.1333 289.317 95.5167 288.317 95.05 287.15C94.6167 285.983 94.4 284.583 94.4 282.95C94.4 280.817 94.9 279 95.9 277.5C96.9 275.967 98.3 274.8 100.1 274C101.9 273.2 104 272.8 106.4 272.8C108.367 272.8 110.183 273.017 111.85 273.45C113.55 273.883 115.167 274.5 116.7 275.3L114.15 281.2C112.683 280.533 111.283 280.017 109.95 279.65C108.65 279.283 107.383 279.1 106.15 279.1C105.317 279.1 104.617 279.25 104.05 279.55C103.483 279.85 103.05 280.267 102.75 280.8C102.483 281.333 102.35 281.967 102.35 282.7C102.35 283.533 102.567 284.25 103 284.85C103.467 285.417 104.183 285.983 105.15 286.55C106.117 287.083 107.35 287.733 108.85 288.5C110.517 289.333 111.933 290.217 113.1 291.15C114.3 292.05 115.2 293.133 115.8 294.4C116.433 295.667 116.75 297.233 116.75 299.1ZM129.865 278.75C129.865 280.083 129.815 281.367 129.715 282.6C129.648 283.833 129.582 284.7 129.515 285.2H129.915C130.482 284.267 131.115 283.517 131.815 282.95C132.548 282.35 133.365 281.917 134.265 281.65C135.165 281.35 136.132 281.2 137.165 281.2C138.965 281.2 140.548 281.55 141.915 282.25C143.315 282.95 144.415 284.033 145.215 285.5C146.015 286.967 146.415 288.867 146.415 291.2V309H138.365V293.05C138.365 291.083 138.065 289.617 137.465 288.65C136.898 287.65 135.998 287.15 134.765 287.15C133.532 287.15 132.548 287.5 131.815 288.2C131.082 288.9 130.565 289.917 130.265 291.25C129.998 292.583 129.865 294.217 129.865 296.15V309H121.865V271H129.865V278.75ZM164.666 281.15C168.033 281.15 170.633 281.95 172.466 283.55C174.333 285.117 175.266 287.533 175.266 290.8V309H169.716L168.166 305.3H167.966C167.233 306.267 166.483 307.067 165.716 307.7C164.949 308.333 164.066 308.783 163.066 309.05C162.066 309.35 160.849 309.5 159.416 309.5C157.916 309.5 156.566 309.2 155.366 308.6C154.199 307.967 153.266 307.017 152.566 305.75C151.866 304.45 151.516 302.817 151.516 300.85C151.516 297.95 152.466 295.817 154.366 294.45C156.299 293.05 159.133 292.283 162.866 292.15L167.266 292V290.8C167.266 289.367 166.949 288.317 166.316 287.65C165.683 286.983 164.816 286.65 163.716 286.65C162.583 286.65 161.399 286.85 160.166 287.25C158.933 287.617 157.699 288.083 156.466 288.65L154.016 283.6C155.483 282.833 157.099 282.233 158.866 281.8C160.666 281.367 162.599 281.15 164.666 281.15ZM164.966 296.45C162.999 296.517 161.616 296.95 160.816 297.75C160.049 298.55 159.666 299.6 159.666 300.9C159.666 302.033 159.933 302.85 160.466 303.35C161.033 303.817 161.766 304.05 162.666 304.05C163.933 304.05 165.016 303.583 165.916 302.65C166.849 301.683 167.316 300.333 167.316 298.6V296.35L164.966 296.45ZM189.923 309H181.923V271H189.923V309ZM204.718 309H196.718V271H204.718V309ZM254.913 273.3L246.463 309H237.063L233.113 290.25C233.047 289.883 232.947 289.333 232.813 288.6C232.68 287.867 232.53 287.067 232.363 286.2C232.23 285.333 232.097 284.517 231.963 283.75C231.863 282.95 231.78 282.333 231.713 281.9C231.68 282.333 231.597 282.95 231.463 283.75C231.33 284.517 231.18 285.333 231.013 286.2C230.88 287.033 230.747 287.833 230.613 288.6C230.48 289.333 230.363 289.9 230.263 290.3L226.313 309H216.913L208.463 273.3H216.363L220.313 292.8C220.413 293.367 220.547 294.067 220.713 294.9C220.88 295.7 221.047 296.55 221.213 297.45C221.38 298.317 221.53 299.167 221.663 300C221.797 300.833 221.897 301.55 221.963 302.15C222.063 301.517 222.18 300.8 222.313 300C222.48 299.167 222.63 298.317 222.763 297.45C222.93 296.583 223.08 295.783 223.213 295.05C223.38 294.283 223.513 293.667 223.613 293.2L227.963 273.3H235.463L239.713 293.3C239.813 293.733 239.93 294.333 240.063 295.1C240.23 295.833 240.397 296.633 240.563 297.5C240.73 298.367 240.88 299.217 241.013 300.05C241.147 300.85 241.263 301.55 241.363 302.15C241.463 301.317 241.613 300.333 241.813 299.2C242.013 298.033 242.23 296.867 242.463 295.7C242.697 294.533 242.897 293.567 243.063 292.8L247.013 273.3H254.913ZM268.904 281.2C271.337 281.2 273.437 281.683 275.204 282.65C276.97 283.617 278.337 285.017 279.304 286.85C280.27 288.683 280.754 290.933 280.754 293.6V297.2H264.504C264.57 299.3 265.104 300.95 266.104 302.15C267.137 303.35 268.604 303.95 270.504 303.95C272.17 303.95 273.67 303.783 275.004 303.45C276.37 303.083 277.77 302.533 279.204 301.8V307.55C277.97 308.217 276.62 308.7 275.154 309C273.72 309.333 271.937 309.5 269.804 309.5C267.204 309.5 264.887 309 262.854 308C260.854 306.967 259.27 305.417 258.104 303.35C256.97 301.283 256.404 298.683 256.404 295.55C256.404 292.35 256.92 289.7 257.954 287.6C259.02 285.467 260.487 283.867 262.354 282.8C264.254 281.733 266.437 281.2 268.904 281.2ZM269.054 286.5C267.854 286.5 266.854 286.967 266.054 287.9C265.254 288.833 264.787 290.283 264.654 292.25H273.404C273.404 291.15 273.237 290.167 272.904 289.3C272.57 288.433 272.087 287.75 271.454 287.25C270.82 286.75 270.02 286.5 269.054 286.5Z" fill="#1ABC9C"/>
<path d="M50.34 386.72L46.7 401H43.26L41.32 393.5C41.28 393.353 41.2267 393.133 41.16 392.84C41.1067 392.547 41.04 392.227 40.96 391.88C40.8933 391.533 40.8333 391.207 40.78 390.9C40.7267 390.58 40.6867 390.333 40.66 390.16C40.6467 390.333 40.6067 390.58 40.54 390.9C40.4867 391.207 40.4267 391.533 40.36 391.88C40.2933 392.213 40.2267 392.533 40.16 392.84C40.0933 393.133 40.04 393.36 40 393.52L38.08 401H34.64L31 386.72H33.98L35.8 394.52C35.8533 394.747 35.9133 395.027 35.98 395.36C36.0467 395.68 36.1133 396.02 36.18 396.38C36.2467 396.727 36.3067 397.067 36.36 397.4C36.4267 397.733 36.4733 398.02 36.5 398.26C36.5267 398.007 36.5667 397.72 36.62 397.4C36.6733 397.067 36.7333 396.733 36.8 396.4C36.8667 396.053 36.9267 395.733 36.98 395.44C37.0467 395.133 37.1067 394.893 37.16 394.72L39.24 386.72H42.1L44.18 394.72C44.22 394.893 44.2733 395.133 44.34 395.44C44.4067 395.733 44.4733 396.053 44.54 396.4C44.6067 396.747 44.6667 397.087 44.72 397.42C44.7733 397.74 44.8133 398.02 44.84 398.26C44.88 397.927 44.94 397.533 45.02 397.08C45.1 396.613 45.1867 396.147 45.28 395.68C45.3867 395.213 45.4733 394.827 45.54 394.52L47.36 386.72H50.34ZM54.8759 388.9C54.8759 389.433 54.8559 389.947 54.8159 390.44C54.7893 390.933 54.7626 391.28 54.7359 391.48H54.8959C55.1359 391.107 55.4159 390.807 55.7359 390.58C56.0559 390.34 56.4093 390.167 56.7959 390.06C57.1959 389.94 57.6159 389.88 58.0559 389.88C58.8426 389.88 59.5293 390.02 60.1159 390.3C60.7026 390.58 61.1559 391.013 61.4759 391.6C61.8093 392.187 61.9759 392.947 61.9759 393.88V401H58.9959V394.62C58.9959 393.833 58.8493 393.247 58.5559 392.86C58.2759 392.46 57.8359 392.26 57.2359 392.26C56.6359 392.26 56.1626 392.4 55.8159 392.68C55.4826 392.96 55.2426 393.367 55.0959 393.9C54.9493 394.433 54.8759 395.087 54.8759 395.86V401H51.8959V385.8H54.8759V388.9ZM69.5405 389.88C70.5538 389.88 71.4205 390.073 72.1405 390.46C72.8738 390.847 73.4405 391.407 73.8405 392.14C74.2405 392.873 74.4405 393.773 74.4405 394.84V396.28H67.4005C67.4271 397.12 67.6738 397.78 68.1405 398.26C68.6205 398.74 69.2805 398.98 70.1205 398.98C70.8271 398.98 71.4671 398.913 72.0405 398.78C72.6138 398.633 73.2071 398.413 73.8205 398.12V400.42C73.2871 400.687 72.7205 400.88 72.1205 401C71.5338 401.133 70.8205 401.2 69.9805 401.2C68.8871 401.2 67.9205 401 67.0805 400.6C66.2405 400.187 65.5805 399.567 65.1005 398.74C64.6205 397.913 64.3805 396.873 64.3805 395.62C64.3805 394.34 64.5938 393.28 65.0205 392.44C65.4605 391.587 66.0671 390.947 66.8405 390.52C67.6138 390.093 68.5138 389.88 69.5405 389.88ZM69.5605 392C68.9871 392 68.5071 392.187 68.1205 392.56C67.7471 392.933 67.5271 393.513 67.4605 394.3H71.6405C71.6405 393.86 71.5605 393.467 71.4005 393.12C71.2538 392.773 71.0271 392.5 70.7205 392.3C70.4138 392.1 70.0271 392 69.5605 392ZM82.9569 389.88C83.1035 389.88 83.2769 389.887 83.4769 389.9C83.6769 389.913 83.8369 389.933 83.9569 389.96L83.7369 392.76C83.6435 392.733 83.5035 392.713 83.3169 392.7C83.1435 392.673 82.9902 392.66 82.8569 392.66C82.4702 392.66 82.0969 392.713 81.7369 392.82C81.3769 392.913 81.0502 393.067 80.7569 393.28C80.4769 393.493 80.2502 393.78 80.0769 394.14C79.9169 394.487 79.8369 394.92 79.8369 395.44V401H76.8569V390.08H79.1169L79.5569 391.92H79.6969C79.9102 391.547 80.1769 391.207 80.4969 390.9C80.8169 390.593 81.1835 390.347 81.5969 390.16C82.0235 389.973 82.4769 389.88 82.9569 389.88ZM90.0483 389.88C91.0616 389.88 91.9283 390.073 92.6483 390.46C93.3816 390.847 93.9483 391.407 94.3483 392.14C94.7483 392.873 94.9483 393.773 94.9483 394.84V396.28H87.9083C87.9349 397.12 88.1816 397.78 88.6483 398.26C89.1283 398.74 89.7883 398.98 90.6283 398.98C91.3349 398.98 91.9749 398.913 92.5483 398.78C93.1216 398.633 93.7149 398.413 94.3283 398.12V400.42C93.7949 400.687 93.2283 400.88 92.6283 401C92.0416 401.133 91.3283 401.2 90.4883 401.2C89.3949 401.2 88.4283 401 87.5883 400.6C86.7483 400.187 86.0883 399.567 85.6083 398.74C85.1283 397.913 84.8883 396.873 84.8883 395.62C84.8883 394.34 85.1016 393.28 85.5283 392.44C85.9683 391.587 86.5749 390.947 87.3483 390.52C88.1216 390.093 89.0216 389.88 90.0483 389.88ZM90.0683 392C89.4949 392 89.0149 392.187 88.6283 392.56C88.2549 392.933 88.0349 393.513 87.9683 394.3H92.1483C92.1483 393.86 92.0683 393.467 91.9083 393.12C91.7616 392.773 91.5349 392.5 91.2283 392.3C90.9216 392.1 90.5349 392 90.0683 392ZM108.64 389.88C109.867 389.88 110.86 390.36 111.62 391.32C112.38 392.267 112.76 393.667 112.76 395.52C112.76 396.76 112.58 397.807 112.22 398.66C111.86 399.5 111.367 400.133 110.74 400.56C110.113 400.987 109.387 401.2 108.56 401.2C108.04 401.2 107.587 401.133 107.2 401C106.827 400.867 106.507 400.693 106.24 400.48C105.973 400.267 105.74 400.04 105.54 399.8H105.38C105.433 400.053 105.473 400.32 105.5 400.6C105.527 400.867 105.54 401.133 105.54 401.4V405.8H102.56V390.08H104.98L105.4 391.5H105.54C105.74 391.207 105.98 390.94 106.26 390.7C106.54 390.447 106.873 390.247 107.26 390.1C107.66 389.953 108.12 389.88 108.64 389.88ZM107.68 392.26C107.16 392.26 106.747 392.367 106.44 392.58C106.133 392.793 105.907 393.12 105.76 393.56C105.627 393.987 105.553 394.527 105.54 395.18V395.5C105.54 396.207 105.607 396.807 105.74 397.3C105.873 397.78 106.1 398.147 106.42 398.4C106.74 398.653 107.173 398.78 107.72 398.78C108.173 398.78 108.547 398.653 108.84 398.4C109.133 398.147 109.353 397.773 109.5 397.28C109.647 396.787 109.72 396.187 109.72 395.48C109.72 394.413 109.553 393.613 109.22 393.08C108.9 392.533 108.387 392.26 107.68 392.26ZM118.196 401H115.216V385.8H118.196V401ZM125.79 389.86C127.257 389.86 128.377 390.18 129.15 390.82C129.937 391.447 130.33 392.413 130.33 393.72V401H128.25L127.67 399.52H127.59C127.283 399.907 126.963 400.227 126.63 400.48C126.31 400.733 125.937 400.913 125.51 401.02C125.097 401.14 124.583 401.2 123.97 401.2C123.33 401.2 122.75 401.08 122.23 400.84C121.723 400.587 121.323 400.207 121.03 399.7C120.737 399.18 120.59 398.527 120.59 397.74C120.59 396.58 120.997 395.727 121.81 395.18C122.623 394.62 123.843 394.313 125.47 394.26L127.37 394.2V393.72C127.37 393.147 127.217 392.727 126.91 392.46C126.617 392.193 126.203 392.06 125.67 392.06C125.137 392.06 124.617 392.14 124.11 392.3C123.603 392.447 123.097 392.633 122.59 392.86L121.61 390.84C122.197 390.533 122.843 390.293 123.55 390.12C124.27 389.947 125.017 389.86 125.79 389.86ZM126.21 395.98C125.25 396.007 124.583 396.18 124.21 396.5C123.837 396.82 123.65 397.24 123.65 397.76C123.65 398.213 123.783 398.54 124.05 398.74C124.317 398.927 124.663 399.02 125.09 399.02C125.73 399.02 126.27 398.833 126.71 398.46C127.15 398.073 127.37 397.533 127.37 396.84V395.94L126.21 395.98ZM139.58 389.88C140.754 389.88 141.694 390.2 142.4 390.84C143.107 391.467 143.46 392.48 143.46 393.88V401H140.48V394.62C140.48 393.833 140.34 393.247 140.06 392.86C139.78 392.46 139.334 392.26 138.72 392.26C137.814 392.26 137.194 392.573 136.86 393.2C136.527 393.813 136.36 394.7 136.36 395.86V401H133.38V390.08H135.66L136.06 391.48H136.22C136.46 391.107 136.754 390.807 137.1 390.58C137.447 390.34 137.834 390.167 138.26 390.06C138.687 389.94 139.127 389.88 139.58 389.88ZM154.145 397.76C154.145 398.493 153.972 399.12 153.625 399.64C153.278 400.147 152.758 400.533 152.065 400.8C151.372 401.067 150.512 401.2 149.485 401.2C148.725 401.2 148.072 401.147 147.525 401.04C146.978 400.947 146.432 400.787 145.885 400.56V398.1C146.472 398.367 147.105 398.587 147.785 398.76C148.465 398.933 149.065 399.02 149.585 399.02C150.172 399.02 150.585 398.933 150.825 398.76C151.078 398.587 151.205 398.36 151.205 398.08C151.205 397.893 151.152 397.727 151.045 397.58C150.952 397.433 150.738 397.267 150.405 397.08C150.072 396.893 149.552 396.653 148.845 396.36C148.165 396.067 147.605 395.78 147.165 395.5C146.725 395.207 146.398 394.86 146.185 394.46C145.972 394.047 145.865 393.533 145.865 392.92C145.865 391.907 146.258 391.147 147.045 390.64C147.832 390.133 148.878 389.88 150.185 389.88C150.865 389.88 151.512 389.947 152.125 390.08C152.738 390.213 153.372 390.433 154.025 390.74L153.125 392.88C152.765 392.72 152.418 392.58 152.085 392.46C151.752 392.34 151.425 392.247 151.105 392.18C150.798 392.113 150.478 392.08 150.145 392.08C149.705 392.08 149.372 392.14 149.145 392.26C148.932 392.38 148.825 392.56 148.825 392.8C148.825 392.973 148.878 393.133 148.985 393.28C149.105 393.413 149.325 393.56 149.645 393.72C149.978 393.88 150.465 394.093 151.105 394.36C151.732 394.613 152.272 394.88 152.725 395.16C153.178 395.427 153.525 395.767 153.765 396.18C154.018 396.58 154.145 397.107 154.145 397.76ZM174.482 389.88C175.722 389.88 176.655 390.2 177.282 390.84C177.922 391.467 178.242 392.48 178.242 393.88V401H175.262V394.62C175.262 393.833 175.128 393.247 174.862 392.86C174.595 392.46 174.182 392.26 173.622 392.26C172.835 392.26 172.275 392.54 171.942 393.1C171.608 393.66 171.442 394.467 171.442 395.52V401H168.462V394.62C168.462 394.1 168.402 393.667 168.282 393.32C168.162 392.973 167.982 392.713 167.742 392.54C167.502 392.353 167.195 392.26 166.822 392.26C166.275 392.26 165.842 392.4 165.522 392.68C165.202 392.96 164.975 393.367 164.842 393.9C164.708 394.433 164.642 395.087 164.642 395.86V401H161.662V390.08H163.942L164.342 391.48H164.502C164.728 391.107 165.008 390.807 165.342 390.58C165.675 390.34 166.042 390.167 166.442 390.06C166.855 389.94 167.268 389.88 167.682 389.88C168.482 389.88 169.162 390.013 169.722 390.28C170.282 390.533 170.708 390.933 171.002 391.48H171.262C171.595 390.92 172.055 390.513 172.642 390.26C173.242 390.007 173.855 389.88 174.482 389.88ZM185.81 389.88C186.823 389.88 187.69 390.073 188.41 390.46C189.143 390.847 189.71 391.407 190.11 392.14C190.51 392.873 190.71 393.773 190.71 394.84V396.28H183.67C183.697 397.12 183.943 397.78 184.41 398.26C184.89 398.74 185.55 398.98 186.39 398.98C187.097 398.98 187.737 398.913 188.31 398.78C188.883 398.633 189.477 398.413 190.09 398.12V400.42C189.557 400.687 188.99 400.88 188.39 401C187.803 401.133 187.09 401.2 186.25 401.2C185.157 401.2 184.19 401 183.35 400.6C182.51 400.187 181.85 399.567 181.37 398.74C180.89 397.913 180.65 396.873 180.65 395.62C180.65 394.34 180.863 393.28 181.29 392.44C181.73 391.587 182.337 390.947 183.11 390.52C183.883 390.093 184.783 389.88 185.81 389.88ZM185.83 392C185.257 392 184.777 392.187 184.39 392.56C184.017 392.933 183.797 393.513 183.73 394.3H187.91C187.91 393.86 187.83 393.467 187.67 393.12C187.523 392.773 187.297 392.5 186.99 392.3C186.683 392.1 186.297 392 185.83 392ZM197.626 389.88C198.64 389.88 199.506 390.073 200.226 390.46C200.96 390.847 201.526 391.407 201.926 392.14C202.326 392.873 202.526 393.773 202.526 394.84V396.28H195.486C195.513 397.12 195.76 397.78 196.226 398.26C196.706 398.74 197.366 398.98 198.206 398.98C198.913 398.98 199.553 398.913 200.126 398.78C200.7 398.633 201.293 398.413 201.906 398.12V400.42C201.373 400.687 200.806 400.88 200.206 401C199.62 401.133 198.906 401.2 198.066 401.2C196.973 401.2 196.006 401 195.166 400.6C194.326 400.187 193.666 399.567 193.186 398.74C192.706 397.913 192.466 396.873 192.466 395.62C192.466 394.34 192.68 393.28 193.106 392.44C193.546 391.587 194.153 390.947 194.926 390.52C195.7 390.093 196.6 389.88 197.626 389.88ZM197.646 392C197.073 392 196.593 392.187 196.206 392.56C195.833 392.933 195.613 393.513 195.546 394.3H199.726C199.726 393.86 199.646 393.467 199.486 393.12C199.34 392.773 199.113 392.5 198.806 392.3C198.5 392.1 198.113 392 197.646 392ZM209.543 398.82C209.876 398.82 210.196 398.787 210.503 398.72C210.809 398.653 211.116 398.573 211.423 398.48V400.7C211.103 400.833 210.703 400.947 210.223 401.04C209.756 401.147 209.243 401.2 208.683 401.2C208.029 401.2 207.443 401.093 206.923 400.88C206.416 400.667 206.009 400.3 205.703 399.78C205.409 399.247 205.263 398.513 205.263 397.58V392.32H203.843V391.06L205.483 390.06L206.343 387.76H208.243V390.08H211.303V392.32H208.243V397.58C208.243 397.993 208.363 398.307 208.603 398.52C208.843 398.72 209.156 398.82 209.543 398.82ZM226.43 397.76C226.43 398.493 226.257 399.12 225.91 399.64C225.563 400.147 225.043 400.533 224.35 400.8C223.657 401.067 222.797 401.2 221.77 401.2C221.01 401.2 220.357 401.147 219.81 401.04C219.263 400.947 218.717 400.787 218.17 400.56V398.1C218.757 398.367 219.39 398.587 220.07 398.76C220.75 398.933 221.35 399.02 221.87 399.02C222.457 399.02 222.87 398.933 223.11 398.76C223.363 398.587 223.49 398.36 223.49 398.08C223.49 397.893 223.437 397.727 223.33 397.58C223.237 397.433 223.023 397.267 222.69 397.08C222.357 396.893 221.837 396.653 221.13 396.36C220.45 396.067 219.89 395.78 219.45 395.5C219.01 395.207 218.683 394.86 218.47 394.46C218.257 394.047 218.15 393.533 218.15 392.92C218.15 391.907 218.543 391.147 219.33 390.64C220.117 390.133 221.163 389.88 222.47 389.88C223.15 389.88 223.797 389.947 224.41 390.08C225.023 390.213 225.657 390.433 226.31 390.74L225.41 392.88C225.05 392.72 224.703 392.58 224.37 392.46C224.037 392.34 223.71 392.247 223.39 392.18C223.083 392.113 222.763 392.08 222.43 392.08C221.99 392.08 221.657 392.14 221.43 392.26C221.217 392.38 221.11 392.56 221.11 392.8C221.11 392.973 221.163 393.133 221.27 393.28C221.39 393.413 221.61 393.56 221.93 393.72C222.263 393.88 222.75 394.093 223.39 394.36C224.017 394.613 224.557 394.88 225.01 395.16C225.463 395.427 225.81 395.767 226.05 396.18C226.303 396.58 226.43 397.107 226.43 397.76ZM234.831 389.88C236.058 389.88 237.051 390.36 237.811 391.32C238.571 392.267 238.951 393.667 238.951 395.52C238.951 396.76 238.771 397.807 238.411 398.66C238.051 399.5 237.558 400.133 236.931 400.56C236.305 400.987 235.578 401.2 234.751 401.2C234.231 401.2 233.778 401.133 233.391 401C233.018 400.867 232.698 400.693 232.431 400.48C232.165 400.267 231.931 400.04 231.731 399.8H231.571C231.625 400.053 231.665 400.32 231.691 400.6C231.718 400.867 231.731 401.133 231.731 401.4V405.8H228.751V390.08H231.171L231.591 391.5H231.731C231.931 391.207 232.171 390.94 232.451 390.7C232.731 390.447 233.065 390.247 233.451 390.1C233.851 389.953 234.311 389.88 234.831 389.88ZM233.871 392.26C233.351 392.26 232.938 392.367 232.631 392.58C232.325 392.793 232.098 393.12 231.951 393.56C231.818 393.987 231.745 394.527 231.731 395.18V395.5C231.731 396.207 231.798 396.807 231.931 397.3C232.065 397.78 232.291 398.147 232.611 398.4C232.931 398.653 233.365 398.78 233.911 398.78C234.365 398.78 234.738 398.653 235.031 398.4C235.325 398.147 235.545 397.773 235.691 397.28C235.838 396.787 235.911 396.187 235.911 395.48C235.911 394.413 235.745 393.613 235.411 393.08C235.091 392.533 234.578 392.26 233.871 392.26ZM251.328 395.52C251.328 396.427 251.201 397.233 250.948 397.94C250.708 398.647 250.354 399.247 249.888 399.74C249.434 400.22 248.881 400.587 248.228 400.84C247.574 401.08 246.834 401.2 246.008 401.2C245.248 401.2 244.541 401.08 243.888 400.84C243.248 400.587 242.694 400.22 242.228 399.74C241.761 399.247 241.394 398.647 241.128 397.94C240.874 397.233 240.748 396.427 240.748 395.52C240.748 394.307 240.961 393.287 241.388 392.46C241.814 391.62 242.428 390.98 243.228 390.54C244.028 390.1 244.974 389.88 246.068 389.88C247.094 389.88 248.001 390.1 248.788 390.54C249.574 390.98 250.194 391.62 250.648 392.46C251.101 393.287 251.328 394.307 251.328 395.52ZM243.788 395.52C243.788 396.24 243.861 396.847 244.008 397.34C244.168 397.82 244.414 398.187 244.748 398.44C245.081 398.68 245.514 398.8 246.048 398.8C246.581 398.8 247.008 398.68 247.328 398.44C247.661 398.187 247.901 397.82 248.048 397.34C248.208 396.847 248.288 396.24 248.288 395.52C248.288 394.8 248.208 394.2 248.048 393.72C247.901 393.24 247.661 392.88 247.328 392.64C246.994 392.4 246.561 392.28 246.028 392.28C245.241 392.28 244.668 392.553 244.308 393.1C243.961 393.633 243.788 394.44 243.788 395.52ZM259.99 389.88C261.164 389.88 262.104 390.2 262.81 390.84C263.517 391.467 263.87 392.48 263.87 393.88V401H260.89V394.62C260.89 393.833 260.75 393.247 260.47 392.86C260.19 392.46 259.744 392.26 259.13 392.26C258.224 392.26 257.604 392.573 257.27 393.2C256.937 393.813 256.77 394.7 256.77 395.86V401H253.79V390.08H256.07L256.47 391.48H256.63C256.87 391.107 257.164 390.807 257.51 390.58C257.857 390.34 258.244 390.167 258.67 390.06C259.097 389.94 259.537 389.88 259.99 389.88ZM271.535 398.82C271.868 398.82 272.188 398.787 272.495 398.72C272.802 398.653 273.108 398.573 273.415 398.48V400.7C273.095 400.833 272.695 400.947 272.215 401.04C271.748 401.147 271.235 401.2 270.675 401.2C270.022 401.2 269.435 401.093 268.915 400.88C268.408 400.667 268.002 400.3 267.695 399.78C267.402 399.247 267.255 398.513 267.255 397.58V392.32H265.835V391.06L267.475 390.06L268.335 387.76H270.235V390.08H273.295V392.32H270.235V397.58C270.235 397.993 270.355 398.307 270.595 398.52C270.835 398.72 271.148 398.82 271.535 398.82ZM280.087 389.86C281.554 389.86 282.674 390.18 283.447 390.82C284.234 391.447 284.627 392.413 284.627 393.72V401H282.547L281.967 399.52H281.887C281.58 399.907 281.26 400.227 280.927 400.48C280.607 400.733 280.234 400.913 279.807 401.02C279.394 401.14 278.88 401.2 278.267 401.2C277.627 401.2 277.047 401.08 276.527 400.84C276.02 400.587 275.62 400.207 275.327 399.7C275.034 399.18 274.887 398.527 274.887 397.74C274.887 396.58 275.294 395.727 276.107 395.18C276.92 394.62 278.14 394.313 279.767 394.26L281.667 394.2V393.72C281.667 393.147 281.514 392.727 281.207 392.46C280.914 392.193 280.5 392.06 279.967 392.06C279.434 392.06 278.914 392.14 278.407 392.3C277.9 392.447 277.394 392.633 276.887 392.86L275.907 390.84C276.494 390.533 277.14 390.293 277.847 390.12C278.567 389.947 279.314 389.86 280.087 389.86ZM280.507 395.98C279.547 396.007 278.88 396.18 278.507 396.5C278.134 396.82 277.947 397.24 277.947 397.76C277.947 398.213 278.08 398.54 278.347 398.74C278.614 398.927 278.96 399.02 279.387 399.02C280.027 399.02 280.567 398.833 281.007 398.46C281.447 398.073 281.667 397.533 281.667 396.84V395.94L280.507 395.98ZM293.877 389.88C295.051 389.88 295.991 390.2 296.697 390.84C297.404 391.467 297.757 392.48 297.757 393.88V401H294.777V394.62C294.777 393.833 294.637 393.247 294.357 392.86C294.077 392.46 293.631 392.26 293.017 392.26C292.111 392.26 291.491 392.573 291.157 393.2C290.824 393.813 290.657 394.7 290.657 395.86V401H287.677V390.08H289.957L290.357 391.48H290.517C290.757 391.107 291.051 390.807 291.397 390.58C291.744 390.34 292.131 390.167 292.557 390.06C292.984 389.94 293.424 389.88 293.877 389.88ZM305.322 389.88C306.335 389.88 307.202 390.073 307.922 390.46C308.655 390.847 309.222 391.407 309.622 392.14C310.022 392.873 310.222 393.773 310.222 394.84V396.28H303.182C303.208 397.12 303.455 397.78 303.922 398.26C304.402 398.74 305.062 398.98 305.902 398.98C306.608 398.98 307.248 398.913 307.822 398.78C308.395 398.633 308.988 398.413 309.602 398.12V400.42C309.068 400.687 308.502 400.88 307.902 401C307.315 401.133 306.602 401.2 305.762 401.2C304.668 401.2 303.702 401 302.862 400.6C302.022 400.187 301.362 399.567 300.882 398.74C300.402 397.913 300.162 396.873 300.162 395.62C300.162 394.34 300.375 393.28 300.802 392.44C301.242 391.587 301.848 390.947 302.622 390.52C303.395 390.093 304.295 389.88 305.322 389.88ZM305.342 392C304.768 392 304.288 392.187 303.902 392.56C303.528 392.933 303.308 393.513 303.242 394.3H307.422C307.422 393.86 307.342 393.467 307.182 393.12C307.035 392.773 306.808 392.5 306.502 392.3C306.195 392.1 305.808 392 305.342 392ZM315.618 390.08V401H312.638V390.08H315.618ZM314.138 385.8C314.578 385.8 314.958 385.907 315.278 386.12C315.598 386.32 315.758 386.7 315.758 387.26C315.758 387.807 315.598 388.187 315.278 388.4C314.958 388.613 314.578 388.72 314.138 388.72C313.685 388.72 313.298 388.613 312.978 388.4C312.671 388.187 312.518 387.807 312.518 387.26C312.518 386.7 312.671 386.32 312.978 386.12C313.298 385.907 313.685 385.8 314.138 385.8ZM323.332 398.82C323.665 398.82 323.985 398.787 324.292 398.72C324.599 398.653 324.905 398.573 325.212 398.48V400.7C324.892 400.833 324.492 400.947 324.012 401.04C323.545 401.147 323.032 401.2 322.472 401.2C321.819 401.2 321.232 401.093 320.712 400.88C320.205 400.667 319.799 400.3 319.492 399.78C319.199 399.247 319.052 398.513 319.052 397.58V392.32H317.632V391.06L319.272 390.06L320.132 387.76H322.032V390.08H325.092V392.32H322.032V397.58C322.032 397.993 322.152 398.307 322.392 398.52C322.632 398.72 322.945 398.82 323.332 398.82ZM325.844 390.08H329.104L331.164 396.22C331.23 396.42 331.284 396.62 331.324 396.82C331.377 397.02 331.417 397.227 331.444 397.44C331.484 397.653 331.51 397.88 331.524 398.12H331.584C331.624 397.773 331.677 397.447 331.744 397.14C331.824 396.82 331.91 396.513 332.004 396.22L334.024 390.08H337.224L332.604 402.4C332.324 403.147 331.957 403.773 331.504 404.28C331.064 404.787 330.55 405.167 329.964 405.42C329.377 405.673 328.737 405.8 328.044 405.8C327.71 405.8 327.417 405.78 327.164 405.74C326.924 405.713 326.71 405.68 326.524 405.64V403.28C326.67 403.307 326.844 403.333 327.044 403.36C327.257 403.387 327.477 403.4 327.704 403.4C328.117 403.4 328.47 403.313 328.764 403.14C329.07 402.967 329.324 402.727 329.524 402.42C329.724 402.127 329.884 401.807 330.004 401.46L330.184 400.92L325.844 390.08Z" fill="#F1C40F"/>
</g>
<defs>
<clipPath id="clip0_521_2201">
<rect width="375" height="580" fill="white"/>
</clipPath>
</defs>
</svg>
